<?xml version="1.0" encoding="UTF-8"?>
<!DOCTYPE svg PUBLIC "-//W3C//DTD SVG 1.1//EN" "http://www.w3.org/Graphics/SVG/1.1/DTD/svg11.dtd">
<!-- Creator: CorelDRAW -->
<svg xmlns="http://www.w3.org/2000/svg" xml:space="preserve" width="9.128mm" height="9.128mm" style="shape-rendering:geometricPrecision; text-rendering:geometricPrecision; image-rendering:optimizeQuality; fill-rule:evenodd; clip-rule:evenodd"
viewBox="0 0 0.0801069 0.0801069"
 xmlns:xlink="http://www.w3.org/1999/xlink">
 <defs>
  <style type="text/css">
   <![CDATA[
    .fil0 {fill:#5C686D;fill-rule:nonzero}
   ]]>
  </style>
 </defs>
 <g id="Слой_x0020_1">
  <metadata id="CorelCorpID_0Corel-Layer"/>
  <g id="_116986200">
   <path id="_117627240" class="fil0" d="M0.0801069 0.0230255l0 0.034056c0,0.00304262 -0.000609051,0.00603434 -0.00175607,0.00880491l-2.63279e-006 6.14317e-006 2.63279e-006 8.77595e-007c-0.00114789,0.00276969 -0.00283375,0.00531472 -0.00498825,0.00746921 -0.0021545,0.0021545 -0.00469952,0.00384036 -0.00746921,0.00498825l-9.56579e-005 3.6859e-005c-0.00274512,0.00112332 -0.00570612,0.00171921 -0.00871627,0.00171921l-0.034056 0c-0.0030435,0 -0.00603347,-0.000609051 -0.00880491,-0.00175607l-6.14317e-006 -2.63279e-006 -8.77595e-007 2.63279e-006c-0.00277057,-0.00114789 -0.00531559,-0.00283375 -0.00747009,-0.00498825 -0.00215099,-0.00215099 -0.00383772,-0.00469864 -0.00498737,-0.00747623 -0.00114702,-0.00277145 -0.00175607,-0.00576141 -0.00175607,-0.00880491l0 -0.034056c0,-0.0030435 0.000609051,-0.00603347 0.00175607,-0.00880491 0.00114965,-0.00277759 0.00283639,-0.00532612 0.00498737,-0.00747711 0.00215099,-0.00215099 0.00469952,-0.00383772 0.00747711,-0.00498737 0.00277145,-0.00114702 0.00576141,-0.00175607 0.00880491,-0.00175607l0.034056 0c0.0030435,0 0.00603347,0.000609051 0.00880491,0.00175607 0.00277759,0.00114965 0.00532525,0.00283639 0.00747623,0.00498737 0.0021545,0.0021545 0.00384036,0.00469952 0.00498825,0.00747009l3.6859e-005 9.56579e-005c0.00112332,0.002746 0.00171921,0.00570525 0.00171921,0.00871627zm-0.0034823 0.034056l0 -0.034056c0,-0.00256697 -0.000501984,-0.00507689 -0.00144715,-0.00739462l-3.6859e-005 -8.33715e-005c-0.000971498,-0.00234493 -0.00240549,-0.00450645 -0.00424054,-0.0063415 -0.00183856,-0.00183856 -0.00399657,-0.00327255 -0.0063336,-0.00423966 -0.0023423,-0.000969743 -0.00488382,-0.00148401 -0.00748501,-0.00148401l-0.034056 0c-0.00260119,0 -0.00514271,0.000514271 -0.00748501,0.00148401 -0.00233704,0.00096711 -0.00449592,0.0024011 -0.00633448,0.00423966 -0.00183856,0.00183856 -0.00327255,0.00399745 -0.00423966,0.00633448 -0.000969743,0.0023423 -0.00148401,0.00488382 -0.00148401,0.00748501l0 0.034056c0,0.00260119 0.000514271,0.00514271 0.00148401,0.00748501 0.00096711,0.00233704 0.0024011,0.00449504 0.00423966,0.0063336 0.00183505,0.00183505 0.00399657,0.00326904 0.0063415,0.00424054l-8.77595e-007 2.63279e-006c0.00234055,0.000967987 0.00488031,0.00148138 0.00747887,0.00148138l0.034056 0c0.00256697,0 0.00507689,-0.000501984 0.00739462,-0.00144715l8.33715e-005 -3.6859e-005c0.00234406,-0.000971498 0.0045047,-0.00240461 0.00634062,-0.00424054 0.00183593,-0.00183593 0.00326904,-0.00399657 0.00424054,-0.00634062l2.63279e-006 8.77595e-007c0.000967987,-0.00234055 0.00148138,-0.00488031 0.00148138,-0.00747887z"/>
   <path id="_116986608" class="fil0" d="M0.0375374 0.0783657c0,0.000960967 -0.000780182,0.00174115 -0.00174115,0.00174115 -0.000960967,0 -0.00174115,-0.000780182 -0.00174115,-0.00174115l0 -0.0323139 -0.0067724 0c-0.000960967,0 -0.00174115,-0.000780182 -0.00174115,-0.00174115 0,-0.000960967 0.000780182,-0.00174115 0.00174115,-0.00174115l0.0067724 0 0 -0.00251607c0,-0.00498825 0.000600275,-0.00958773 0.00329361,-0.0130674 0.00271879,-0.00351126 0.00740866,-0.00570174 0.0154755,-0.00570174 0.000960967,0 0.00174115,0.000780182 0.00174115,0.00174115 0,0.000960967 -0.000780182,0.00174115 -0.00174115,0.00174115 -0.00683032,0 -0.0106566,0.00166743 -0.0127269,0.00434146 -0.00209394,0.00270475 -0.00255994,0.00662146 -0.00255994,0.0109454l0 0.00251607 0.0152868 0c0.000960967,0 0.00174115,0.000780182 0.00174115,0.00174115 0,0.000960967 -0.000780182,0.00174115 -0.00174115,0.00174115l-0.0152868 0 0 0.0323139z"/>
  </g>
 </g>
</svg>
