<svg width="44" height="44" viewBox="0 0 44 44" fill="none" xmlns="http://www.w3.org/2000/svg">
<path d="M22 22.0001C23.0083 22.0001 23.8718 21.6407 24.5905 20.9221C25.3092 20.2034 25.6679 19.3405 25.6667 18.3334C25.6667 17.3251 25.3073 16.4616 24.5887 15.7429C23.87 15.0242 23.0071 14.6655 22 14.6667C20.9917 14.6667 20.1282 15.0261 19.4095 15.7447C18.6908 16.4634 18.3321 17.3263 18.3333 18.3334C18.3333 19.3417 18.6927 20.2052 19.4113 20.9239C20.13 21.6426 20.9929 22.0013 22 22.0001ZM22 35.4751C25.7278 32.0529 28.493 28.9435 30.2958 26.1471C32.0986 23.3506 33 20.8683 33 18.7001C33 15.3695 31.9379 12.6427 29.8137 10.5197C27.6894 8.39675 25.0849 7.33464 22 7.33341C18.9139 7.33341 16.3087 8.39553 14.1845 10.5197C12.0603 12.644 10.9988 15.3707 11 18.7001C11 20.8695 11.9014 23.3525 13.7042 26.1489C15.5069 28.9454 18.2722 32.0541 22 35.4751ZM22 40.3334C17.0806 36.1473 13.4066 32.2594 10.978 28.6697C8.54944 25.0801 7.33455 21.7569 7.33333 18.7001C7.33333 14.1167 8.80794 10.4654 11.7572 7.74591C14.7064 5.02647 18.1207 3.66675 22 3.66675C25.8806 3.66675 29.2954 5.02647 32.2447 7.74591C35.1939 10.4654 36.6679 14.1167 36.6667 18.7001C36.6667 21.7556 35.4518 25.0789 33.022 28.6697C30.5922 32.2606 26.9182 36.1485 22 40.3334Z" fill="#5C686D"/>
</svg>
