<?xml version="1.0" encoding="UTF-8"?>
<!DOCTYPE svg PUBLIC "-//W3C//DTD SVG 1.1//EN" "http://www.w3.org/Graphics/SVG/1.1/DTD/svg11.dtd">
<!-- Creator: CorelDRAW -->
<svg xmlns="http://www.w3.org/2000/svg" xml:space="preserve" width="13.4936mm" height="3.175mm" style="shape-rendering:geometricPrecision; text-rendering:geometricPrecision; image-rendering:optimizeQuality; fill-rule:evenodd; clip-rule:evenodd"
viewBox="0 0 0.172406 0.0405666"
 xmlns:xlink="http://www.w3.org/1999/xlink">
 <defs>
  <style type="text/css">
   <![CDATA[
    .fil0 {fill:#1F6C94}
    .fil1 {fill:#1F6C94;fill-rule:nonzero}
   ]]>
  </style>
 </defs>
 <g id="Слой_x0020_1">
  <metadata id="CorelCorpID_0Corel-Layer"/>
  <g id="_442555560">
   <polygon id="_117627816" class="fil0" points="0.0862031,0 0.106486,0.0202833 0.0862031,0.0405666 0.0659198,0.0202833 "/>
   <path id="_117626616" class="fil1" d="M0.00845064 0.028734c-0.00466612,0 -0.00845064,-0.00378452 -0.00845064,-0.00845064 0,-0.00466612 0.00378452,-0.00845064 0.00845064,-0.00845064l0.0405666 0c0.00466612,0 0.00845064,0.00378452 0.00845064,0.00845064 0,0.00466612 -0.00378452,0.00845064 -0.00845064,0.00845064l-0.0405666 0z"/>
   <path id="_117627360" class="fil1" d="M0.123389 0.028734c-0.00466612,0 -0.00845064,-0.00378452 -0.00845064,-0.00845064 0,-0.00466612 0.00378452,-0.00845064 0.00845064,-0.00845064l0.0405666 0c0.00466612,0 0.00845064,0.00378452 0.00845064,0.00845064 0,0.00466612 -0.00378452,0.00845064 -0.00845064,0.00845064l-0.0405666 0z"/>
  </g>
 </g>
</svg>
