<svg width="25" height="24" viewBox="0 0 25 24" fill="none" xmlns="http://www.w3.org/2000/svg">
<path d="M15.5 12H17.5C17.5 10.6739 16.9732 9.40215 16.0355 8.46447C15.0979 7.52678 13.8261 7 12.5 7V9C13.2956 9 14.0587 9.31607 14.6213 9.87868C15.1839 10.4413 15.5 11.2044 15.5 12ZM19.5 12H21.5C21.5 7 17.47 3 12.5 3V5C16.36 5 19.5 8.13 19.5 12ZM20.5 15.5C19.25 15.5 18.05 15.3 16.93 14.93C16.58 14.82 16.19 14.9 15.91 15.18L13.71 17.38C10.8733 15.9333 8.56671 13.6267 7.12 10.79L9.32 8.59C9.6 8.31 9.68 7.92 9.57 7.57C9.19065 6.41806 8.99821 5.2128 9 4C9 3.73478 8.89464 3.48043 8.70711 3.29289C8.51957 3.10536 8.26522 3 8 3H4.5C4.23478 3 3.98043 3.10536 3.79289 3.29289C3.60536 3.48043 3.5 3.73478 3.5 4C3.5 8.50868 5.29107 12.8327 8.47918 16.0208C11.6673 19.2089 15.9913 21 20.5 21C20.7652 21 21.0196 20.8946 21.2071 20.7071C21.3946 20.5196 21.5 20.2652 21.5 20V16.5C21.5 16.2348 21.3946 15.9804 21.2071 15.7929C21.0196 15.6054 20.7652 15.5 20.5 15.5Z" fill="#1F6C94"/>
</svg>
