<svg width="44" height="44" viewBox="0 0 44 44" fill="none" xmlns="http://www.w3.org/2000/svg">
<path d="M27.1187 19.7542L20.394 15.8822C19.9992 15.6549 19.5515 15.5354 19.0959 15.5357C18.6404 15.5361 18.1929 15.6562 17.7984 15.8841C17.4039 16.112 17.0763 16.4396 16.8484 16.8341C16.6205 17.2286 16.5003 17.6761 16.5 18.1317V25.872C16.4945 26.7997 16.9895 27.6577 17.7944 28.116C18.189 28.3465 18.6376 28.4683 19.0946 28.469C19.5516 28.4696 20.0006 28.3491 20.3959 28.1197L27.1187 24.2477C27.5136 24.0206 27.8417 23.6935 28.0698 23.2992C28.298 22.9049 28.4181 22.4574 28.4181 22.0018C28.4181 21.5463 28.298 21.0988 28.0698 20.7045C27.8417 20.3102 27.5136 19.9831 27.1187 19.756V19.7542ZM26.202 22.6545L19.481 26.5283C19.3646 26.5967 19.232 26.6327 19.0969 26.6327C18.9619 26.6327 18.8293 26.5967 18.7129 26.5283C18.5963 26.4624 18.4996 26.3663 18.4329 26.2502C18.3661 26.1341 18.3317 26.0023 18.3334 25.8683V18.1317C18.3321 17.9981 18.3666 17.8666 18.4333 17.7508C18.5001 17.6351 18.5966 17.5393 18.7129 17.4735C18.8283 17.4032 18.9609 17.3661 19.096 17.3661C19.2312 17.3661 19.3637 17.4032 19.4792 17.4735L26.202 21.3473C26.318 21.4128 26.4144 21.5079 26.4816 21.6229C26.5487 21.7379 26.584 21.8687 26.584 22.0018C26.584 22.135 26.5487 22.2658 26.4816 22.3808C26.4144 22.4958 26.318 22.589 26.202 22.6545ZM34.8334 7.33334H9.16669C7.70844 7.3348 6.31034 7.91473 5.27921 8.94586C4.24807 9.977 3.66814 11.3751 3.66669 12.8333V31.1667C3.66814 32.6249 4.24807 34.023 5.27921 35.0542C6.31034 36.0853 7.70844 36.6652 9.16669 36.6667H34.8334C36.2916 36.6652 37.6897 36.0853 38.7208 35.0542C39.752 34.023 40.3319 32.6249 40.3334 31.1667V12.8333C40.3319 11.3751 39.752 9.977 38.7208 8.94586C37.6897 7.91473 36.2916 7.3348 34.8334 7.33334ZM38.5 31.1667C38.4986 32.1387 38.1118 33.0705 37.4245 33.7578C36.7372 34.4451 35.8054 34.8319 34.8334 34.8333H9.16669C8.19467 34.8319 7.26289 34.4451 6.57557 33.7578C5.88825 33.0705 5.50148 32.1387 5.50002 31.1667V12.8333C5.50148 11.8613 5.88825 10.9295 6.57557 10.2422C7.26289 9.55491 8.19467 9.16813 9.16669 9.16668H34.8334C35.8054 9.16813 36.7372 9.55491 37.4245 10.2422C38.1118 10.9295 38.4986 11.8613 38.5 12.8333V31.1667Z" fill="#5C686D"/>
</svg>
