<?xml version="1.0" standalone="no"?>
<!DOCTYPE svg PUBLIC "-//W3C//DTD SVG 1.1//EN" "http://www.w3.org/Graphics/SVG/1.1/DTD/svg11.dtd" >
<svg xmlns="http://www.w3.org/2000/svg" xmlns:xlink="http://www.w3.org/1999/xlink" version="1.1">
<metadata>
Created by FontForge 20170731 at Thu Feb  6 17:31:52 2020
 By Aleksey,,,
Copyright (c) 2019 by Dmitry Rastvortsev. Ordered by Projector, Dmytro Bulanov Creative Bu:ro and Banda Agency for Kyiv city identification. Long live Free Ukraine!
</metadata>
<defs>
<font id="KyivTypeSans-Bold" horiz-adv-x="700" >
  <font-face 
    font-family="KyivType Sans Bold"
    font-weight="700"
    font-stretch="normal"
    units-per-em="1000"
    panose-1="0 0 8 0 0 0 0 0 0 0"
    ascent="800"
    descent="-200"
    x-height="500"
    cap-height="700"
    bbox="-500 -245 1208 1029"
    underline-thickness="50"
    underline-position="-150"
    unicode-range="U+000D-2605"
  />
<missing-glyph horiz-adv-x="1064" 
d="M508 210l-194 -173l-171 51l48 172h297l-368 113v173l160 41l220 -263l-126 353l158 133l158 -133l-126 -353l220 263l160 -41v-173l-368 -113h297l48 -172l-171 -51l-194 173l22 -250h-92z" />
    <glyph glyph-name=".notdef" horiz-adv-x="1064" 
d="M508 210l-194 -173l-171 51l48 172h297l-368 113v173l160 41l220 -263l-126 353l158 133l158 -133l-126 -353l220 263l160 -41v-173l-368 -113h297l48 -172l-171 -51l-194 173l22 -250h-92z" />
    <glyph glyph-name=".null" horiz-adv-x="180" 
 />
    <glyph glyph-name="nonmarkingreturn" unicode="&#xd;" horiz-adv-x="250" 
 />
    <glyph glyph-name="space" unicode=" " horiz-adv-x="250" 
 />
    <glyph glyph-name="exclam" unicode="!" horiz-adv-x="344" 
d="M82 700h174l-29 -450h-117zM104.5 17.5q-27.5 27.5 -27.5 67.5q0 41 27.5 68t67.5 27q41 0 68 -27t27 -68q0 -40 -27 -67.5t-68 -27.5q-40 0 -67.5 27.5z" />
    <glyph glyph-name="quotedbl" unicode="&#x22;" horiz-adv-x="381" 
d="M351 703l-77 -244h-10l-73 234l-74 -234h-10l-76 244h320z" />
    <glyph glyph-name="numbersign" unicode="#" 
d="M160 130h-112v136h112v169h-112v135h112v145h125v-145h131v145h125v-145h111v-135h-111v-169h111v-136h-111v-145h-125v145h-131v-145h-125v145zM416 266v169h-131v-169h131z" />
    <glyph glyph-name="dollar" unicode="$" 
d="M116 69q-69 64 -78 173h155q10 -59 54.5 -91.5t113.5 -32.5q61 0 97.5 18.5t36.5 54.5q0 28 -17.5 43.5t-48 25t-97.5 23.5q-85 18 -141.5 39.5t-96 65.5t-39.5 116q0 92 67.5 145t170.5 64v117h104v-118q107 -12 178.5 -73.5t82.5 -173.5h-162q-10 56 -52 85.5
t-105 29.5q-49 0 -86 -18.5t-37 -55.5q0 -27 19.5 -43.5t50 -25t95.5 -22.5q86 -19 144 -42t95 -66t37 -113q0 -89 -68.5 -144.5t-191.5 -62.5v-117h-104v119q-108 16 -177 80z" />
    <glyph glyph-name="percent" unicode="%" horiz-adv-x="831" 
d="M113.5 373.5q-40.5 23.5 -64 64.5t-23.5 90t23.5 89.5t64 64t89.5 23.5t90 -23.5t64.5 -64t23.5 -89.5t-23.5 -90t-64.5 -64.5t-90 -23.5t-89.5 23.5zM583 700h120l-454 -700h-120zM255.5 475.5q21.5 21.5 21.5 52.5t-21.5 52t-52.5 21t-52 -21t-21 -52t21 -52.5
t52 -21.5t52.5 21.5zM538.5 18.5q-40.5 23.5 -64 64.5t-23.5 90t23.5 89.5t64 64t89.5 23.5t90 -23.5t64.5 -64t23.5 -89.5t-23.5 -90t-64.5 -64.5t-90 -23.5t-89.5 23.5zM680.5 120.5q21.5 21.5 21.5 52.5t-21.5 52t-52.5 21t-52 -21t-21 -52t21 -52.5t52 -21.5t52.5 21.5z
" />
    <glyph glyph-name="ampersand" unicode="&#x26;" horiz-adv-x="763" 
d="M154.5 12q-63.5 27 -98.5 76t-35 114q0 84 53 138.5t145 65.5l-137 160v134h545v-140h-355l254 -298q24 62 29 131h151q-6 -145 -78 -250l122 -143h-185l-41 47q-93 -62 -222 -62q-84 0 -147.5 27zM433 153l-126 149h-23q-50 0 -80.5 -23.5t-30.5 -62.5q0 -46 34.5 -74
t90.5 -28q82 0 135 39z" />
    <glyph glyph-name="quotesingle" unicode="'" horiz-adv-x="224" 
d="M31 703h163l-77 -244h-10z" />
    <glyph glyph-name="parenleft" unicode="(" horiz-adv-x="500" 
d="M241.5 -56.5q-68.5 58.5 -106 164t-37.5 242.5q0 138 37.5 243.5t106 163.5t157.5 58v-125q-50 0 -89 -42.5t-60.5 -120t-21.5 -177.5t21.5 -177.5t60.5 -120t89 -42.5v-125q-89 0 -157.5 58.5z" />
    <glyph glyph-name="parenright" unicode=")" horiz-adv-x="500" 
d="M258.5 756.5q68.5 -58.5 106 -164t37.5 -242.5q0 -138 -37.5 -243.5t-106 -163.5t-157.5 -58v125q50 0 89 42.5t60.5 120t21.5 177.5t-21.5 177.5t-60.5 120t-89 42.5v125q89 0 157.5 -58.5z" />
    <glyph glyph-name="asterisk" unicode="*" horiz-adv-x="390" 
d="M185 554l-77 -69l-69 20l19 69h119l-147 45v69l64 17l88 -105l-50 141l63 53l63 -53l-50 -141l88 105l64 -17v-69l-148 -45h119l19 -69l-68 -20l-78 69l9 -100h-37z" />
    <glyph glyph-name="plus" unicode="+" horiz-adv-x="560" 
d="M494 288h-151v-152h-125v152h-152v125h152v151h125v-151h151v-125z" />
    <glyph glyph-name="comma" unicode="," horiz-adv-x="304" 
d="M129 -5h-1q-36 10 -53.5 34t-17.5 55q0 38 26 67t68 29q40 0 68.5 -26t28.5 -73q0 -44 -24.5 -97.5t-57.5 -82.5h-77q28 43 40 94z" />
    <glyph glyph-name="hyphen" unicode="-" horiz-adv-x="414" 
d="M66 363h282v-125h-282v125z" />
    <glyph glyph-name="period" unicode="." horiz-adv-x="304" 
d="M84.5 17.5q-27.5 27.5 -27.5 67.5q0 41 27.5 68t67.5 27q41 0 68 -27t27 -68q0 -40 -27 -67.5t-68 -27.5q-40 0 -67.5 27.5z" />
    <glyph glyph-name="slash" unicode="/" horiz-adv-x="504" 
d="M353 700h136l-338 -700h-136z" />
    <glyph glyph-name="zero" unicode="0" horiz-adv-x="721" 
d="M197.5 31.5q-71.5 46.5 -111.5 129.5t-40 189t40 189t111.5 129.5t163.5 46.5t163.5 -46.5t111.5 -129.5t40 -189t-40 -189t-111.5 -129.5t-163.5 -46.5t-163.5 46.5zM476 185.5q43 61.5 43 164.5t-43 164.5t-115 61.5t-115 -61.5t-43 -164.5t43 -164.5t115 -61.5
t115 61.5z" />
    <glyph glyph-name="one" unicode="1" horiz-adv-x="463" 
d="M208 523l-170 -105v164l192 118h127v-700h-149v523z" />
    <glyph glyph-name="two" unicode="2" horiz-adv-x="649" 
d="M278 259q13 8 25 18q-13 -7 -36 -7q-70 5 -122 36t-79.5 79t-27.5 101q0 61 34.5 113.5t100 84t154.5 31.5q83 0 148.5 -30t103 -82.5t37.5 -119.5q0 -73 -45 -137.5t-122 -109.5l-163 -98h335v-138h-571v123zM426 402.5q38 29.5 38 76.5t-38.5 77t-99.5 30
q-60 0 -98 -30t-38 -77t38 -76.5t98 -29.5q62 0 100 29.5z" />
    <glyph glyph-name="three" unicode="3" horiz-adv-x="612" 
d="M153 15.5q-65 30.5 -102 85.5t-39 126h150q4 -50 42 -82t95 -32t94.5 32.5t37.5 83.5q0 49 -33 80.5t-85 31.5q-45 0 -79 -24l-13 -10l-72 91l204 167h-315v135h523v-129l-172 -140q4 2 13 2q53 -5 95 -33.5t65.5 -73.5t23.5 -99q0 -70 -36 -125t-100.5 -86t-147.5 -31
q-84 0 -149 30.5z" />
    <glyph glyph-name="four" unicode="4" horiz-adv-x="668" 
d="M385 146h-361v128l317 426h197v-426h121v-128h-121v-146h-153v146zM385 274v277l-209 -277h209z" />
    <glyph glyph-name="five" unicode="5" horiz-adv-x="654" 
d="M174 13.5q-63 28.5 -100 78.5t-41 112h154q7 -42 43.5 -67.5t88.5 -25.5q62 0 100 37.5t38 92.5q0 52 -36 86.5t-99 34.5q-45 0 -79.5 -18.5t-47.5 -51.5h-141l48 408h473v-135h-347l-16 -125q55 35 138 35q72 0 131.5 -27t95 -80t35.5 -127q0 -75 -37.5 -133
t-104.5 -90.5t-154 -32.5q-79 0 -142 28.5z" />
    <glyph glyph-name="six" unicode="6" horiz-adv-x="691" 
d="M192 34q-71 49 -106.5 131.5t-35.5 184.5q0 100 36 183t106.5 132.5t169.5 49.5q74 0 134 -27t98 -75.5t47 -109.5h-164q-11 34 -43 53.5t-76 19.5q-45 0 -82 -22.5t-59 -63.5t-22 -93v-8q34 36 83.5 55t106.5 19q72 0 133 -27.5t98 -80.5t37 -126q0 -64 -35 -120
t-100.5 -90t-153.5 -34q-101 0 -172 49zM458 146.5q39 32.5 39 82.5q0 52 -38 84.5t-98 32.5q-61 0 -100 -32t-39 -82q0 -30 17 -57t48.5 -44t72.5 -17q59 0 98 32.5z" />
    <glyph glyph-name="seven" unicode="7" horiz-adv-x="599" 
d="M261.5 295.5q72.5 151.5 169.5 263.5h-421v141h580v-128q-61 -65 -116 -161.5t-93.5 -204.5t-49.5 -206h-163q21 144 93.5 295.5z" />
    <glyph glyph-name="eight" unicode="8" horiz-adv-x="684" 
d="M184.5 11.5q-68.5 26.5 -106 74.5t-37.5 110q0 55 33 97.5t92 66.5q-52 23 -81 62.5t-29 90.5q0 59 36 105t100.5 71t149.5 25t149.5 -25t100.5 -71t36 -105q0 -51 -29.5 -90.5t-82.5 -62.5q60 -24 94 -66.5t34 -97.5q0 -62 -37.5 -110t-106 -74.5t-158.5 -26.5
q-89 0 -157.5 26.5zM439.5 438.5q37.5 25.5 37.5 66.5q0 40 -37.5 65.5t-97.5 25.5t-97.5 -25.5t-37.5 -65.5q0 -41 37.5 -66.5t97.5 -25.5t97.5 25.5zM446.5 132q40.5 28 40.5 71t-40.5 70t-104.5 27t-104.5 -27t-40.5 -70t40.5 -71t104.5 -28t104.5 28z" />
    <glyph glyph-name="nine" unicode="9" horiz-adv-x="691" 
d="M499 666q71 -49 106.5 -131.5t35.5 -184.5q0 -100 -36 -183t-106.5 -132.5t-169.5 -49.5q-74 0 -134 27t-98 75.5t-47 109.5h164q11 -34 43 -53.5t76 -19.5q45 0 82 22.5t59 63.5t22 93v8q-34 -36 -83.5 -55t-106.5 -19q-72 0 -133 27.5t-98 80.5t-37 126q0 64 35 120
t100.5 90t153.5 34q101 0 172 -49zM233 553.5q-39 -32.5 -39 -82.5q0 -52 38 -84.5t98 -32.5q61 0 100 32t39 82q0 30 -17 57t-48.5 44t-72.5 17q-59 0 -98 -32.5z" />
    <glyph glyph-name="colon" unicode=":" horiz-adv-x="304" 
d="M84.5 17.5q-27.5 27.5 -27.5 67.5q0 41 27.5 68t67.5 27q41 0 68 -27t27 -68q0 -40 -27 -67.5t-68 -27.5q-40 0 -67.5 27.5zM84.5 333.5q-27.5 27.5 -27.5 67.5q0 41 27.5 68t67.5 27q41 0 68 -27t27 -68q0 -40 -27 -67.5t-68 -27.5q-40 0 -67.5 27.5z" />
    <glyph glyph-name="semicolon" unicode=";" horiz-adv-x="305" 
d="M129 -5h-1q-36 10 -53.5 34t-17.5 55q0 38 26 67t68 29q40 0 68.5 -26t28.5 -73q0 -44 -24.5 -97.5t-57.5 -82.5h-77q28 43 40 94zM84.5 333.5q-27.5 27.5 -27.5 67.5q0 41 27.5 68t67.5 27q41 0 68 -27t27 -68q0 -40 -27 -67.5t-68 -27.5q-40 0 -67.5 27.5z" />
    <glyph glyph-name="less" unicode="&#x3c;" horiz-adv-x="560" 
d="M494 457l-224 -104l224 -103v-139l-428 198v82l428 197v-131z" />
    <glyph glyph-name="equal" unicode="=" horiz-adv-x="560" 
d="M66 531h428v-125h-428v125zM66 295h428v-125h-428v125z" />
    <glyph glyph-name="greater" unicode="&#x3e;" horiz-adv-x="560" 
d="M66 243l224 104l-224 103v139l428 -198v-82l-428 -197v131z" />
    <glyph glyph-name="question" unicode="?" horiz-adv-x="621" 
d="M228 279q0 55 30 89t86 57q39 17 59 38t20 49q0 33 -31.5 52t-78.5 19q-117 0 -134 -108h-154q11 111 89 175.5t203 64.5q78 0 138 -24t93.5 -69t33.5 -105q0 -58 -34 -97t-104 -73q-49 -25 -66.5 -43.5t-17.5 -53.5h-130q-2 10 -2 29zM232.5 17.5q-27.5 27.5 -27.5 67.5
q0 41 27.5 68t67.5 27q41 0 68 -27t27 -68q0 -40 -27 -67.5t-68 -27.5q-40 0 -67.5 27.5z" />
    <glyph glyph-name="at" unicode="@" horiz-adv-x="820" 
d="M225 -119q-84 48 -132 132t-48 185t48 185t132 132t185 48t185 -48t132 -132t48 -185q0 -109 -56 -198h-216v55q-25 -30 -67 -47t-89 -17q-65 0 -103 31t-38 83q0 62 50.5 95t155.5 39q44 2 62.5 9t18.5 21q0 24 -21 39t-56 15q-36 0 -60.5 -16t-31.5 -44h-106
q9 69 61.5 110t132.5 41q87 0 138.5 -45t51.5 -120v-155h88q20 49 20 104q0 83 -39.5 152t-108.5 108.5t-152 39.5t-151.5 -39.5t-108 -108.5t-39.5 -152t39.5 -151.5t108 -108t151.5 -39.5q63 0 112 17.5t90 52.5l44 -48q-99 -88 -246 -88q-101 0 -185 48zM437 93
q27 14 43.5 37.5t16.5 49.5v7q-18 -14 -77 -19q-51 -5 -73 -16t-22 -31t14.5 -31t40.5 -11q30 0 57 14z" />
    <glyph glyph-name="A" unicode="A" horiz-adv-x="773" 
d="M282 700h209l265 -700h-171l-52 147h-297l-52 -147h-167zM489 275l-102 287h-6l-102 -287h210z" />
    <glyph glyph-name="B" unicode="B" horiz-adv-x="736" 
d="M427 700q113 0 178 -51t65 -139q0 -96 -76 -146v-7q47 -25 72.5 -66.5t25.5 -94.5q0 -58 -30 -102.5t-85 -69t-127 -24.5h-352v700h329zM487.5 437.5q24.5 20.5 24.5 54.5t-24.5 54.5t-66.5 20.5h-168v-150h168q42 0 66.5 20.5zM507 154q25 21 25 56t-25.5 56t-67.5 21
h-186v-154h186q43 0 68 21z" />
    <glyph glyph-name="C" unicode="C" horiz-adv-x="792" 
d="M224.5 32q-82.5 47 -129 130.5t-46.5 188.5q0 104 46.5 187t128.5 130t186 47q92 0 167.5 -39t122 -107.5t53.5 -154.5h-162q-14 67 -63.5 107.5t-118.5 40.5q-57 0 -101.5 -27t-69.5 -75.5t-25 -109.5t25 -109.5t69.5 -75.5t101.5 -27q70 0 119 40.5t63 107.5h162
q-8 -87 -54.5 -155.5t-122 -107t-166.5 -38.5q-103 0 -185.5 47z" />
    <glyph glyph-name="D" unicode="D" horiz-adv-x="770" 
d="M332 700q116 0 204 -43.5t136.5 -123t48.5 -183.5t-48.5 -183.5t-136.5 -123t-204 -43.5h-234v700h234zM496.5 199.5q59.5 54.5 59.5 150.5t-59.5 150.5t-164.5 54.5h-74v-410h74q105 0 164.5 54.5z" />
    <glyph glyph-name="E" unicode="E" horiz-adv-x="658" 
d="M98 700h483v-140h-326v-143h222v-134h-222v-143h355v-140h-512v700z" />
    <glyph glyph-name="F" unicode="F" horiz-adv-x="616" 
d="M98 700h495v-149h-335v-142h239v-143h-239v-266h-160v700z" />
    <glyph glyph-name="G" unicode="G" horiz-adv-x="824" 
d="M218 32q-79 47 -124 130t-45 187q0 105 46.5 188.5t129 130.5t185.5 47q88 0 160 -34t118.5 -95.5t60.5 -140.5h-166q-17 57 -62 89.5t-108 32.5q-59 0 -104.5 -28t-71 -78.5t-25.5 -114.5q0 -65 26 -116.5t73 -80t107 -28.5q65 0 114 35t68 93h-185v126h339v-375h-134
v78q-40 -45 -97 -69t-128 -24q-98 0 -177 47z" />
    <glyph glyph-name="H" unicode="H" horiz-adv-x="820" 
d="M98 700h160v-274h304v274h160v-700h-160v274h-304v-274h-160v700z" />
    <glyph glyph-name="I" unicode="I" horiz-adv-x="356" 
d="M98 700h160v-700h-160v700z" />
    <glyph glyph-name="J" unicode="J" horiz-adv-x="666" 
d="M159.5 18.5q-63.5 33.5 -98.5 95t-35 141.5v71h157v-64q0 -56 33 -90.5t86 -34.5q52 0 83.5 34.5t31.5 90.5v438h160v-445q0 -81 -33.5 -142t-95 -94.5t-143.5 -33.5t-145.5 33.5z" />
    <glyph glyph-name="K" unicode="K" horiz-adv-x="759" 
d="M98 700h159v-274h105l188 274h176l-230 -337l247 -363h-194l-188 274h-104v-274h-159v700z" />
    <glyph glyph-name="L" unicode="L" horiz-adv-x="639" 
d="M98 700h160v-547h348v-153h-508v700z" />
    <glyph glyph-name="M" unicode="M" horiz-adv-x="1050" 
d="M98 700h267l162 -508l161 508h264v-700h-156v573l-180 -573h-183l-179 573v-573h-156v700z" />
    <glyph glyph-name="N" unicode="N" horiz-adv-x="840" 
d="M98 700h168l327 -470v470h149v-700h-168l-325 471v-471h-151v700z" />
    <glyph glyph-name="O" unicode="O" horiz-adv-x="832" 
d="M228.5 32.5q-83.5 47.5 -131.5 131t-48 186.5t48 186.5t131.5 131t187.5 47.5t187.5 -47.5t131.5 -131t48 -186.5t-48 -186.5t-131.5 -131t-187.5 -47.5t-187.5 47.5zM520.5 165.5q46.5 27.5 73 76t26.5 108.5t-26.5 108.5t-73 76t-104.5 27.5t-104.5 -27.5t-73 -76
t-26.5 -108.5t26.5 -108.5t73 -76t104.5 -27.5t104.5 27.5z" />
    <glyph glyph-name="P" unicode="P" horiz-adv-x="693" 
d="M377 700q129 0 203 -61t74 -167t-74 -167t-203 -61h-121v-244h-158v700h279zM463 397q31 26 31 70t-31 70t-84 26h-123v-192h123q53 0 84 26z" />
    <glyph glyph-name="Q" unicode="Q" horiz-adv-x="832" 
d="M187 60q-65 50 -101.5 125.5t-36.5 164.5q0 103 48 186.5t131.5 131t187.5 47.5t187.5 -47.5t131.5 -131t48 -186.5q0 -89 -36.5 -164.5t-101.5 -125.5t-149 -67v-193h-160v193q-84 17 -149 67zM520.5 165.5q46.5 27.5 73 76t26.5 108.5t-26.5 108.5t-73 76t-104.5 27.5
t-104.5 -27.5t-73 -76t-26.5 -108.5t26.5 -108.5t73 -76t104.5 -27.5t104.5 27.5z" />
    <glyph glyph-name="R" unicode="R" horiz-adv-x="733" 
d="M391 700q128 0 202.5 -60.5t74.5 -166.5q0 -73 -37.5 -125.5t-105.5 -78.5l188 -269h-184l-173 247h-100v-247h-158v700h293zM477.5 401.5q30.5 25.5 30.5 67.5t-30.5 67t-82.5 25h-139v-185h139q52 0 82.5 25.5z" />
    <glyph glyph-name="S" unicode="S" horiz-adv-x="706" 
d="M132.5 50.5q-90.5 65.5 -101.5 191.5h159q11 -59 56 -91.5t115 -32.5q63 0 100.5 18.5t37.5 54.5q0 28 -17.5 43.5t-49 25t-99.5 23.5q-87 18 -145.5 39.5t-99 65.5t-40.5 116q0 71 41.5 118.5t109 70t146.5 22.5q82 0 151.5 -26.5t115.5 -82.5t55 -141h-167
q-10 56 -53 85.5t-107 29.5q-51 0 -88.5 -18.5t-37.5 -55.5q0 -27 20 -43.5t51 -25t98 -22.5q88 -19 147.5 -42t97.5 -66t38 -113q0 -64 -36 -111t-104.5 -72.5t-164.5 -25.5q-138 0 -228.5 65.5z" />
    <glyph glyph-name="T" unicode="T" horiz-adv-x="717" 
d="M279 547h-252v153h663v-153h-251v-547h-160v547z" />
    <glyph glyph-name="U" unicode="U" horiz-adv-x="817" 
d="M238.5 25q-73.5 40 -113.5 112.5t-40 169.5v393h160v-387q0 -83 43 -129.5t121 -46.5t120.5 46.5t42.5 129.5v387h160v-393q0 -97 -40 -169.5t-113 -112.5t-170 -40t-170.5 40z" />
    <glyph glyph-name="V" unicode="V" horiz-adv-x="793" 
d="M22 700h172l203 -560h4l201 560h170l-270 -700h-211z" />
    <glyph glyph-name="W" unicode="W" horiz-adv-x="1060" 
d="M33 700h165l125 -520l128 520h162l127 -519l125 519h162l-171 -700h-206l-121 491l-120 -491h-205z" />
    <glyph glyph-name="X" unicode="X" horiz-adv-x="751" 
d="M265 358l-240 342h188l165 -235l165 235h183l-242 -340l253 -360h-190l-173 247l-176 -247h-183z" />
    <glyph glyph-name="Y" unicode="Y" horiz-adv-x="751" 
d="M296 245l-291 455h188l188 -301l184 301h181l-290 -455v-245h-160v245z" />
    <glyph glyph-name="Z" unicode="Z" horiz-adv-x="693" 
d="M50 132l377 421h-363v147h571v-132l-377 -421h381v-147h-589v132z" />
    <glyph glyph-name="bracketleft" unicode="[" horiz-adv-x="500" 
d="M132 800h286v-125h-161v-650h161v-125h-286v900z" />
    <glyph glyph-name="backslash" unicode="\" horiz-adv-x="504" 
d="M15 700h136l338 -700h-136z" />
    <glyph glyph-name="bracketright" unicode="]" horiz-adv-x="500" 
d="M368 -100h-286v125h161v650h-161v125h286v-900z" />
    <glyph glyph-name="asciicircum" unicode="^" horiz-adv-x="560" 
d="M232 700h96l191 -332h-138l-101 177l-102 -177h-137z" />
    <glyph glyph-name="underscore" unicode="_" horiz-adv-x="482" 
d="M30 0h422v-125h-422v125z" />
    <glyph glyph-name="a" unicode="a" horiz-adv-x="605" 
d="M79 27q-46 38 -46 103q0 148 252 163q52 4 74 14t22 30q0 27 -26 44.5t-66 17.5q-41 0 -68.5 -19t-35.5 -54h-130q12 84 77 134t163 50q100 0 159.5 -55.5t59.5 -148.5v-184h58v-122l-174 -1v63q-32 -34 -83.5 -53.5t-109.5 -19.5q-80 0 -126 38zM311.5 114
q34.5 18 55 48t20.5 64v6q-9 -7 -35.5 -14t-59.5 -10q-63 -5 -90.5 -20.5t-27.5 -43.5q0 -23 16.5 -35.5t47.5 -12.5q39 0 73.5 18z" />
    <glyph glyph-name="b" unicode="b" horiz-adv-x="654" 
d="M280 7.5q-40 17.5 -71 49.5v-57h-127v710h139v-257q29 27 66.5 42t79.5 15q71 0 128 -34t89.5 -93t32.5 -133t-32.5 -133t-89.5 -93t-128 -34q-47 0 -87 17.5zM438 156q37 38 37 94t-37 94t-92 38t-91.5 -38t-36.5 -94t36.5 -94t91.5 -38t92 38z" />
    <glyph glyph-name="c" unicode="c" horiz-adv-x="598" 
d="M169.5 24q-61.5 34 -96.5 93t-35 133q0 73 35.5 132.5t97 93.5t137.5 34q68 0 123.5 -27.5t90 -75.5t40.5 -108h-138q-11 38 -42 61.5t-74 23.5q-57 0 -94 -38.5t-37 -95.5t37 -95.5t94 -38.5q43 0 74.5 24t41.5 62h138q-7 -60 -41.5 -108.5t-90 -76t-122.5 -27.5
q-77 0 -138.5 34z" />
    <glyph glyph-name="d" unicode="d" horiz-adv-x="655" 
d="M159.5 24q-56.5 34 -89 93t-32.5 133t32.5 133t89 93t127.5 34q43 0 80.5 -15t66.5 -42v257h139v-710h-128v57q-30 -32 -70.5 -49.5t-87.5 -17.5q-71 0 -127.5 34zM400 156q37 38 37 94t-37 94t-91 38q-55 0 -92 -38t-37 -94t37 -94t92 -38q54 0 91 38z" />
    <glyph glyph-name="e" unicode="e" horiz-adv-x="608" 
d="M169 22.5q-62 32.5 -96.5 90.5t-34.5 133t36.5 135.5t99 94.5t137.5 34q74 0 134.5 -33t95 -92t34.5 -133q0 -21 -3 -42h-399q9 -46 47 -76.5t94 -30.5q35 0 63.5 13t42.5 35h139q-9 -43 -42 -79.5t-86.5 -59t-119.5 -22.5q-80 0 -142 32.5zM391.5 370.5
q-34.5 25.5 -83.5 25.5q-47 0 -83.5 -26t-48.5 -69h262q-12 44 -46.5 69.5z" />
    <glyph glyph-name="f" unicode="f" horiz-adv-x="482" 
d="M36 374v126h93v50q0 56 26.5 99t74 67t110.5 24q92 0 150.5 -48.5t58.5 -134.5h-131v8q-1 26 -23 42t-55 16q-36 0 -58.5 -18t-22.5 -54q0 -13 4 -51h212v-126h-207v-374h-139v374h-93z" />
    <glyph glyph-name="g" unicode="g" horiz-adv-x="660" 
d="M130.5 -169q-76.5 41 -76.5 115q0 36 20.5 63.5t58.5 44.5q-61 15 -94 49.5t-33 83.5q0 29 22 56.5t63 32.5l10 1q-18 27 -18 64q0 68 52.5 110.5t149.5 53.5v125h143v-124q100 -11 155 -54t55 -111q0 -77 -74.5 -120t-203.5 -43q-53 0 -85 6.5t-64 17.5q-12 4 -23.5 7.5
t-22.5 3.5q-14 0 -22 -7.5t-8 -18.5q0 -35 52 -47t171 -14q136 -2 211 -43.5t75 -123.5q0 -52 -36 -90t-103.5 -58.5t-158.5 -20.5q-139 0 -215.5 41zM458.5 292.5q35.5 18.5 35.5 50.5t-35.5 50.5t-98.5 18.5q-64 0 -99.5 -18.5t-35.5 -50.5t35.5 -50.5t99.5 -18.5
q63 0 98.5 18.5zM461 -85q39 16 39 47q0 32 -39 49t-113 17t-112.5 -17t-38.5 -49q0 -31 38.5 -47t112.5 -16t113 16z" />
    <glyph glyph-name="h" unicode="h" horiz-adv-x="660" 
d="M221 710v-256q59 56 149 56q64 0 113.5 -28t77 -79.5t27.5 -119.5v-283h-140v261q-1 56 -29.5 88t-77.5 32q-52 0 -86 -34t-34 -86v-261h-139v710h139z" />
    <glyph glyph-name="i" unicode="i" horiz-adv-x="303" 
d="M82 500h139v-500h-139v500zM57 745h190l-90 -188h-10z" />
    <glyph glyph-name="j" unicode="j" horiz-adv-x="303" 
d="M-82.5 -190q-44.5 20 -69 55t-24.5 78h134v-1q0 -20 16.5 -31t45.5 -11q78 0 78 90q0 15 -3 34q-5 48 -5 72v404h139v-489q0 -109 -54 -165t-155 -56q-58 0 -102.5 20zM65 745h190l-90 -188h-10z" />
    <glyph glyph-name="k" unicode="k" horiz-adv-x="600" 
d="M82 710h139v-395h65l137 185h154l-179 -241l189 -259h-166l-137 186h-63v-186h-139v710z" />
    <glyph glyph-name="l" unicode="l" horiz-adv-x="303" 
d="M82 710h139v-710h-139v710z" />
    <glyph glyph-name="m" unicode="m" horiz-adv-x="988" 
d="M209 500v-58q28 33 67 50.5t84 17.5q53 0 95.5 -20.5t69.5 -58.5q30 37 74 58t95 21q66 0 116.5 -27.5t78 -77.5t27.5 -116v-289h-140v267q0 52 -28 83.5t-73 31.5q-46 0 -76.5 -34.5t-30.5 -86.5v-261h-139v267q-1 52 -28.5 83.5t-73.5 31.5q-45 0 -75.5 -34.5
t-30.5 -86.5v-261h-139v500h127z" />
    <glyph glyph-name="n" unicode="n" horiz-adv-x="660" 
d="M209 500v-57q30 32 71 49.5t90 17.5q64 0 113.5 -28t77 -79.5t27.5 -119.5v-283h-140v261q-1 56 -29.5 88t-77.5 32q-52 0 -86 -34t-34 -86v-261h-139v500h127z" />
    <glyph glyph-name="o" unicode="o" horiz-adv-x="623" 
d="M172 24q-63 34 -98.5 93.5t-35.5 132.5t35.5 132.5t98.5 93.5t140 34t140 -34t98.5 -93.5t35.5 -132.5t-36 -132.5t-98.5 -93.5t-139.5 -34t-140 34zM406.5 155q37.5 37 37.5 95t-37.5 95t-94.5 37q-58 0 -95 -37t-37 -95t37.5 -95t94.5 -37t94.5 37z" />
    <glyph glyph-name="p" unicode="p" horiz-adv-x="654" 
d="M209 500v-57q31 32 71 49.5t87 17.5q71 0 128 -34t89.5 -93t32.5 -133t-32.5 -133t-89.5 -93t-128 -34q-42 0 -79.5 15t-66.5 42v-247h-139v700h127zM438 156q37 38 37 94t-37 94t-92 38t-91.5 -38t-36.5 -94t36.5 -94t91.5 -38t92 38z" />
    <glyph glyph-name="q" unicode="q" horiz-adv-x="655" 
d="M434 47q-29 -27 -66.5 -42t-80.5 -15q-71 0 -127.5 34t-89 93t-32.5 133t32.5 133t89 93t127.5 34q47 0 87.5 -17.5t70.5 -49.5v57h128v-700h-139v247zM400 156q37 38 37 94t-37 94t-91 38q-55 0 -92 -38t-37 -94t37 -94t92 -38q54 0 91 38z" />
    <glyph glyph-name="r" unicode="r" horiz-adv-x="539" 
d="M209 500v-57q27 32 65.5 49.5t82.5 17.5q82 0 134 -51t52 -139v-34h-139v20q0 36 -22 55t-59 19q-43 0 -72.5 -32t-29.5 -78v-270h-139v500h127z" />
    <glyph glyph-name="s" unicode="s" horiz-adv-x="563" 
d="M108.5 33q-73.5 47 -84.5 139h142q8 -36 41 -57t83 -21q37 0 66 11.5t29 37.5q0 20 -20 28.5t-76 18.5l-29 6q-69 14 -113.5 30t-73 47.5t-29.5 82.5q0 55 33.5 90.5t87 51.5t112.5 16q99 0 169 -44t81 -137h-142q-10 34 -43 51.5t-77 17.5q-32 0 -57.5 -10.5
t-25.5 -34.5q0 -22 22.5 -31t81.5 -21q8 -1 26 -5q69 -14 114.5 -30t73.5 -45.5t28 -77.5q0 -77 -68.5 -119t-170.5 -42q-107 0 -180.5 47z" />
    <glyph glyph-name="t" unicode="t" horiz-adv-x="487" 
d="M129 157v217h-113v126h62q30 0 46 16t16 47v57h128v-120h180v-126h-180v-190q0 -36 17 -51t57 -15q53 0 106 10v-125q-71 -13 -127 -13q-192 0 -192 167z" />
    <glyph glyph-name="u" unicode="u" horiz-adv-x="660" 
d="M176.5 18q-49.5 28 -77 79.5t-27.5 119.5v283h140l1 -261q0 -55 28.5 -87.5t77.5 -32.5q52 0 86 34t34 86v261h139v-500h-127v57q-30 -32 -71 -49.5t-90 -17.5q-64 0 -113.5 28z" />
    <glyph glyph-name="v" unicode="v" horiz-adv-x="596" 
d="M7 500h153l136 -378h8l136 378h150l-197 -500h-190z" />
    <glyph glyph-name="w" unicode="w" horiz-adv-x="824" 
d="M21 500h138l90 -355l93 355h144l92 -352l88 352h137l-127 -500h-172l-92 348l-92 -348h-172z" />
    <glyph glyph-name="x" unicode="x" horiz-adv-x="583" 
d="M200 254l-189 246h164l118 -153l120 153h159l-191 -242l199 -258h-163l-128 167l-129 -167h-157z" />
    <glyph glyph-name="y" unicode="y" horiz-adv-x="600" 
d="M115.5 -189q-43.5 21 -70.5 65.5t-27 111.5v26h129v-37q0 -32 18.5 -51t45.5 -19q26 0 42 16.5t16 42.5v6q0 18 -2 30t-9 24l-250 474h157l151 -307q2 -4 4 -9.5t3 -10.5q1 4 5 17l121 310h144l-180 -432q-7 -17 -9.5 -30t-2.5 -34v-34q0 -56 -25.5 -96.5t-69 -62
t-96.5 -21.5q-51 0 -94.5 21z" />
    <glyph glyph-name="z" unicode="z" horiz-adv-x="545" 
d="M44 108l272 266h-260v126h442v-107l-271 -267h272v-126h-455v108z" />
    <glyph glyph-name="braceleft" unicode="{" horiz-adv-x="500" 
d="M190 -80q-43 35 -43 114q0 21 4.5 51t10.5 58q1 5 6.5 35t5.5 50q0 60 -52 60h-46v125h46q52 0 52 60q0 19 -5.5 48.5t-6.5 35.5q-6 28 -10.5 57.5t-4.5 51.5q0 79 43 114t114 35q55 0 112 -15v-126q-42 15 -76 15q-29 0 -45.5 -14.5t-16.5 -44.5q0 -14 8 -64
q11 -66 11 -94q0 -52 -17 -81t-54 -41q37 -12 54 -41t17 -80q0 -28 -11 -96q-8 -48 -8 -63q0 -30 16.5 -44.5t45.5 -14.5q34 0 76 15v-126q-57 -15 -112 -15q-71 0 -114 35z" />
    <glyph glyph-name="bar" unicode="|" horiz-adv-x="389" 
d="M132 800h125v-900h-125v900z" />
    <glyph glyph-name="braceright" unicode="}" horiz-adv-x="500" 
d="M310 780q43 -35 43 -114q0 -21 -4.5 -51t-10.5 -58q-1 -5 -6.5 -35t-5.5 -50q0 -60 52 -60h46v-125h-46q-52 0 -52 -60q0 -19 5.5 -48.5t6.5 -35.5q6 -28 10.5 -57.5t4.5 -51.5q0 -79 -43 -114t-114 -35q-55 0 -112 15v126q42 -15 76 -15q29 0 45.5 14.5t16.5 44.5
q0 14 -8 64q-11 66 -11 94q0 52 17 81t54 41q-37 12 -54 41t-17 80q0 28 11 96q8 48 8 63q0 30 -16.5 44.5t-45.5 14.5q-34 0 -76 -15v126q57 15 112 15q71 0 114 -35z" />
    <glyph glyph-name="asciitilde" unicode="~" horiz-adv-x="560" 
d="M96 398.5q33 42.5 88 42.5q29 0 50.5 -8t46.5 -23q34 -19 55 -19q17 0 27 11t10 29h125q0 -82 -32.5 -124t-87.5 -42q-29 0 -51 8t-46 22q-19 10 -30.5 14.5t-24.5 4.5q-17 0 -27.5 -11t-10.5 -29h-125q0 82 33 124.5z" />
    <glyph glyph-name="uni00A0" unicode="&#xa0;" horiz-adv-x="250" 
 />
    <glyph glyph-name="exclamdown" unicode="&#xa1;" horiz-adv-x="344" 
d="M240 483q27 -27 27 -68q0 -40 -27 -67.5t-68 -27.5q-40 0 -67.5 27.5t-27.5 67.5q0 41 27.5 68t67.5 27q41 0 68 -27zM262 -200h-174l29 450h117z" />
    <glyph glyph-name="cent" unicode="&#xa2;" 
d="M422.5 242q31.5 24 42.5 62h137q-9 -79 -65 -136t-139 -72v-126h-104v127q-63 11 -112.5 46.5t-76.5 89.5t-27 119q0 64 27.5 118t76.5 90t112 47v123h104v-122q85 -15 140.5 -71.5t63.5 -135.5h-137q-11 38 -42.5 61.5t-74.5 23.5q-57 0 -94 -38.5t-37 -95.5t37 -95.5
t94 -38.5q43 0 74.5 24z" />
    <glyph glyph-name="sterling" unicode="&#xa3;" 
d="M45 18.5q-39 33.5 -39 91.5q0 54 35 90t97 36q35 0 71 -14q-9 28 -21.5 52t-15.5 31h-122v90h79q-18 49 -18 99q0 66 32 116.5t89 78t131 27.5q78 0 137.5 -30.5t93 -85t37.5 -124.5h-149q-6 55 -39.5 85t-80.5 30q-48 0 -77.5 -30t-29.5 -82q0 -38 18 -84h235v-90h-201
q26 -64 26 -115q0 -17 -1 -25q47 -25 78 -38t60 -13q71 0 71 88q0 20 -3 41h132q5 -29 5 -62q0 -104 -55.5 -150t-130.5 -46q-52 0 -102 19t-101 51q-27 -34 -65.5 -52t-79.5 -18q-57 0 -96 33.5zM178.5 85q16.5 9 27.5 26q-47 31 -64 31q-15 0 -24 -9t-9 -23
q0 -16 10.5 -25t27.5 -9q15 0 31.5 9z" />
    <glyph glyph-name="currency" unicode="&#xa4;" 
d="M124 222q-33 58 -33 128t33 128l-93 93l98 98l93 -93q60 34 128 34t128 -34l93 93l98 -98l-93 -93q34 -60 34 -128t-34 -128l93 -93l-98 -98l-93 93q-58 -33 -128 -33t-128 33l-93 -93l-98 98zM436 265q35 35 35 85q0 51 -35 86t-86 35q-50 0 -85 -35t-35 -86
q0 -50 35 -85t85 -35q51 0 86 35z" />
    <glyph glyph-name="yen" unicode="&#xa5;" 
d="M270 152h-227v90h222v16l-24 42h-198v90h146l-179 310h187l155 -280l155 280h183l-179 -310h152v-90h-204l-24 -42v-16h228v-90h-233v-152h-160v152z" />
    <glyph glyph-name="brokenbar" unicode="&#xa6;" horiz-adv-x="389" 
d="M132 800h125v-380h-125v380zM132 280h125v-380h-125v380z" />
    <glyph glyph-name="section" unicode="&#xa7;" 
d="M172 -48q-76 52 -86 154h146q5 -40 39.5 -64t83.5 -24q39 0 69.5 13t30.5 41q0 21 -13 33t-36.5 18.5t-72.5 14.5q-89 16 -141.5 32.5t-87 49.5t-35.5 89q0 44 28.5 75t75.5 48q-67 38 -70 115q0 59 35 98t89.5 56.5t115.5 17.5q103 0 175 -49t83 -152h-145
q-9 40 -41 60.5t-76 20.5q-37 0 -65 -13t-28 -44q0 -28 29 -40t97 -24q89 -15 143 -31.5t88 -48.5t34 -85q0 -44 -28 -76t-75 -52q33 -18 50.5 -45t17.5 -68q0 -54 -33 -93t-89.5 -59t-124.5 -20q-107 0 -183 52zM459.5 257.5q30.5 16.5 30.5 45.5q0 24 -19.5 37t-51 20
t-92.5 15l-20 3q-37 -1 -66 -16.5t-29 -45.5q0 -35 46 -50.5t135 -25.5q36 1 66.5 17.5z" />
    <glyph glyph-name="copyright" unicode="&#xa9;" horiz-adv-x="820" 
d="M225 33q-84 48 -132 132t-48 185t48 185t132 132t185 48t185 -48t132 -132t48 -185t-48 -185t-132 -132t-185 -48t-185 48zM562 90.5q69 39.5 108.5 108t39.5 151.5t-39.5 152t-108.5 108.5t-152 39.5t-151.5 -39.5t-108 -108.5t-39.5 -152t39.5 -151.5t108 -108
t151.5 -39.5t152 39.5zM304 169q-49 27 -77 74.5t-28 106.5t28 106.5t77 74.5t111 27q54 0 98.5 -22t72 -60.5t33.5 -86.5h-112q-8 31 -32.5 49t-59.5 18q-45 0 -74 -30t-29 -76t29 -76t74 -30q34 0 59 18.5t33 48.5h112q-6 -48 -33.5 -86.5t-72 -60.5t-98.5 -22
q-62 0 -111 27z" />
    <glyph glyph-name="guillemotleft" unicode="&#xab;" horiz-adv-x="630" 
d="M215 300l109 -200h-152l-106 194v12l106 194h152zM473 300l109 -200h-152l-106 194v12l106 194h152z" />
    <glyph glyph-name="logicalnot" unicode="&#xac;" horiz-adv-x="560" 
d="M494 413v-277h-125v152h-303v125h428z" />
    <glyph glyph-name="registered" unicode="&#xae;" horiz-adv-x="440" 
d="M131.5 378.5q-41.5 23.5 -65 65t-23.5 91.5t23.5 91.5t65 65t91.5 23.5t91.5 -23.5t65 -65t23.5 -91.5t-23.5 -91.5t-65 -65t-91.5 -23.5t-91.5 23.5zM305 395q37 21 58 58t21 82t-21 82t-58 58t-82 21t-82 -21t-58 -58t-21 -82t21 -82t58 -58t82 -21t82 21zM228 642
q38 0 59.5 -17.5t21.5 -48.5q0 -20 -9.5 -36t-27.5 -23l55 -79h-59l-49 70h-30v-70h-49v204h88zM251 555.5q8 6.5 8 18.5q0 10 -8.5 16.5t-21.5 6.5h-40v-48h40q14 0 22 6.5z" />
    <glyph glyph-name="degree" unicode="&#xb0;" horiz-adv-x="359" 
d="M105 438.5q-34 19.5 -53.5 53.5t-19.5 75t19.5 75t53.5 53.5t75 19.5t75 -19.5t53.5 -53.5t19.5 -75t-19.5 -75t-53.5 -53.5t-75 -19.5t-75 19.5zM218 529.5q15 15.5 15 37.5q0 23 -15 38t-38 15q-22 0 -37.5 -15t-15.5 -38q0 -22 15.5 -37.5t37.5 -15.5q23 0 38 15.5z
" />
    <glyph glyph-name="plusminus" unicode="&#xb1;" horiz-adv-x="560" 
d="M343 498h151v-125h-151v-152h-125v152h-152v125h152v151h125v-151zM66 33v125h428v-125h-428z" />
    <glyph glyph-name="paragraph" unicode="&#xb6;" horiz-adv-x="575" 
d="M281 300q-62 0 -112.5 26.5t-79.5 72t-29 101.5t29 101.5t79.5 72t112.5 26.5h162v-900h-153v500h-9z" />
    <glyph glyph-name="periodcentered" unicode="&#xb7;" horiz-adv-x="304" 
d="M84.5 234.5q-27.5 27.5 -27.5 67.5q0 41 27.5 68t67.5 27q41 0 68 -27t27 -68q0 -40 -27 -67.5t-68 -27.5q-40 0 -67.5 27.5z" />
    <glyph glyph-name="guillemotright" unicode="&#xbb;" horiz-adv-x="612" 
d="M157 300l-109 200h152l106 -194v-12l-106 -194h-152zM415 300l-109 200h152l106 -194v-12l-106 -194h-152z" />
    <glyph glyph-name="questiondown" unicode="&#xbf;" horiz-adv-x="621" 
d="M388.5 482.5q27.5 -27.5 27.5 -67.5t-27.5 -67.5t-67.5 -27.5t-67.5 27.5t-27.5 67.5q0 41 27.5 68t67.5 27t67.5 -27.5zM393 221q0 -55 -30 -89t-87 -57q-38 -17 -58 -37.5t-20 -47.5q0 -34 31 -53.5t79 -19.5q115 0 134 108h154q-11 -111 -89.5 -175.5t-203.5 -64.5
q-77 0 -137 24t-93.5 69t-33.5 105q0 58 34 97t104 73q49 24 66 43t17 54h130q3 -10 3 -29z" />
    <glyph glyph-name="Agrave" unicode="&#xc0;" horiz-adv-x="773" 
d="M282 700h209l265 -700h-171l-52 147h-297l-52 -147h-167zM489 275l-102 287h-6l-102 -287h210zM311 785l-67 160h135l66 -160h-134z" />
    <glyph glyph-name="Aacute" unicode="&#xc1;" horiz-adv-x="773" 
d="M282 700h209l265 -700h-171l-52 147h-297l-52 -147h-167zM489 275l-102 287h-6l-102 -287h210zM395 945h136l-67 -160h-135z" />
    <glyph glyph-name="Acircumflex" unicode="&#xc2;" horiz-adv-x="773" 
d="M282 700h209l265 -700h-171l-52 147h-297l-52 -147h-167zM489 275l-102 287h-6l-102 -287h210zM443 785l-56 81l-56 -81h-131l114 160h146l114 -160h-131z" />
    <glyph glyph-name="Atilde" unicode="&#xc3;" horiz-adv-x="773" 
d="M282 700h209l265 -700h-171l-52 147h-297l-52 -147h-167zM489 275l-102 287h-6l-102 -287h210zM219 902q30 36 83 36q25 0 45.5 -7t44.5 -19q14 -7 27 -12t23 -5q15 0 24 10.5t9 30.5h110q0 -76 -30 -112t-83 -36q-25 0 -46 7t-44 20q-14 7 -27 12t-23 5q-15 0 -24 -10.5
t-9 -30.5h-110q0 75 30 111z" />
    <glyph glyph-name="Adieresis" unicode="&#xc4;" horiz-adv-x="773" 
d="M282 700h209l265 -700h-171l-52 147h-297l-52 -147h-167zM489 275l-102 287h-6l-102 -287h210zM555 945l-80 -188h-10l-78 183l-79 -183h-9l-80 188h336z" />
    <glyph glyph-name="Aring" unicode="&#xc5;" horiz-adv-x="773" 
d="M282 700h209l265 -700h-171l-52 147h-297l-52 -147h-167zM489 275l-102 287h-6l-102 -287h210zM317.5 772.5q-31.5 18.5 -50 50t-18.5 68.5t18.5 69t50 50.5t68.5 18.5q38 0 70 -18.5t50.5 -50.5t18.5 -69t-18.5 -68.5t-50.5 -50t-70 -18.5q-37 0 -68.5 18.5zM419 860
q13 13 13 32q0 18 -13 31t-32 13t-32 -13t-13 -31q0 -19 13 -32t32 -13t32 13z" />
    <glyph glyph-name="AE" unicode="&#xc6;" horiz-adv-x="1063" 
d="M700 139h315v-139h-431l-54 147h-294l-53 -147h-166l265 700h704v-139h-431l50 -147h287v-128h-242zM275 275h216l-104 287h-8z" />
    <glyph glyph-name="Ccedilla" unicode="&#xc7;" horiz-adv-x="792" 
d="M224.5 32q-82.5 47 -129 130.5t-46.5 188.5q0 104 46.5 187t128.5 130t186 47q92 0 167.5 -39t122 -107.5t53.5 -154.5h-162q-14 67 -63.5 107.5t-118.5 40.5q-57 0 -101.5 -27t-69.5 -75.5t-25 -109.5t25 -109.5t69.5 -75.5t101.5 -27q70 0 119 40.5t63 107.5h162
q-8 -87 -54.5 -155.5t-122 -107t-166.5 -38.5q-103 0 -185.5 47zM412 -245h-136l67 160h135z" />
    <glyph glyph-name="Egrave" unicode="&#xc8;" horiz-adv-x="658" 
d="M98 700h483v-140h-326v-143h222v-134h-222v-143h355v-140h-512v700zM261 785l-67 160h135l66 -160h-134z" />
    <glyph glyph-name="Eacute" unicode="&#xc9;" horiz-adv-x="658" 
d="M98 700h483v-140h-326v-143h222v-134h-222v-143h355v-140h-512v700zM345 945h136l-67 -160h-135z" />
    <glyph glyph-name="Ecircumflex" unicode="&#xca;" horiz-adv-x="658" 
d="M98 700h483v-140h-326v-143h222v-134h-222v-143h355v-140h-512v700zM393 785l-56 81l-56 -81h-131l114 160h146l114 -160h-131z" />
    <glyph glyph-name="Edieresis" unicode="&#xcb;" horiz-adv-x="658" 
d="M98 700h483v-140h-326v-143h222v-134h-222v-143h355v-140h-512v700zM505 945l-80 -188h-10l-78 183l-79 -183h-9l-80 188h336z" />
    <glyph glyph-name="Igrave" unicode="&#xcc;" horiz-adv-x="356" 
d="M98 700h160v-700h-160v700zM102 785l-67 160h135l66 -160h-134z" />
    <glyph glyph-name="Iacute" unicode="&#xcd;" horiz-adv-x="356" 
d="M98 700h160v-700h-160v700zM186 945h136l-67 -160h-135z" />
    <glyph glyph-name="Icircumflex" unicode="&#xce;" horiz-adv-x="356" 
d="M98 700h160v-700h-160v700zM234 785l-56 81l-56 -81h-131l114 160h146l114 -160h-131z" />
    <glyph glyph-name="Idieresis" unicode="&#xcf;" horiz-adv-x="356" 
d="M98 700h160v-700h-160v700zM346 945l-80 -188h-10l-78 183l-79 -183h-9l-80 188h336z" />
    <glyph glyph-name="Eth" unicode="&#xd0;" horiz-adv-x="770" 
d="M536 656.5q88 -43.5 136.5 -123t48.5 -183.5t-48.5 -183.5t-136.5 -123t-204 -43.5h-234v300h-62v100h62v300h234q116 0 204 -43.5zM496.5 199.5q59.5 54.5 59.5 150.5t-59.5 150.5t-164.5 54.5h-74v-155h126v-100h-126v-155h74q105 0 164.5 54.5z" />
    <glyph glyph-name="Ntilde" unicode="&#xd1;" horiz-adv-x="840" 
d="M98 700h168l327 -470v470h149v-700h-168l-325 471v-471h-151v700zM252 902q30 36 83 36q25 0 45.5 -7t44.5 -19q14 -7 27 -12t23 -5q15 0 24 10.5t9 30.5h110q0 -76 -30 -112t-83 -36q-25 0 -46 7t-44 20q-14 7 -27 12t-23 5q-15 0 -24 -10.5t-9 -30.5h-110q0 75 30 111z
" />
    <glyph glyph-name="Ograve" unicode="&#xd2;" horiz-adv-x="832" 
d="M228.5 32.5q-83.5 47.5 -131.5 131t-48 186.5t48 186.5t131.5 131t187.5 47.5t187.5 -47.5t131.5 -131t48 -186.5t-48 -186.5t-131.5 -131t-187.5 -47.5t-187.5 47.5zM520.5 165.5q46.5 27.5 73 76t26.5 108.5t-26.5 108.5t-73 76t-104.5 27.5t-104.5 -27.5t-73 -76
t-26.5 -108.5t26.5 -108.5t73 -76t104.5 -27.5t104.5 27.5zM340 785l-67 160h135l66 -160h-134z" />
    <glyph glyph-name="Oacute" unicode="&#xd3;" horiz-adv-x="832" 
d="M228.5 32.5q-83.5 47.5 -131.5 131t-48 186.5t48 186.5t131.5 131t187.5 47.5t187.5 -47.5t131.5 -131t48 -186.5t-48 -186.5t-131.5 -131t-187.5 -47.5t-187.5 47.5zM520.5 165.5q46.5 27.5 73 76t26.5 108.5t-26.5 108.5t-73 76t-104.5 27.5t-104.5 -27.5t-73 -76
t-26.5 -108.5t26.5 -108.5t73 -76t104.5 -27.5t104.5 27.5zM424 945h136l-67 -160h-135z" />
    <glyph glyph-name="Ocircumflex" unicode="&#xd4;" horiz-adv-x="832" 
d="M228.5 32.5q-83.5 47.5 -131.5 131t-48 186.5t48 186.5t131.5 131t187.5 47.5t187.5 -47.5t131.5 -131t48 -186.5t-48 -186.5t-131.5 -131t-187.5 -47.5t-187.5 47.5zM520.5 165.5q46.5 27.5 73 76t26.5 108.5t-26.5 108.5t-73 76t-104.5 27.5t-104.5 -27.5t-73 -76
t-26.5 -108.5t26.5 -108.5t73 -76t104.5 -27.5t104.5 27.5zM472 785l-56 81l-56 -81h-131l114 160h146l114 -160h-131z" />
    <glyph glyph-name="Otilde" unicode="&#xd5;" horiz-adv-x="832" 
d="M228.5 32.5q-83.5 47.5 -131.5 131t-48 186.5t48 186.5t131.5 131t187.5 47.5t187.5 -47.5t131.5 -131t48 -186.5t-48 -186.5t-131.5 -131t-187.5 -47.5t-187.5 47.5zM520.5 165.5q46.5 27.5 73 76t26.5 108.5t-26.5 108.5t-73 76t-104.5 27.5t-104.5 -27.5t-73 -76
t-26.5 -108.5t26.5 -108.5t73 -76t104.5 -27.5t104.5 27.5zM248 902q30 36 83 36q25 0 45.5 -7t44.5 -19q14 -7 27 -12t23 -5q15 0 24 10.5t9 30.5h110q0 -76 -30 -112t-83 -36q-25 0 -46 7t-44 20q-14 7 -27 12t-23 5q-15 0 -24 -10.5t-9 -30.5h-110q0 75 30 111z" />
    <glyph glyph-name="Odieresis" unicode="&#xd6;" horiz-adv-x="832" 
d="M228.5 32.5q-83.5 47.5 -131.5 131t-48 186.5t48 186.5t131.5 131t187.5 47.5t187.5 -47.5t131.5 -131t48 -186.5t-48 -186.5t-131.5 -131t-187.5 -47.5t-187.5 47.5zM520.5 165.5q46.5 27.5 73 76t26.5 108.5t-26.5 108.5t-73 76t-104.5 27.5t-104.5 -27.5t-73 -76
t-26.5 -108.5t26.5 -108.5t73 -76t104.5 -27.5t104.5 27.5zM584 945l-80 -188h-10l-78 183l-79 -183h-9l-80 188h336z" />
    <glyph glyph-name="multiply" unicode="&#xd7;" horiz-adv-x="560" 
d="M61 219l131 131l-131 131l88 89l131 -131l131 131l89 -89l-131 -131l131 -131l-89 -88l-131 131l-131 -131z" />
    <glyph glyph-name="Oslash" unicode="&#xd8;" horiz-adv-x="832" 
d="M236 30l-25 -30h-164l89 109q-42 48 -64.5 109.5t-22.5 131.5q0 103 48 186.5t131.5 131t187.5 47.5q99 0 180 -45l25 30h164l-89 -109q42 -48 64.5 -109.5t22.5 -131.5q0 -103 -48 -186.5t-131.5 -131t-187.5 -47.5q-99 0 -180 45zM415 568q-60 0 -108.5 -28t-76 -78
t-27.5 -112q0 -67 33 -117l262 315q-38 20 -83 20zM524.5 159.5q48.5 28.5 76.5 78.5t28 112q0 65 -33 117l-262 -316q35 -20 81 -20q61 0 109.5 28.5z" />
    <glyph glyph-name="Ugrave" unicode="&#xd9;" horiz-adv-x="817" 
d="M238.5 25q-73.5 40 -113.5 112.5t-40 169.5v393h160v-387q0 -83 43 -129.5t121 -46.5t120.5 46.5t42.5 129.5v387h160v-393q0 -97 -40 -169.5t-113 -112.5t-170 -40t-170.5 40zM333 785l-67 160h135l66 -160h-134z" />
    <glyph glyph-name="Uacute" unicode="&#xda;" horiz-adv-x="817" 
d="M238.5 25q-73.5 40 -113.5 112.5t-40 169.5v393h160v-387q0 -83 43 -129.5t121 -46.5t120.5 46.5t42.5 129.5v387h160v-393q0 -97 -40 -169.5t-113 -112.5t-170 -40t-170.5 40zM417 945h136l-67 -160h-135z" />
    <glyph glyph-name="Ucircumflex" unicode="&#xdb;" horiz-adv-x="817" 
d="M238.5 25q-73.5 40 -113.5 112.5t-40 169.5v393h160v-387q0 -83 43 -129.5t121 -46.5t120.5 46.5t42.5 129.5v387h160v-393q0 -97 -40 -169.5t-113 -112.5t-170 -40t-170.5 40zM465 785l-56 81l-56 -81h-131l114 160h146l114 -160h-131z" />
    <glyph glyph-name="Udieresis" unicode="&#xdc;" horiz-adv-x="817" 
d="M238.5 25q-73.5 40 -113.5 112.5t-40 169.5v393h160v-387q0 -83 43 -129.5t121 -46.5t120.5 46.5t42.5 129.5v387h160v-393q0 -97 -40 -169.5t-113 -112.5t-170 -40t-170.5 40zM577 945l-80 -188h-10l-78 183l-79 -183h-9l-80 188h336z" />
    <glyph glyph-name="Yacute" unicode="&#xdd;" horiz-adv-x="751" 
d="M296 245l-291 455h188l188 -301l184 301h181l-290 -455v-245h-160v245zM384 945h136l-67 -160h-135z" />
    <glyph glyph-name="Thorn" unicode="&#xde;" horiz-adv-x="682" 
d="M255 700v-113h119q128 0 202.5 -62t74.5 -170t-74 -169.5t-203 -61.5h-119v-124h-157v700h157zM459.5 282q31.5 26 31.5 70t-31.5 70t-84.5 26h-120v-192h120q53 0 84.5 26z" />
    <glyph glyph-name="germandbls" unicode="&#xdf;" horiz-adv-x="792" 
d="M36 374v126h93v39q0 57 31 102.5t90 72t138 26.5q76 0 135 -25t92.5 -71t33.5 -107v-132l-30 2q-42 2 -52 2q-40 0 -71 -10.5t-31 -35.5q0 -21 20 -30t72 -20q6 -1 25 -5q95 -21 145.5 -55.5t50.5 -100.5q0 -79 -63.5 -122.5t-156.5 -43.5q-92 0 -152 45t-69 134h123
q6 -33 33.5 -52t67.5 -19q32 0 58 12t26 39q0 16 -11.5 25t-30.5 14.5t-72 16.5q-87 19 -139 53.5t-52 105.5t53.5 107.5t121.5 43.5v23q0 39 -36.5 60t-90.5 21q-56 0 -92.5 -24.5t-36.5 -72.5q0 -11 3 -29q0 -4 3 -28.5t3 -63.5v-597h-139v574h-93z" />
    <glyph glyph-name="agrave" unicode="&#xe0;" horiz-adv-x="605" 
d="M79 27q-46 38 -46 103q0 148 252 163q52 4 74 14t22 30q0 27 -26 44.5t-66 17.5q-41 0 -68.5 -19t-35.5 -54h-130q12 84 77 134t163 50q100 0 159.5 -55.5t59.5 -148.5v-184h58v-122l-174 -1v63q-32 -34 -83.5 -53.5t-109.5 -19.5q-80 0 -126 38zM311.5 114
q34.5 18 55 48t20.5 64v6q-9 -7 -35.5 -14t-59.5 -10q-63 -5 -90.5 -20.5t-27.5 -43.5q0 -23 16.5 -35.5t47.5 -12.5q39 0 73.5 18zM217 585l-67 160h135l66 -160h-134z" />
    <glyph glyph-name="aacute" unicode="&#xe1;" horiz-adv-x="605" 
d="M79 27q-46 38 -46 103q0 148 252 163q52 4 74 14t22 30q0 27 -26 44.5t-66 17.5q-41 0 -68.5 -19t-35.5 -54h-130q12 84 77 134t163 50q100 0 159.5 -55.5t59.5 -148.5v-184h58v-122l-174 -1v63q-32 -34 -83.5 -53.5t-109.5 -19.5q-80 0 -126 38zM311.5 114
q34.5 18 55 48t20.5 64v6q-9 -7 -35.5 -14t-59.5 -10q-63 -5 -90.5 -20.5t-27.5 -43.5q0 -23 16.5 -35.5t47.5 -12.5q39 0 73.5 18zM301 745h136l-67 -160h-135z" />
    <glyph glyph-name="acircumflex" unicode="&#xe2;" horiz-adv-x="605" 
d="M79 27q-46 38 -46 103q0 148 252 163q52 4 74 14t22 30q0 27 -26 44.5t-66 17.5q-41 0 -68.5 -19t-35.5 -54h-130q12 84 77 134t163 50q100 0 159.5 -55.5t59.5 -148.5v-184h58v-122l-174 -1v63q-32 -34 -83.5 -53.5t-109.5 -19.5q-80 0 -126 38zM311.5 114
q34.5 18 55 48t20.5 64v6q-9 -7 -35.5 -14t-59.5 -10q-63 -5 -90.5 -20.5t-27.5 -43.5q0 -23 16.5 -35.5t47.5 -12.5q39 0 73.5 18zM349 585l-56 81l-56 -81h-131l114 160h146l114 -160h-131z" />
    <glyph glyph-name="atilde" unicode="&#xe3;" horiz-adv-x="605" 
d="M79 27q-46 38 -46 103q0 148 252 163q52 4 74 14t22 30q0 27 -26 44.5t-66 17.5q-41 0 -68.5 -19t-35.5 -54h-130q12 84 77 134t163 50q100 0 159.5 -55.5t59.5 -148.5v-184h58v-122l-174 -1v63q-32 -34 -83.5 -53.5t-109.5 -19.5q-80 0 -126 38zM311.5 114
q34.5 18 55 48t20.5 64v6q-9 -7 -35.5 -14t-59.5 -10q-63 -5 -90.5 -20.5t-27.5 -43.5q0 -23 16.5 -35.5t47.5 -12.5q39 0 73.5 18zM125 702q30 36 83 36q25 0 45.5 -7t44.5 -19q14 -7 27 -12t23 -5q15 0 24 10.5t9 30.5h110q0 -76 -30 -112t-83 -36q-25 0 -46 7t-44 20
q-14 7 -27 12t-23 5q-15 0 -24 -10.5t-9 -30.5h-110q0 75 30 111z" />
    <glyph glyph-name="adieresis" unicode="&#xe4;" horiz-adv-x="605" 
d="M79 27q-46 38 -46 103q0 148 252 163q52 4 74 14t22 30q0 27 -26 44.5t-66 17.5q-41 0 -68.5 -19t-35.5 -54h-130q12 84 77 134t163 50q100 0 159.5 -55.5t59.5 -148.5v-184h58v-122l-174 -1v63q-32 -34 -83.5 -53.5t-109.5 -19.5q-80 0 -126 38zM311.5 114
q34.5 18 55 48t20.5 64v6q-9 -7 -35.5 -14t-59.5 -10q-63 -5 -90.5 -20.5t-27.5 -43.5q0 -23 16.5 -35.5t47.5 -12.5q39 0 73.5 18zM461 745l-80 -188h-10l-78 183l-79 -183h-9l-80 188h336z" />
    <glyph glyph-name="aring" unicode="&#xe5;" horiz-adv-x="605" 
d="M79 27q-46 38 -46 103q0 148 252 163q52 4 74 14t22 30q0 27 -26 44.5t-66 17.5q-41 0 -68.5 -19t-35.5 -54h-130q12 84 77 134t163 50q100 0 159.5 -55.5t59.5 -148.5v-184h58v-122l-174 -1v63q-32 -34 -83.5 -53.5t-109.5 -19.5q-80 0 -126 38zM311.5 114
q34.5 18 55 48t20.5 64v6q-9 -7 -35.5 -14t-59.5 -10q-63 -5 -90.5 -20.5t-27.5 -43.5q0 -23 16.5 -35.5t47.5 -12.5q39 0 73.5 18zM223.5 572.5q-31.5 18.5 -50 50t-18.5 68.5t18.5 69t50 50.5t68.5 18.5q38 0 70 -18.5t50.5 -50.5t18.5 -69t-18.5 -68.5t-50.5 -50
t-70 -18.5q-37 0 -68.5 18.5zM325 660q13 13 13 32q0 18 -13 31t-32 13t-32 -13t-13 -31q0 -19 13 -32t32 -13t32 13z" />
    <glyph glyph-name="ae" unicode="&#xe6;" horiz-adv-x="950" 
d="M83.5 26.5q-50.5 37.5 -50.5 103.5q0 148 252 163q52 4 74 14t22 30q0 27 -26 44.5t-66 17.5q-41 0 -68.5 -19t-35.5 -54h-130q12 84 75.5 134t159.5 50q56 0 100 -19t72 -53q36 34 85.5 53t104.5 19q75 0 135 -33t94.5 -92t34.5 -133q0 -14 -2 -42h-399q9 -46 47 -76.5
t94 -30.5q35 0 63.5 13t42.5 35h138q-9 -42 -41.5 -79t-86 -59.5t-119.5 -22.5q-69 0 -125 24.5t-92 69.5q-29 -40 -83 -67.5t-129 -27.5q-90 0 -140.5 37.5zM733.5 370.5q-34.5 25.5 -83.5 25.5q-48 0 -84 -26t-48 -69h262q-12 44 -46.5 69.5zM311.5 114q34.5 18 55 48
t20.5 64v6q-9 -7 -35.5 -14t-59.5 -10q-63 -5 -90.5 -20.5t-27.5 -43.5q0 -23 16.5 -35.5t47.5 -12.5q39 0 73.5 18z" />
    <glyph glyph-name="ccedilla" unicode="&#xe7;" horiz-adv-x="598" 
d="M169.5 24q-61.5 34 -96.5 93t-35 133q0 73 35.5 132.5t97 93.5t137.5 34q68 0 123.5 -27.5t90 -75.5t40.5 -108h-138q-11 38 -42 61.5t-74 23.5q-57 0 -94 -38.5t-37 -95.5t37 -95.5t94 -38.5q43 0 74.5 24t41.5 62h138q-7 -60 -41.5 -108.5t-90 -76t-122.5 -27.5
q-77 0 -138.5 34zM308 -245h-136l67 160h135z" />
    <glyph glyph-name="egrave" unicode="&#xe8;" horiz-adv-x="608" 
d="M169 22.5q-62 32.5 -96.5 90.5t-34.5 133t36.5 135.5t99 94.5t137.5 34q74 0 134.5 -33t95 -92t34.5 -133q0 -21 -3 -42h-399q9 -46 47 -76.5t94 -30.5q35 0 63.5 13t42.5 35h139q-9 -43 -42 -79.5t-86.5 -59t-119.5 -22.5q-80 0 -142 32.5zM391.5 370.5
q-34.5 25.5 -83.5 25.5q-47 0 -83.5 -26t-48.5 -69h262q-12 44 -46.5 69.5zM226 585l-67 160h135l66 -160h-134z" />
    <glyph glyph-name="eacute" unicode="&#xe9;" horiz-adv-x="608" 
d="M169 22.5q-62 32.5 -96.5 90.5t-34.5 133t36.5 135.5t99 94.5t137.5 34q74 0 134.5 -33t95 -92t34.5 -133q0 -21 -3 -42h-399q9 -46 47 -76.5t94 -30.5q35 0 63.5 13t42.5 35h139q-9 -43 -42 -79.5t-86.5 -59t-119.5 -22.5q-80 0 -142 32.5zM391.5 370.5
q-34.5 25.5 -83.5 25.5q-47 0 -83.5 -26t-48.5 -69h262q-12 44 -46.5 69.5zM310 745h136l-67 -160h-135z" />
    <glyph glyph-name="ecircumflex" unicode="&#xea;" horiz-adv-x="608" 
d="M169 22.5q-62 32.5 -96.5 90.5t-34.5 133t36.5 135.5t99 94.5t137.5 34q74 0 134.5 -33t95 -92t34.5 -133q0 -21 -3 -42h-399q9 -46 47 -76.5t94 -30.5q35 0 63.5 13t42.5 35h139q-9 -43 -42 -79.5t-86.5 -59t-119.5 -22.5q-80 0 -142 32.5zM391.5 370.5
q-34.5 25.5 -83.5 25.5q-47 0 -83.5 -26t-48.5 -69h262q-12 44 -46.5 69.5zM358 585l-56 81l-56 -81h-131l114 160h146l114 -160h-131z" />
    <glyph glyph-name="edieresis" unicode="&#xeb;" horiz-adv-x="608" 
d="M169 22.5q-62 32.5 -96.5 90.5t-34.5 133t36.5 135.5t99 94.5t137.5 34q74 0 134.5 -33t95 -92t34.5 -133q0 -21 -3 -42h-399q9 -46 47 -76.5t94 -30.5q35 0 63.5 13t42.5 35h139q-9 -43 -42 -79.5t-86.5 -59t-119.5 -22.5q-80 0 -142 32.5zM391.5 370.5
q-34.5 25.5 -83.5 25.5q-47 0 -83.5 -26t-48.5 -69h262q-12 44 -46.5 69.5zM470 745l-80 -188h-10l-78 183l-79 -183h-9l-80 188h336z" />
    <glyph glyph-name="igrave" unicode="&#xec;" horiz-adv-x="303" 
d="M82 500h139v-500h-139v500zM76 585l-67 160h135l66 -160h-134z" />
    <glyph glyph-name="iacute" unicode="&#xed;" horiz-adv-x="303" 
d="M82 500h139v-500h-139v500zM160 745h136l-67 -160h-135z" />
    <glyph glyph-name="icircumflex" unicode="&#xee;" horiz-adv-x="303" 
d="M82 500h139v-500h-139v500zM208 585l-56 81l-56 -81h-131l114 160h146l114 -160h-131z" />
    <glyph glyph-name="idieresis" unicode="&#xef;" horiz-adv-x="303" 
d="M82 500h139v-500h-139v500zM320 745l-80 -188h-10l-78 183l-79 -183h-9l-80 188h336z" />
    <glyph glyph-name="eth" unicode="&#xf0;" horiz-adv-x="623" 
d="M171 23.5q-62 33.5 -97.5 92t-35.5 131.5q0 71 33.5 129.5t93 92.5t133.5 34q18 0 36 -5q-2 3 -4.5 7t-5.5 9l-21 31h-152v96h93l-44 69h154l44 -69h128v-96h-68l44 -64q4 -7 29 -48.5t40 -89.5t15 -93q0 -74 -35 -133t-98 -93t-143 -34q-77 0 -139 33.5zM405.5 157
q37.5 38 37.5 93q0 56 -38 94t-93 38q-56 0 -94 -38t-38 -94t38 -93.5t94 -37.5t93.5 38z" />
    <glyph glyph-name="ntilde" unicode="&#xf1;" horiz-adv-x="660" 
d="M209 500v-57q30 32 71 49.5t90 17.5q64 0 113.5 -28t77 -79.5t27.5 -119.5v-283h-140v261q-1 56 -29.5 88t-77.5 32q-52 0 -86 -34t-34 -86v-261h-139v500h127zM170 702q30 36 83 36q25 0 45.5 -7t44.5 -19q14 -7 27 -12t23 -5q15 0 24 10.5t9 30.5h110q0 -76 -30 -112
t-83 -36q-25 0 -46 7t-44 20q-14 7 -27 12t-23 5q-15 0 -24 -10.5t-9 -30.5h-110q0 75 30 111z" />
    <glyph glyph-name="ograve" unicode="&#xf2;" horiz-adv-x="623" 
d="M172 24q-63 34 -98.5 93.5t-35.5 132.5t35.5 132.5t98.5 93.5t140 34t140 -34t98.5 -93.5t35.5 -132.5t-36 -132.5t-98.5 -93.5t-139.5 -34t-140 34zM406.5 155q37.5 37 37.5 95t-37.5 95t-94.5 37q-58 0 -95 -37t-37 -95t37.5 -95t94.5 -37t94.5 37zM236 585l-67 160
h135l66 -160h-134z" />
    <glyph glyph-name="oacute" unicode="&#xf3;" horiz-adv-x="623" 
d="M172 24q-63 34 -98.5 93.5t-35.5 132.5t35.5 132.5t98.5 93.5t140 34t140 -34t98.5 -93.5t35.5 -132.5t-36 -132.5t-98.5 -93.5t-139.5 -34t-140 34zM406.5 155q37.5 37 37.5 95t-37.5 95t-94.5 37q-58 0 -95 -37t-37 -95t37.5 -95t94.5 -37t94.5 37zM320 745h136
l-67 -160h-135z" />
    <glyph glyph-name="ocircumflex" unicode="&#xf4;" horiz-adv-x="623" 
d="M172 24q-63 34 -98.5 93.5t-35.5 132.5t35.5 132.5t98.5 93.5t140 34t140 -34t98.5 -93.5t35.5 -132.5t-36 -132.5t-98.5 -93.5t-139.5 -34t-140 34zM406.5 155q37.5 37 37.5 95t-37.5 95t-94.5 37q-58 0 -95 -37t-37 -95t37.5 -95t94.5 -37t94.5 37zM368 585l-56 81
l-56 -81h-131l114 160h146l114 -160h-131z" />
    <glyph glyph-name="otilde" unicode="&#xf5;" horiz-adv-x="623" 
d="M172 24q-63 34 -98.5 93.5t-35.5 132.5t35.5 132.5t98.5 93.5t140 34t140 -34t98.5 -93.5t35.5 -132.5t-36 -132.5t-98.5 -93.5t-139.5 -34t-140 34zM406.5 155q37.5 37 37.5 95t-37.5 95t-94.5 37q-58 0 -95 -37t-37 -95t37.5 -95t94.5 -37t94.5 37zM144 702
q30 36 83 36q25 0 45.5 -7t44.5 -19q14 -7 27 -12t23 -5q15 0 24 10.5t9 30.5h110q0 -76 -30 -112t-83 -36q-25 0 -46 7t-44 20q-14 7 -27 12t-23 5q-15 0 -24 -10.5t-9 -30.5h-110q0 75 30 111z" />
    <glyph glyph-name="odieresis" unicode="&#xf6;" horiz-adv-x="623" 
d="M172 24q-63 34 -98.5 93.5t-35.5 132.5t35.5 132.5t98.5 93.5t140 34t140 -34t98.5 -93.5t35.5 -132.5t-36 -132.5t-98.5 -93.5t-139.5 -34t-140 34zM406.5 155q37.5 37 37.5 95t-37.5 95t-94.5 37q-58 0 -95 -37t-37 -95t37.5 -95t94.5 -37t94.5 37zM480 745l-80 -188
h-10l-78 183l-79 -183h-9l-80 188h336z" />
    <glyph glyph-name="divide" unicode="&#xf7;" horiz-adv-x="560" 
d="M221.5 514q-23.5 24 -23.5 59t23.5 58.5t58.5 23.5t59 -23.5t24 -58.5t-24 -59t-59 -24t-58.5 24zM51 413h458v-125h-458v125zM221.5 69q-23.5 24 -23.5 59t24 58.5t58 23.5q35 0 59 -24t24 -58q0 -35 -24 -59t-59 -24t-58.5 24z" />
    <glyph glyph-name="oslash" unicode="&#xf8;" horiz-adv-x="623" 
d="M183 19l-15 -19h-128l63 76q-31 35 -48 79.5t-17 94.5q0 73 35.5 132.5t98.5 93.5t140 34q71 0 129 -29l15 19h128l-64 -76q31 -35 48.5 -79.5t17.5 -94.5q0 -73 -36 -132.5t-98.5 -93.5t-139.5 -34q-71 0 -129 29zM312 394q-64 0 -105 -40.5t-41 -103.5q0 -42 20 -74
l174 209q-21 9 -48 9zM416.5 147q41.5 41 41.5 103q0 43 -21 74l-173 -209q21 -9 48 -9q63 0 104.5 41z" />
    <glyph glyph-name="ugrave" unicode="&#xf9;" horiz-adv-x="660" 
d="M176.5 18q-49.5 28 -77 79.5t-27.5 119.5v283h140l1 -261q0 -55 28.5 -87.5t77.5 -32.5q52 0 86 34t34 86v261h139v-500h-127v57q-30 -32 -71 -49.5t-90 -17.5q-64 0 -113.5 28zM243 585l-67 160h135l66 -160h-134z" />
    <glyph glyph-name="uacute" unicode="&#xfa;" horiz-adv-x="660" 
d="M176.5 18q-49.5 28 -77 79.5t-27.5 119.5v283h140l1 -261q0 -55 28.5 -87.5t77.5 -32.5q52 0 86 34t34 86v261h139v-500h-127v57q-30 -32 -71 -49.5t-90 -17.5q-64 0 -113.5 28zM327 745h136l-67 -160h-135z" />
    <glyph glyph-name="ucircumflex" unicode="&#xfb;" horiz-adv-x="660" 
d="M176.5 18q-49.5 28 -77 79.5t-27.5 119.5v283h140l1 -261q0 -55 28.5 -87.5t77.5 -32.5q52 0 86 34t34 86v261h139v-500h-127v57q-30 -32 -71 -49.5t-90 -17.5q-64 0 -113.5 28zM375 585l-56 81l-56 -81h-131l114 160h146l114 -160h-131z" />
    <glyph glyph-name="udieresis" unicode="&#xfc;" horiz-adv-x="660" 
d="M176.5 18q-49.5 28 -77 79.5t-27.5 119.5v283h140l1 -261q0 -55 28.5 -87.5t77.5 -32.5q52 0 86 34t34 86v261h139v-500h-127v57q-30 -32 -71 -49.5t-90 -17.5q-64 0 -113.5 28zM487 745l-80 -188h-10l-78 183l-79 -183h-9l-80 188h336z" />
    <glyph glyph-name="yacute" unicode="&#xfd;" horiz-adv-x="600" 
d="M115.5 -189q-43.5 21 -70.5 65.5t-27 111.5v26h129v-37q0 -32 18.5 -51t45.5 -19q26 0 42 16.5t16 42.5v6q0 18 -2 30t-9 24l-250 474h157l151 -307q2 -4 4 -9.5t3 -10.5q1 4 5 17l121 310h144l-180 -432q-7 -17 -9.5 -30t-2.5 -34v-34q0 -56 -25.5 -96.5t-69 -62
t-96.5 -21.5q-51 0 -94.5 21zM313 745h136l-67 -160h-135z" />
    <glyph glyph-name="thorn" unicode="&#xfe;" horiz-adv-x="654" 
d="M221 710v-257q29 27 66.5 42t79.5 15q71 0 128 -34t89.5 -93t32.5 -133t-32.5 -133t-89.5 -93t-128 -34q-42 0 -79.5 15t-66.5 42v-247h-139v910h139zM438 156q37 38 37 94t-37 94t-92 38t-91.5 -38t-36.5 -94t36.5 -94t91.5 -38t92 38z" />
    <glyph glyph-name="ydieresis" unicode="&#xff;" horiz-adv-x="600" 
d="M115.5 -189q-43.5 21 -70.5 65.5t-27 111.5v26h129v-37q0 -32 18.5 -51t45.5 -19q26 0 42 16.5t16 42.5v6q0 18 -2 30t-9 24l-250 474h157l151 -307q2 -4 4 -9.5t3 -10.5q1 4 5 17l121 310h144l-180 -432q-7 -17 -9.5 -30t-2.5 -34v-34q0 -56 -25.5 -96.5t-69 -62
t-96.5 -21.5q-51 0 -94.5 21zM473 745l-80 -188h-10l-78 183l-79 -183h-9l-80 188h336z" />
    <glyph glyph-name="Amacron" unicode="&#x100;" horiz-adv-x="773" 
d="M282 700h209l265 -700h-171l-52 147h-297l-52 -147h-167zM489 275l-102 287h-6l-102 -287h210zM547 923v-106h-320v106h320z" />
    <glyph glyph-name="amacron" unicode="&#x101;" horiz-adv-x="605" 
d="M79 27q-46 38 -46 103q0 148 252 163q52 4 74 14t22 30q0 27 -26 44.5t-66 17.5q-41 0 -68.5 -19t-35.5 -54h-130q12 84 77 134t163 50q100 0 159.5 -55.5t59.5 -148.5v-184h58v-122l-174 -1v63q-32 -34 -83.5 -53.5t-109.5 -19.5q-80 0 -126 38zM311.5 114
q34.5 18 55 48t20.5 64v6q-9 -7 -35.5 -14t-59.5 -10q-63 -5 -90.5 -20.5t-27.5 -43.5q0 -23 16.5 -35.5t47.5 -12.5q39 0 73.5 18zM453 723v-106h-320v106h320z" />
    <glyph glyph-name="Abreve" unicode="&#x102;" horiz-adv-x="773" 
d="M282 700h209l265 -700h-171l-52 147h-297l-52 -147h-167zM489 275l-102 287h-6l-102 -287h210zM282.5 777.5q-45.5 23.5 -70.5 65.5t-25 94v8h115v-7q0 -35 23.5 -57.5t61.5 -22.5t61.5 22.5t23.5 57.5v7h115v-8q0 -52 -25 -94t-70.5 -65.5t-104.5 -23.5t-104.5 23.5z
" />
    <glyph glyph-name="abreve" unicode="&#x103;" horiz-adv-x="605" 
d="M79 27q-46 38 -46 103q0 148 252 163q52 4 74 14t22 30q0 27 -26 44.5t-66 17.5q-41 0 -68.5 -19t-35.5 -54h-130q12 84 77 134t163 50q100 0 159.5 -55.5t59.5 -148.5v-184h58v-122l-174 -1v63q-32 -34 -83.5 -53.5t-109.5 -19.5q-80 0 -126 38zM311.5 114
q34.5 18 55 48t20.5 64v6q-9 -7 -35.5 -14t-59.5 -10q-63 -5 -90.5 -20.5t-27.5 -43.5q0 -23 16.5 -35.5t47.5 -12.5q39 0 73.5 18zM188.5 577.5q-45.5 23.5 -70.5 65.5t-25 94v8h115v-7q0 -35 23.5 -57.5t61.5 -22.5t61.5 22.5t23.5 57.5v7h115v-8q0 -52 -25 -94
t-70.5 -65.5t-104.5 -23.5t-104.5 23.5z" />
    <glyph glyph-name="Aogonek" unicode="&#x104;" horiz-adv-x="773" 
d="M282 700h209l265 -700h-171l-52 147h-297l-52 -147h-167zM489 275l-102 287h-6l-102 -287h210zM694 -245h-135l67 160h134z" />
    <glyph glyph-name="aogonek" unicode="&#x105;" horiz-adv-x="605" 
d="M79 27q-46 38 -46 103q0 148 252 163q52 4 74 14t22 30q0 27 -26 44.5t-66 17.5q-41 0 -68.5 -19t-35.5 -54h-130q12 84 77 134t163 50q100 0 159.5 -55.5t59.5 -148.5v-184h58v-122l-174 -1v63q-32 -34 -83.5 -53.5t-109.5 -19.5q-80 0 -126 38zM311.5 114
q34.5 18 55 48t20.5 64v6q-9 -7 -35.5 -14t-59.5 -10q-63 -5 -90.5 -20.5t-27.5 -43.5q0 -23 16.5 -35.5t47.5 -12.5q39 0 73.5 18zM510 -245h-135l67 160h134z" />
    <glyph glyph-name="Cacute" unicode="&#x106;" horiz-adv-x="792" 
d="M224.5 32q-82.5 47 -129 130.5t-46.5 188.5q0 104 46.5 187t128.5 130t186 47q92 0 167.5 -39t122 -107.5t53.5 -154.5h-162q-14 67 -63.5 107.5t-118.5 40.5q-57 0 -101.5 -27t-69.5 -75.5t-25 -109.5t25 -109.5t69.5 -75.5t101.5 -27q70 0 119 40.5t63 107.5h162
q-8 -87 -54.5 -155.5t-122 -107t-166.5 -38.5q-103 0 -185.5 47zM418 945h136l-67 -160h-135z" />
    <glyph glyph-name="cacute" unicode="&#x107;" horiz-adv-x="598" 
d="M169.5 24q-61.5 34 -96.5 93t-35 133q0 73 35.5 132.5t97 93.5t137.5 34q68 0 123.5 -27.5t90 -75.5t40.5 -108h-138q-11 38 -42 61.5t-74 23.5q-57 0 -94 -38.5t-37 -95.5t37 -95.5t94 -38.5q43 0 74.5 24t41.5 62h138q-7 -60 -41.5 -108.5t-90 -76t-122.5 -27.5
q-77 0 -138.5 34zM314 745h136l-67 -160h-135z" />
    <glyph glyph-name="Cdotaccent" unicode="&#x10a;" horiz-adv-x="792" 
d="M224.5 32q-82.5 47 -129 130.5t-46.5 188.5q0 104 46.5 187t128.5 130t186 47q92 0 167.5 -39t122 -107.5t53.5 -154.5h-162q-14 67 -63.5 107.5t-118.5 40.5q-57 0 -101.5 -27t-69.5 -75.5t-25 -109.5t25 -109.5t69.5 -75.5t101.5 -27q70 0 119 40.5t63 107.5h162
q-8 -87 -54.5 -155.5t-122 -107t-166.5 -38.5q-103 0 -185.5 47zM315 945h190l-90 -188h-10z" />
    <glyph glyph-name="cdotaccent" unicode="&#x10b;" horiz-adv-x="598" 
d="M169.5 24q-61.5 34 -96.5 93t-35 133q0 73 35.5 132.5t97 93.5t137.5 34q68 0 123.5 -27.5t90 -75.5t40.5 -108h-138q-11 38 -42 61.5t-74 23.5q-57 0 -94 -38.5t-37 -95.5t37 -95.5t94 -38.5q43 0 74.5 24t41.5 62h138q-7 -60 -41.5 -108.5t-90 -76t-122.5 -27.5
q-77 0 -138.5 34zM211 745h190l-90 -188h-10z" />
    <glyph glyph-name="Ccaron" unicode="&#x10c;" horiz-adv-x="792" 
d="M224.5 32q-82.5 47 -129 130.5t-46.5 188.5q0 104 46.5 187t128.5 130t186 47q92 0 167.5 -39t122 -107.5t53.5 -154.5h-162q-14 67 -63.5 107.5t-118.5 40.5q-57 0 -101.5 -27t-69.5 -75.5t-25 -109.5t25 -109.5t69.5 -75.5t101.5 -27q70 0 119 40.5t63 107.5h162
q-8 -87 -54.5 -155.5t-122 -107t-166.5 -38.5q-103 0 -185.5 47zM354 945l56 -81l56 81h131l-114 -160h-146l-114 160h131z" />
    <glyph glyph-name="ccaron" unicode="&#x10d;" horiz-adv-x="598" 
d="M169.5 24q-61.5 34 -96.5 93t-35 133q0 73 35.5 132.5t97 93.5t137.5 34q68 0 123.5 -27.5t90 -75.5t40.5 -108h-138q-11 38 -42 61.5t-74 23.5q-57 0 -94 -38.5t-37 -95.5t37 -95.5t94 -38.5q43 0 74.5 24t41.5 62h138q-7 -60 -41.5 -108.5t-90 -76t-122.5 -27.5
q-77 0 -138.5 34zM250 745l56 -81l56 81h131l-114 -160h-146l-114 160h131z" />
    <glyph glyph-name="Dcaron" unicode="&#x10e;" horiz-adv-x="770" 
d="M332 700q116 0 204 -43.5t136.5 -123t48.5 -183.5t-48.5 -183.5t-136.5 -123t-204 -43.5h-234v700h234zM496.5 199.5q59.5 54.5 59.5 150.5t-59.5 150.5t-164.5 54.5h-74v-410h74q105 0 164.5 54.5zM284 945l56 -81l56 81h131l-114 -160h-146l-114 160h131z" />
    <glyph glyph-name="dcaron" unicode="&#x10f;" horiz-adv-x="655" 
d="M159.5 24q-56.5 34 -89 93t-32.5 133t32.5 133t89 93t127.5 34q43 0 80.5 -15t66.5 -42v257h139v-710h-128v57q-30 -32 -70.5 -49.5t-87.5 -17.5q-71 0 -127.5 34zM400 156q37 38 37 94t-37 94t-91 38q-55 0 -92 -38t-37 -94t37 -94t92 -38q54 0 91 38zM636 710h125
l-8 -160h-117v160z" />
    <glyph glyph-name="Dcroat" unicode="&#x110;" horiz-adv-x="770" 
d="M536 656.5q88 -43.5 136.5 -123t48.5 -183.5t-48.5 -183.5t-136.5 -123t-204 -43.5h-234v300h-62v100h62v300h234q116 0 204 -43.5zM496.5 199.5q59.5 54.5 59.5 150.5t-59.5 150.5t-164.5 54.5h-74v-155h126v-100h-126v-155h74q105 0 164.5 54.5z" />
    <glyph glyph-name="dcroat" unicode="&#x111;" horiz-adv-x="655" 
d="M573 548v-548h-128v57q-30 -32 -70.5 -49.5t-87.5 -17.5q-71 0 -127.5 34t-89 93t-32.5 133t32.5 133t89 93t127.5 34q43 0 80.5 -15t66.5 -42v95h-147v96h147v66h139v-66h65v-96h-65zM400 156q37 38 37 94t-37 94t-91 38q-55 0 -92 -38t-37 -94t37 -94t92 -38
q54 0 91 38z" />
    <glyph glyph-name="Emacron" unicode="&#x112;" horiz-adv-x="658" 
d="M98 700h483v-140h-326v-143h222v-134h-222v-143h355v-140h-512v700zM497 923v-106h-320v106h320z" />
    <glyph glyph-name="emacron" unicode="&#x113;" horiz-adv-x="608" 
d="M169 22.5q-62 32.5 -96.5 90.5t-34.5 133t36.5 135.5t99 94.5t137.5 34q74 0 134.5 -33t95 -92t34.5 -133q0 -21 -3 -42h-399q9 -46 47 -76.5t94 -30.5q35 0 63.5 13t42.5 35h139q-9 -43 -42 -79.5t-86.5 -59t-119.5 -22.5q-80 0 -142 32.5zM391.5 370.5
q-34.5 25.5 -83.5 25.5q-47 0 -83.5 -26t-48.5 -69h262q-12 44 -46.5 69.5zM462 723v-106h-320v106h320z" />
    <glyph glyph-name="Edotaccent" unicode="&#x116;" horiz-adv-x="658" 
d="M98 700h483v-140h-326v-143h222v-134h-222v-143h355v-140h-512v700zM242 945h190l-90 -188h-10z" />
    <glyph glyph-name="edotaccent" unicode="&#x117;" horiz-adv-x="608" 
d="M169 22.5q-62 32.5 -96.5 90.5t-34.5 133t36.5 135.5t99 94.5t137.5 34q74 0 134.5 -33t95 -92t34.5 -133q0 -21 -3 -42h-399q9 -46 47 -76.5t94 -30.5q35 0 63.5 13t42.5 35h139q-9 -43 -42 -79.5t-86.5 -59t-119.5 -22.5q-80 0 -142 32.5zM391.5 370.5
q-34.5 25.5 -83.5 25.5q-47 0 -83.5 -26t-48.5 -69h262q-12 44 -46.5 69.5zM207 745h190l-90 -188h-10z" />
    <glyph glyph-name="Eogonek" unicode="&#x118;" horiz-adv-x="658" 
d="M98 700h483v-140h-326v-143h222v-134h-222v-143h355v-140h-512v700zM548 -245h-135l67 160h134z" />
    <glyph glyph-name="eogonek" unicode="&#x119;" horiz-adv-x="608" 
d="M169 22.5q-62 32.5 -96.5 90.5t-34.5 133t36.5 135.5t99 94.5t137.5 34q74 0 134.5 -33t95 -92t34.5 -133q0 -21 -3 -42h-399q9 -46 47 -76.5t94 -30.5q35 0 63.5 13t42.5 35h139q-9 -43 -42 -79.5t-86.5 -59t-119.5 -22.5q-80 0 -142 32.5zM391.5 370.5
q-34.5 25.5 -83.5 25.5q-47 0 -83.5 -26t-48.5 -69h262q-12 44 -46.5 69.5zM426 -245h-135l67 160h134z" />
    <glyph glyph-name="Ecaron" unicode="&#x11a;" horiz-adv-x="658" 
d="M98 700h483v-140h-326v-143h222v-134h-222v-143h355v-140h-512v700zM281 945l56 -81l56 81h131l-114 -160h-146l-114 160h131z" />
    <glyph glyph-name="ecaron" unicode="&#x11b;" horiz-adv-x="608" 
d="M169 22.5q-62 32.5 -96.5 90.5t-34.5 133t36.5 135.5t99 94.5t137.5 34q74 0 134.5 -33t95 -92t34.5 -133q0 -21 -3 -42h-399q9 -46 47 -76.5t94 -30.5q35 0 63.5 13t42.5 35h139q-9 -43 -42 -79.5t-86.5 -59t-119.5 -22.5q-80 0 -142 32.5zM391.5 370.5
q-34.5 25.5 -83.5 25.5q-47 0 -83.5 -26t-48.5 -69h262q-12 44 -46.5 69.5zM246 745l56 -81l56 81h131l-114 -160h-146l-114 160h131z" />
    <glyph glyph-name="Gbreve" unicode="&#x11e;" horiz-adv-x="824" 
d="M218 32q-79 47 -124 130t-45 187q0 105 46.5 188.5t129 130.5t185.5 47q88 0 160 -34t118.5 -95.5t60.5 -140.5h-166q-17 57 -62 89.5t-108 32.5q-59 0 -104.5 -28t-71 -78.5t-25.5 -114.5q0 -65 26 -116.5t73 -80t107 -28.5q65 0 114 35t68 93h-185v126h339v-375h-134
v78q-40 -45 -97 -69t-128 -24q-98 0 -177 47zM310.5 777.5q-45.5 23.5 -70.5 65.5t-25 94v8h115v-7q0 -35 23.5 -57.5t61.5 -22.5t61.5 22.5t23.5 57.5v7h115v-8q0 -52 -25 -94t-70.5 -65.5t-104.5 -23.5t-104.5 23.5z" />
    <glyph glyph-name="gbreve" unicode="&#x11f;" horiz-adv-x="660" 
d="M130.5 -169q-76.5 41 -76.5 115q0 36 20.5 63.5t58.5 44.5q-61 15 -94 49.5t-33 83.5q0 29 22 56.5t63 32.5l10 1q-18 27 -18 64q0 76 70.5 122.5t202.5 46.5q138 0 210 -46t72 -123t-74.5 -120t-203.5 -43q-53 0 -85 6.5t-64 17.5q-12 4 -23.5 7.5t-22.5 3.5
q-14 0 -22 -7.5t-8 -18.5q0 -35 52 -47t171 -14q136 -2 211 -43.5t75 -123.5q0 -52 -36 -90t-103.5 -58.5t-158.5 -20.5q-139 0 -215.5 41zM458.5 292.5q35.5 18.5 35.5 50.5t-35.5 50.5t-98.5 18.5q-64 0 -99.5 -18.5t-35.5 -50.5t35.5 -50.5t99.5 -18.5q63 0 98.5 18.5z
M461 -85q39 16 39 47q0 32 -39 49t-113 17t-112.5 -17t-38.5 -49q0 -31 38.5 -47t112.5 -16t113 16zM246.5 577.5q-45.5 23.5 -70.5 65.5t-25 94v8h115v-7q0 -35 23.5 -57.5t61.5 -22.5t61.5 22.5t23.5 57.5v7h115v-8q0 -52 -25 -94t-70.5 -65.5t-104.5 -23.5t-104.5 23.5z
" />
    <glyph glyph-name="Gdotaccent" unicode="&#x120;" horiz-adv-x="824" 
d="M218 32q-79 47 -124 130t-45 187q0 105 46.5 188.5t129 130.5t185.5 47q88 0 160 -34t118.5 -95.5t60.5 -140.5h-166q-17 57 -62 89.5t-108 32.5q-59 0 -104.5 -28t-71 -78.5t-25.5 -114.5q0 -65 26 -116.5t73 -80t107 -28.5q65 0 114 35t68 93h-185v126h339v-375h-134
v78q-40 -45 -97 -69t-128 -24q-98 0 -177 47zM320 945h190l-90 -188h-10z" />
    <glyph glyph-name="gdotaccent" unicode="&#x121;" horiz-adv-x="660" 
d="M130.5 -169q-76.5 41 -76.5 115q0 36 20.5 63.5t58.5 44.5q-61 15 -94 49.5t-33 83.5q0 29 22 56.5t63 32.5l10 1q-18 27 -18 64q0 76 70.5 122.5t202.5 46.5q138 0 210 -46t72 -123t-74.5 -120t-203.5 -43q-53 0 -85 6.5t-64 17.5q-12 4 -23.5 7.5t-22.5 3.5
q-14 0 -22 -7.5t-8 -18.5q0 -35 52 -47t171 -14q136 -2 211 -43.5t75 -123.5q0 -52 -36 -90t-103.5 -58.5t-158.5 -20.5q-139 0 -215.5 41zM458.5 292.5q35.5 18.5 35.5 50.5t-35.5 50.5t-98.5 18.5q-64 0 -99.5 -18.5t-35.5 -50.5t35.5 -50.5t99.5 -18.5q63 0 98.5 18.5z
M461 -85q39 16 39 47q0 32 -39 49t-113 17t-112.5 -17t-38.5 -49q0 -31 38.5 -47t112.5 -16t113 16zM256 745h190l-90 -188h-10z" />
    <glyph glyph-name="uni0122" unicode="&#x122;" horiz-adv-x="824" 
d="M218 32q-79 47 -124 130t-45 187q0 105 46.5 188.5t129 130.5t185.5 47q88 0 160 -34t118.5 -95.5t60.5 -140.5h-166q-17 57 -62 89.5t-108 32.5q-59 0 -104.5 -28t-71 -78.5t-25.5 -114.5q0 -65 26 -116.5t73 -80t107 -28.5q65 0 114 35t68 93h-185v126h339v-375h-134
v78q-40 -45 -97 -69t-128 -24q-98 0 -177 47zM405 -215q10 18 12 29q-27 2 -42.5 19.5t-15.5 38.5q0 27 24 47t61 20q38 0 63 -19t25 -54q0 -31 -21 -61t-51 -50h-75q10 12 20 30z" />
    <glyph glyph-name="uni0123" unicode="&#x123;" horiz-adv-x="660" 
d="M130.5 -169q-76.5 41 -76.5 115q0 36 20.5 63.5t58.5 44.5q-61 15 -94 49.5t-33 83.5q0 29 22 56.5t63 32.5l10 1q-18 27 -18 64q0 76 70.5 122.5t202.5 46.5q138 0 210 -46t72 -123t-74.5 -120t-203.5 -43q-53 0 -85 6.5t-64 17.5q-12 4 -23.5 7.5t-22.5 3.5
q-14 0 -22 -7.5t-8 -18.5q0 -35 52 -47t171 -14q136 -2 211 -43.5t75 -123.5q0 -52 -36 -90t-103.5 -58.5t-158.5 -20.5q-139 0 -215.5 41zM458.5 292.5q35.5 18.5 35.5 50.5t-35.5 50.5t-98.5 18.5q-64 0 -99.5 -18.5t-35.5 -50.5t35.5 -50.5t99.5 -18.5q63 0 98.5 18.5z
M461 -85q39 16 39 47q0 32 -39 49t-113 17t-112.5 -17t-38.5 -49q0 -31 38.5 -47t112.5 -16t113 16zM390 721q-10 -18 -12 -29q27 -2 42.5 -19.5t15.5 -38.5q0 -27 -24 -47t-61 -20q-38 0 -63 19t-25 54q0 31 21 61t51 50h75q-10 -12 -20 -30z" />
    <glyph glyph-name="Hbar" unicode="&#x126;" horiz-adv-x="820" 
d="M785 507h-63v-507h-160v274h-304v-274h-160v507h-62v110h62v83h160v-83h304v83h160v-83h63v-110zM562 507h-304v-81h304v81z" />
    <glyph glyph-name="hbar" unicode="&#x127;" horiz-adv-x="660" 
d="M483.5 482q49.5 -28 77 -79.5t27.5 -119.5v-283h-140v261q-1 56 -29.5 88t-77.5 32q-52 0 -86 -34t-34 -86v-261h-139v548h-62v96h62v66h139v-66h150v-96h-150v-94q59 56 149 56q64 0 113.5 -28z" />
    <glyph glyph-name="Imacron" unicode="&#x12a;" horiz-adv-x="356" 
d="M98 700h160v-700h-160v700zM338 923v-106h-320v106h320z" />
    <glyph glyph-name="imacron" unicode="&#x12b;" horiz-adv-x="303" 
d="M82 500h139v-500h-139v500zM312 723v-106h-320v106h320z" />
    <glyph glyph-name="Iogonek" unicode="&#x12e;" horiz-adv-x="356" 
d="M98 700h160v-700h-160v700zM196 -245h-135l67 160h134z" />
    <glyph glyph-name="iogonek" unicode="&#x12f;" horiz-adv-x="303" 
d="M82 500h139v-500h-139v500zM57 745h190l-90 -188h-10zM159 -245h-135l67 160h134z" />
    <glyph glyph-name="Idotaccent" unicode="&#x130;" horiz-adv-x="356" 
d="M98 700h160v-700h-160v700zM83 945h190l-90 -188h-10z" />
    <glyph glyph-name="dotlessi" unicode="&#x131;" horiz-adv-x="303" 
d="M82 500h139v-500h-139v500z" />
    <glyph glyph-name="uni0136" unicode="&#x136;" horiz-adv-x="758" 
d="M98 700h159v-274h105l188 274h176l-230 -337l247 -363h-194l-188 274h-104v-274h-159v700zM359 -215q10 18 12 29q-27 2 -42.5 19.5t-15.5 38.5q0 27 24 47t61 20q38 0 63 -19t25 -54q0 -31 -21 -61t-51 -50h-75q10 12 20 30z" />
    <glyph glyph-name="uni0137" unicode="&#x137;" horiz-adv-x="600" 
d="M82 710h139v-395h65l137 185h154l-179 -241l189 -259h-166l-137 186h-63v-186h-139v710zM261 -215q10 18 12 29q-27 2 -42.5 19.5t-15.5 38.5q0 27 24 47t61 20q38 0 63 -19t25 -54q0 -31 -21 -61t-51 -50h-75q10 12 20 30z" />
    <glyph glyph-name="Lacute" unicode="&#x139;" horiz-adv-x="639" 
d="M98 700h160v-547h348v-153h-508v700zM186 945h136l-67 -160h-135z" />
    <glyph glyph-name="lacute" unicode="&#x13a;" horiz-adv-x="303" 
d="M82 710h139v-710h-139v710zM160 945h136l-67 -160h-135z" />
    <glyph glyph-name="uni013B" unicode="&#x13b;" horiz-adv-x="639" 
d="M98 700h160v-547h348v-153h-508v700zM338 -215q10 18 12 29q-27 2 -42.5 19.5t-15.5 38.5q0 27 24 47t61 20q38 0 63 -19t25 -54q0 -31 -21 -61t-51 -50h-75q10 12 20 30z" />
    <glyph glyph-name="uni013C" unicode="&#x13c;" horiz-adv-x="303" 
d="M82 710h139v-710h-139v710zM113 -215q10 18 12 29q-27 2 -42.5 19.5t-15.5 38.5q0 27 24 47t61 20q38 0 63 -19t25 -54q0 -31 -21 -61t-51 -50h-75q10 12 20 30z" />
    <glyph glyph-name="Lcaron" unicode="&#x13d;" horiz-adv-x="639" 
d="M98 700h160v-547h348v-153h-508v700zM321 700h125l-8 -160h-117v160z" />
    <glyph glyph-name="lcaron" unicode="&#x13e;" horiz-adv-x="303" 
d="M82 710h139v-710h-139v710zM284 710h125l-8 -160h-117v160z" />
    <glyph glyph-name="Lslash" unicode="&#x141;" horiz-adv-x="639" 
d="M606 153v-153h-508v228l-71 -42v141l71 41v332h160v-237l152 89v-141l-152 -89v-169h348z" />
    <glyph glyph-name="lslash" unicode="&#x142;" horiz-adv-x="317" 
d="M322 371l-94 -55v-316h-139v235l-75 -44v137l75 43v339h139v-258l94 55v-136z" />
    <glyph glyph-name="Nacute" unicode="&#x143;" horiz-adv-x="840" 
d="M98 700h168l327 -470v470h149v-700h-168l-325 471v-471h-151v700zM428 945h136l-67 -160h-135z" />
    <glyph glyph-name="nacute" unicode="&#x144;" horiz-adv-x="660" 
d="M209 500v-57q30 32 71 49.5t90 17.5q64 0 113.5 -28t77 -79.5t27.5 -119.5v-283h-140v261q-1 56 -29.5 88t-77.5 32q-52 0 -86 -34t-34 -86v-261h-139v500h127zM346 745h136l-67 -160h-135z" />
    <glyph glyph-name="uni0145" unicode="&#x145;" horiz-adv-x="840" 
d="M98 700h168l327 -470v470h149v-700h-168l-325 471v-471h-151v700zM381 -215q10 18 12 29q-27 2 -42.5 19.5t-15.5 38.5q0 27 24 47t61 20q38 0 63 -19t25 -54q0 -31 -21 -61t-51 -50h-75q10 12 20 30z" />
    <glyph glyph-name="uni0146" unicode="&#x146;" horiz-adv-x="660" 
d="M209 500v-57q30 32 71 49.5t90 17.5q64 0 113.5 -28t77 -79.5t27.5 -119.5v-283h-140v261q-1 56 -29.5 88t-77.5 32q-52 0 -86 -34t-34 -86v-261h-139v500h127zM299 -215q10 18 12 29q-27 2 -42.5 19.5t-15.5 38.5q0 27 24 47t61 20q38 0 63 -19t25 -54q0 -31 -21 -61
t-51 -50h-75q10 12 20 30z" />
    <glyph glyph-name="Ncaron" unicode="&#x147;" horiz-adv-x="840" 
d="M98 700h168l327 -470v470h149v-700h-168l-325 471v-471h-151v700zM364 945l56 -81l56 81h131l-114 -160h-146l-114 160h131z" />
    <glyph glyph-name="ncaron" unicode="&#x148;" horiz-adv-x="660" 
d="M209 500v-57q30 32 71 49.5t90 17.5q64 0 113.5 -28t77 -79.5t27.5 -119.5v-283h-140v261q-1 56 -29.5 88t-77.5 32q-52 0 -86 -34t-34 -86v-261h-139v500h127zM282 745l56 -81l56 81h131l-114 -160h-146l-114 160h131z" />
    <glyph glyph-name="Eng" unicode="&#x14a;" horiz-adv-x="840" 
d="M388.5 -167.5q-51.5 42.5 -51.5 110.5h130v-1q0 -21 16.5 -31.5t44.5 -10.5q35 0 52.5 15.5t17.5 41.5q0 31 -24 66l-325 448v-471h-151v700h168l327 -457v457h149v-689q0 -109 -55.5 -165t-160.5 -56q-86 0 -137.5 42.5z" />
    <glyph glyph-name="eng" unicode="&#x14b;" horiz-adv-x="660" 
d="M276.5 -190q-44.5 20 -69 55t-24.5 78h134v-1q0 -20 16.5 -31t45.5 -11q78 0 78 90q0 15 -3 34q-5 48 -5 72v165q-1 56 -30 88t-78 32q-52 0 -86 -34t-34 -86v-261h-139v500h127v-57q30 32 71 49.5t90 17.5q64 0 113.5 -28t77 -79.5t27.5 -119.5v-272q0 -109 -54 -165
t-155 -56q-58 0 -102.5 20z" />
    <glyph glyph-name="Omacron" unicode="&#x14c;" horiz-adv-x="832" 
d="M228.5 32.5q-83.5 47.5 -131.5 131t-48 186.5t48 186.5t131.5 131t187.5 47.5t187.5 -47.5t131.5 -131t48 -186.5t-48 -186.5t-131.5 -131t-187.5 -47.5t-187.5 47.5zM520.5 165.5q46.5 27.5 73 76t26.5 108.5t-26.5 108.5t-73 76t-104.5 27.5t-104.5 -27.5t-73 -76
t-26.5 -108.5t26.5 -108.5t73 -76t104.5 -27.5t104.5 27.5zM576 923v-106h-320v106h320z" />
    <glyph glyph-name="omacron" unicode="&#x14d;" horiz-adv-x="623" 
d="M172 24q-63 34 -98.5 93.5t-35.5 132.5t35.5 132.5t98.5 93.5t140 34t140 -34t98.5 -93.5t35.5 -132.5t-36 -132.5t-98.5 -93.5t-139.5 -34t-140 34zM406.5 155q37.5 37 37.5 95t-37.5 95t-94.5 37q-58 0 -95 -37t-37 -95t37.5 -95t94.5 -37t94.5 37zM472 723v-106h-320
v106h320z" />
    <glyph glyph-name="Ohungarumlaut" unicode="&#x150;" horiz-adv-x="832" 
d="M228.5 32.5q-83.5 47.5 -131.5 131t-48 186.5t48 186.5t131.5 131t187.5 47.5t187.5 -47.5t131.5 -131t48 -186.5t-48 -186.5t-131.5 -131t-187.5 -47.5t-187.5 47.5zM520.5 165.5q46.5 27.5 73 76t26.5 108.5t-26.5 108.5t-73 76t-104.5 27.5t-104.5 -27.5t-73 -76
t-26.5 -108.5t26.5 -108.5t73 -76t104.5 -27.5t104.5 27.5zM454 945l-60 -160h-121l59 160h122zM631 945l-60 -160h-121l59 160h122z" />
    <glyph glyph-name="ohungarumlaut" unicode="&#x151;" horiz-adv-x="623" 
d="M172 24q-63 34 -98.5 93.5t-35.5 132.5t35.5 132.5t98.5 93.5t140 34t140 -34t98.5 -93.5t35.5 -132.5t-36 -132.5t-98.5 -93.5t-139.5 -34t-140 34zM406.5 155q37.5 37 37.5 95t-37.5 95t-94.5 37q-58 0 -95 -37t-37 -95t37.5 -95t94.5 -37t94.5 37zM350 745l-60 -160
h-121l59 160h122zM527 745l-60 -160h-121l59 160h122z" />
    <glyph glyph-name="OE" unicode="&#x152;" horiz-adv-x="1062" 
d="M234 43.5q-88 43.5 -136.5 123t-48.5 183.5t48.5 183.5t136.5 123t204 43.5h547v-140h-324v-143h221v-134h-221v-143h353v-140h-576q-116 0 -204 43.5zM504 555h-66q-105 0 -164.5 -54.5t-59.5 -150.5t59.5 -150.5t164.5 -54.5h66v410z" />
    <glyph glyph-name="oe" unicode="&#x153;" horiz-adv-x="1010" 
d="M172 24q-63 34 -98.5 93.5t-35.5 132.5t35.5 132.5t98.5 93.5t140 34q62 0 113.5 -24t87.5 -67q36 43 87.5 67t111.5 24q75 0 135 -33t94.5 -92t34.5 -133q0 -14 -2 -42h-399q9 -46 47 -76.5t94 -30.5q35 0 63.5 13t42.5 35h138q-9 -42 -41.5 -79t-86 -59.5t-119.5 -22.5
q-64 0 -116 23.5t-87 64.5q-36 -41 -87 -64.5t-111 -23.5q-77 0 -140 34zM793.5 370.5q-34.5 25.5 -83.5 25.5q-48 0 -84 -26t-48 -69h262q-12 44 -46.5 69.5zM406.5 155q37.5 37 37.5 95t-37.5 95t-94.5 37q-58 0 -95 -37t-37 -95t37.5 -95t94.5 -37t94.5 37z" />
    <glyph glyph-name="Racute" unicode="&#x154;" horiz-adv-x="733" 
d="M391 700q128 0 202.5 -60.5t74.5 -166.5q0 -73 -37.5 -125.5t-105.5 -78.5l188 -269h-184l-173 247h-100v-247h-158v700h293zM477.5 401.5q30.5 25.5 30.5 67.5t-30.5 67t-82.5 25h-139v-185h139q52 0 82.5 25.5zM362 945h136l-67 -160h-135z" />
    <glyph glyph-name="racute" unicode="&#x155;" horiz-adv-x="539" 
d="M209 500v-57q27 32 65.5 49.5t82.5 17.5q82 0 134 -51t52 -139v-34h-139v20q0 36 -22 55t-59 19q-43 0 -72.5 -32t-29.5 -78v-270h-139v500h127zM325 745h136l-67 -160h-135z" />
    <glyph glyph-name="uni0156" unicode="&#x156;" horiz-adv-x="733" 
d="M391 700q128 0 202.5 -60.5t74.5 -166.5q0 -73 -37.5 -125.5t-105.5 -78.5l188 -269h-184l-173 247h-100v-247h-158v700h293zM477.5 401.5q30.5 25.5 30.5 67.5t-30.5 67t-82.5 25h-139v-185h139q52 0 82.5 25.5zM348 -215q10 18 12 29q-27 2 -42.5 19.5t-15.5 38.5
q0 27 24 47t61 20q38 0 63 -19t25 -54q0 -31 -21 -61t-51 -50h-75q10 12 20 30z" />
    <glyph glyph-name="uni0157" unicode="&#x157;" horiz-adv-x="539" 
d="M209 500v-57q27 32 65.5 49.5t82.5 17.5q82 0 134 -51t52 -139v-34h-139v20q0 36 -22 55t-59 19q-43 0 -72.5 -32t-29.5 -78v-270h-139v500h127zM113 -215q10 18 12 29q-27 2 -42.5 19.5t-15.5 38.5q0 27 24 47t61 20q38 0 63 -19t25 -54q0 -31 -21 -61t-51 -50h-75
q10 12 20 30z" />
    <glyph glyph-name="Rcaron" unicode="&#x158;" horiz-adv-x="733" 
d="M391 700q128 0 202.5 -60.5t74.5 -166.5q0 -73 -37.5 -125.5t-105.5 -78.5l188 -269h-184l-173 247h-100v-247h-158v700h293zM477.5 401.5q30.5 25.5 30.5 67.5t-30.5 67t-82.5 25h-139v-185h139q52 0 82.5 25.5zM298 945l56 -81l56 81h131l-114 -160h-146l-114 160h131z
" />
    <glyph glyph-name="rcaron" unicode="&#x159;" horiz-adv-x="539" 
d="M209 500v-57q27 32 65.5 49.5t82.5 17.5q82 0 134 -51t52 -139v-34h-139v20q0 36 -22 55t-59 19q-43 0 -72.5 -32t-29.5 -78v-270h-139v500h127zM261 745l56 -81l56 81h131l-114 -160h-146l-114 160h131z" />
    <glyph glyph-name="Sacute" unicode="&#x15a;" horiz-adv-x="706" 
d="M132.5 50.5q-90.5 65.5 -101.5 191.5h159q11 -59 56 -91.5t115 -32.5q63 0 100.5 18.5t37.5 54.5q0 28 -17.5 43.5t-49 25t-99.5 23.5q-87 18 -145.5 39.5t-99 65.5t-40.5 116q0 71 41.5 118.5t109 70t146.5 22.5q82 0 151.5 -26.5t115.5 -82.5t55 -141h-167
q-10 56 -53 85.5t-107 29.5q-51 0 -88.5 -18.5t-37.5 -55.5q0 -27 20 -43.5t51 -25t98 -22.5q88 -19 147.5 -42t97.5 -66t38 -113q0 -64 -36 -111t-104.5 -72.5t-164.5 -25.5q-138 0 -228.5 65.5zM351 945h136l-67 -160h-135z" />
    <glyph glyph-name="sacute" unicode="&#x15b;" horiz-adv-x="563" 
d="M108.5 33q-73.5 47 -84.5 139h142q8 -36 41 -57t83 -21q37 0 66 11.5t29 37.5q0 20 -20 28.5t-76 18.5l-29 6q-69 14 -113.5 30t-73 47.5t-29.5 82.5q0 55 33.5 90.5t87 51.5t112.5 16q99 0 169 -44t81 -137h-142q-10 34 -43 51.5t-77 17.5q-32 0 -57.5 -10.5
t-25.5 -34.5q0 -22 22.5 -31t81.5 -21q8 -1 26 -5q69 -14 114.5 -30t73.5 -45.5t28 -77.5q0 -77 -68.5 -119t-170.5 -42q-107 0 -180.5 47zM281 745h136l-67 -160h-135z" />
    <glyph glyph-name="Scedilla" unicode="&#x15e;" horiz-adv-x="706" 
d="M132.5 50.5q-90.5 65.5 -101.5 191.5h159q11 -59 56 -91.5t115 -32.5q63 0 100.5 18.5t37.5 54.5q0 28 -17.5 43.5t-49 25t-99.5 23.5q-87 18 -145.5 39.5t-99 65.5t-40.5 116q0 71 41.5 118.5t109 70t146.5 22.5q82 0 151.5 -26.5t115.5 -82.5t55 -141h-167
q-10 56 -53 85.5t-107 29.5q-51 0 -88.5 -18.5t-37.5 -55.5q0 -27 20 -43.5t51 -25t98 -22.5q88 -19 147.5 -42t97.5 -66t38 -113q0 -64 -36 -111t-104.5 -72.5t-164.5 -25.5q-138 0 -228.5 65.5zM356 -245h-136l67 160h135z" />
    <glyph glyph-name="scedilla" unicode="&#x15f;" horiz-adv-x="563" 
d="M108.5 33q-73.5 47 -84.5 139h142q8 -36 41 -57t83 -21q37 0 66 11.5t29 37.5q0 20 -20 28.5t-76 18.5l-29 6q-69 14 -113.5 30t-73 47.5t-29.5 82.5q0 55 33.5 90.5t87 51.5t112.5 16q99 0 169 -44t81 -137h-142q-10 34 -43 51.5t-77 17.5q-32 0 -57.5 -10.5
t-25.5 -34.5q0 -22 22.5 -31t81.5 -21q8 -1 26 -5q69 -14 114.5 -30t73.5 -45.5t28 -77.5q0 -77 -68.5 -119t-170.5 -42q-107 0 -180.5 47zM297 -245h-136l67 160h135z" />
    <glyph glyph-name="Scaron" unicode="&#x160;" horiz-adv-x="706" 
d="M132.5 50.5q-90.5 65.5 -101.5 191.5h159q11 -59 56 -91.5t115 -32.5q63 0 100.5 18.5t37.5 54.5q0 28 -17.5 43.5t-49 25t-99.5 23.5q-87 18 -145.5 39.5t-99 65.5t-40.5 116q0 71 41.5 118.5t109 70t146.5 22.5q82 0 151.5 -26.5t115.5 -82.5t55 -141h-167
q-10 56 -53 85.5t-107 29.5q-51 0 -88.5 -18.5t-37.5 -55.5q0 -27 20 -43.5t51 -25t98 -22.5q88 -19 147.5 -42t97.5 -66t38 -113q0 -64 -36 -111t-104.5 -72.5t-164.5 -25.5q-138 0 -228.5 65.5zM287 945l56 -81l56 81h131l-114 -160h-146l-114 160h131z" />
    <glyph glyph-name="scaron" unicode="&#x161;" horiz-adv-x="563" 
d="M108.5 33q-73.5 47 -84.5 139h142q8 -36 41 -57t83 -21q37 0 66 11.5t29 37.5q0 20 -20 28.5t-76 18.5l-29 6q-69 14 -113.5 30t-73 47.5t-29.5 82.5q0 55 33.5 90.5t87 51.5t112.5 16q99 0 169 -44t81 -137h-142q-10 34 -43 51.5t-77 17.5q-32 0 -57.5 -10.5
t-25.5 -34.5q0 -22 22.5 -31t81.5 -21q8 -1 26 -5q69 -14 114.5 -30t73.5 -45.5t28 -77.5q0 -77 -68.5 -119t-170.5 -42q-107 0 -180.5 47zM217 745l56 -81l56 81h131l-114 -160h-146l-114 160h131z" />
    <glyph glyph-name="uni0162" unicode="&#x162;" horiz-adv-x="717" 
d="M279 547h-252v153h663v-153h-251v-547h-160v547zM360 -245h-136l67 160h135z" />
    <glyph glyph-name="uni0163" unicode="&#x163;" horiz-adv-x="487" 
d="M129 157v217h-113v126h62q30 0 46 16t16 47v57h128v-120h180v-126h-180v-190q0 -36 17 -51t57 -15q53 0 106 10v-125q-71 -13 -127 -13q-192 0 -192 167zM314 -245h-136l67 160h135z" />
    <glyph glyph-name="Tcaron" unicode="&#x164;" horiz-adv-x="717" 
d="M279 547h-252v153h663v-153h-251v-547h-160v547zM302 945l56 -81l56 81h131l-114 -160h-146l-114 160h131z" />
    <glyph glyph-name="tcaron" unicode="&#x165;" horiz-adv-x="487" 
d="M129 157v217h-113v126h62q30 0 46 16t16 47v57h128v-120h180v-126h-180v-190q0 -36 17 -51t57 -15q53 0 106 10v-125q-71 -13 -127 -13q-192 0 -192 167zM331 700h125l-8 -160h-117v160z" />
    <glyph glyph-name="Tbar" unicode="&#x166;" horiz-adv-x="717" 
d="M439 547v-170h121v-110h-121v-267h-160v267h-121v110h121v170h-252v153h663v-153h-251z" />
    <glyph glyph-name="tbar" unicode="&#x167;" horiz-adv-x="488" 
d="M268 304h180v-99h-180v-26q1 -34 18 -47.5t56 -13.5q53 0 106 10v-125q-71 -13 -127 -13q-192 0 -192 167v48h-113v99h113v83h-113v113h62q30 0 46 16t16 47v57h128v-120h180v-113h-180v-83z" />
    <glyph glyph-name="Umacron" unicode="&#x16a;" horiz-adv-x="817" 
d="M238.5 25q-73.5 40 -113.5 112.5t-40 169.5v393h160v-387q0 -83 43 -129.5t121 -46.5t120.5 46.5t42.5 129.5v387h160v-393q0 -97 -40 -169.5t-113 -112.5t-170 -40t-170.5 40zM569 923v-106h-320v106h320z" />
    <glyph glyph-name="umacron" unicode="&#x16b;" horiz-adv-x="660" 
d="M176.5 18q-49.5 28 -77 79.5t-27.5 119.5v283h140l1 -261q0 -55 28.5 -87.5t77.5 -32.5q52 0 86 34t34 86v261h139v-500h-127v57q-30 -32 -71 -49.5t-90 -17.5q-64 0 -113.5 28zM479 723v-106h-320v106h320z" />
    <glyph glyph-name="Uring" unicode="&#x16e;" horiz-adv-x="817" 
d="M238.5 25q-73.5 40 -113.5 112.5t-40 169.5v393h160v-387q0 -83 43 -129.5t121 -46.5t120.5 46.5t42.5 129.5v387h160v-393q0 -97 -40 -169.5t-113 -112.5t-170 -40t-170.5 40zM339.5 772.5q-31.5 18.5 -50 50t-18.5 68.5t18.5 69t50 50.5t68.5 18.5q38 0 70 -18.5
t50.5 -50.5t18.5 -69t-18.5 -68.5t-50.5 -50t-70 -18.5q-37 0 -68.5 18.5zM441 860q13 13 13 32q0 18 -13 31t-32 13t-32 -13t-13 -31q0 -19 13 -32t32 -13t32 13z" />
    <glyph glyph-name="uring" unicode="&#x16f;" horiz-adv-x="660" 
d="M176.5 18q-49.5 28 -77 79.5t-27.5 119.5v283h140l1 -261q0 -55 28.5 -87.5t77.5 -32.5q52 0 86 34t34 86v261h139v-500h-127v57q-30 -32 -71 -49.5t-90 -17.5q-64 0 -113.5 28zM249.5 572.5q-31.5 18.5 -50 50t-18.5 68.5t18.5 69t50 50.5t68.5 18.5q38 0 70 -18.5
t50.5 -50.5t18.5 -69t-18.5 -68.5t-50.5 -50t-70 -18.5q-37 0 -68.5 18.5zM351 660q13 13 13 32q0 18 -13 31t-32 13t-32 -13t-13 -31q0 -19 13 -32t32 -13t32 13z" />
    <glyph glyph-name="Uhungarumlaut" unicode="&#x170;" horiz-adv-x="817" 
d="M238.5 25q-73.5 40 -113.5 112.5t-40 169.5v393h160v-387q0 -83 43 -129.5t121 -46.5t120.5 46.5t42.5 129.5v387h160v-393q0 -97 -40 -169.5t-113 -112.5t-170 -40t-170.5 40zM447 945l-60 -160h-121l59 160h122zM624 945l-60 -160h-121l59 160h122z" />
    <glyph glyph-name="uhungarumlaut" unicode="&#x171;" horiz-adv-x="660" 
d="M176.5 18q-49.5 28 -77 79.5t-27.5 119.5v283h140l1 -261q0 -55 28.5 -87.5t77.5 -32.5q52 0 86 34t34 86v261h139v-500h-127v57q-30 -32 -71 -49.5t-90 -17.5q-64 0 -113.5 28zM357 745l-60 -160h-121l59 160h122zM534 745l-60 -160h-121l59 160h122z" />
    <glyph glyph-name="Uogonek" unicode="&#x172;" horiz-adv-x="817" 
d="M238.5 25q-73.5 40 -113.5 112.5t-40 169.5v393h160v-387q0 -83 43 -129.5t121 -46.5t120.5 46.5t42.5 129.5v387h160v-393q0 -97 -40 -169.5t-113 -112.5t-170 -40t-170.5 40zM616 -245h-135l67 160h134z" />
    <glyph glyph-name="uogonek" unicode="&#x173;" horiz-adv-x="660" 
d="M176.5 18q-49.5 28 -77 79.5t-27.5 119.5v283h140l1 -261q0 -55 28.5 -87.5t77.5 -32.5q52 0 86 34t34 86v261h139v-500h-127v57q-30 -32 -71 -49.5t-90 -17.5q-64 0 -113.5 28zM516 -245h-135l67 160h134z" />
    <glyph glyph-name="Wcircumflex" unicode="&#x174;" horiz-adv-x="1060" 
d="M33 700h165l125 -520l128 520h162l127 -519l125 519h162l-171 -700h-206l-121 491l-120 -491h-205zM586 785l-56 81l-56 -81h-131l114 160h146l114 -160h-131z" />
    <glyph glyph-name="wcircumflex" unicode="&#x175;" horiz-adv-x="824" 
d="M21 500h138l90 -355l93 355h144l92 -352l88 352h137l-127 -500h-172l-92 348l-92 -348h-172zM468 585l-56 81l-56 -81h-131l114 160h146l114 -160h-131z" />
    <glyph glyph-name="Ycircumflex" unicode="&#x176;" horiz-adv-x="751" 
d="M296 245l-291 455h188l188 -301l184 301h181l-290 -455v-245h-160v245zM432 785l-56 81l-56 -81h-131l114 160h146l114 -160h-131z" />
    <glyph glyph-name="ycircumflex" unicode="&#x177;" horiz-adv-x="600" 
d="M115.5 -189q-43.5 21 -70.5 65.5t-27 111.5v26h129v-37q0 -32 18.5 -51t45.5 -19q26 0 42 16.5t16 42.5v6q0 18 -2 30t-9 24l-250 474h157l151 -307q2 -4 4 -9.5t3 -10.5q1 4 5 17l121 310h144l-180 -432q-7 -17 -9.5 -30t-2.5 -34v-34q0 -56 -25.5 -96.5t-69 -62
t-96.5 -21.5q-51 0 -94.5 21zM361 585l-56 81l-56 -81h-131l114 160h146l114 -160h-131z" />
    <glyph glyph-name="Ydieresis" unicode="&#x178;" horiz-adv-x="751" 
d="M296 245l-291 455h188l188 -301l184 301h181l-290 -455v-245h-160v245zM544 945l-80 -188h-10l-78 183l-79 -183h-9l-80 188h336z" />
    <glyph glyph-name="Zacute" unicode="&#x179;" horiz-adv-x="693" 
d="M50 132l377 421h-363v147h571v-132l-377 -421h381v-147h-589v132zM379 945h136l-67 -160h-135z" />
    <glyph glyph-name="zacute" unicode="&#x17a;" horiz-adv-x="545" 
d="M44 108l272 266h-260v126h442v-107l-271 -267h272v-126h-455v108zM308 745h136l-67 -160h-135z" />
    <glyph glyph-name="Zdotaccent" unicode="&#x17b;" horiz-adv-x="693" 
d="M50 132l377 421h-363v147h571v-132l-377 -421h381v-147h-589v132zM276 945h190l-90 -188h-10z" />
    <glyph glyph-name="zdotaccent" unicode="&#x17c;" horiz-adv-x="545" 
d="M44 108l272 266h-260v126h442v-107l-271 -267h272v-126h-455v108zM205 745h190l-90 -188h-10z" />
    <glyph glyph-name="Zcaron" unicode="&#x17d;" horiz-adv-x="693" 
d="M50 132l377 421h-363v147h571v-132l-377 -421h381v-147h-589v132zM315 945l56 -81l56 81h131l-114 -160h-146l-114 160h131z" />
    <glyph glyph-name="zcaron" unicode="&#x17e;" horiz-adv-x="545" 
d="M44 108l272 266h-260v126h442v-107l-271 -267h272v-126h-455v108zM244 745l56 -81l56 81h131l-114 -160h-146l-114 160h131z" />
    <glyph glyph-name="uni01D0" unicode="&#x1d0;" horiz-adv-x="303" 
d="M82 500h139v-500h-139v500zM96 745l56 -81l56 81h131l-114 -160h-146l-114 160h131z" />
    <glyph glyph-name="uni0218" unicode="&#x218;" horiz-adv-x="706" 
d="M132.5 50.5q-90.5 65.5 -101.5 191.5h159q11 -59 56 -91.5t115 -32.5q63 0 100.5 18.5t37.5 54.5q0 28 -17.5 43.5t-49 25t-99.5 23.5q-87 18 -145.5 39.5t-99 65.5t-40.5 116q0 71 41.5 118.5t109 70t146.5 22.5q82 0 151.5 -26.5t115.5 -82.5t55 -141h-167
q-10 56 -53 85.5t-107 29.5q-51 0 -88.5 -18.5t-37.5 -55.5q0 -27 20 -43.5t51 -25t98 -22.5q88 -19 147.5 -42t97.5 -66t38 -113q0 -64 -36 -111t-104.5 -72.5t-164.5 -25.5q-138 0 -228.5 65.5zM315 -215q10 18 12 29q-27 2 -42.5 19.5t-15.5 38.5q0 27 24 47t61 20
q38 0 63 -19t25 -54q0 -31 -21 -61t-51 -50h-75q10 12 20 30z" />
    <glyph glyph-name="uni0219" unicode="&#x219;" horiz-adv-x="563" 
d="M108.5 33q-73.5 47 -84.5 139h142q8 -36 41 -57t83 -21q37 0 66 11.5t29 37.5q0 20 -20 28.5t-76 18.5l-29 6q-69 14 -113.5 30t-73 47.5t-29.5 82.5q0 55 33.5 90.5t87 51.5t112.5 16q99 0 169 -44t81 -137h-142q-10 34 -43 51.5t-77 17.5q-32 0 -57.5 -10.5
t-25.5 -34.5q0 -22 22.5 -31t81.5 -21q8 -1 26 -5q69 -14 114.5 -30t73.5 -45.5t28 -77.5q0 -77 -68.5 -119t-170.5 -42q-107 0 -180.5 47zM256 -215q10 18 12 29q-27 2 -42.5 19.5t-15.5 38.5q0 27 24 47t61 20q38 0 63 -19t25 -54q0 -31 -21 -61t-51 -50h-75q10 12 20 30z
" />
    <glyph glyph-name="uni021A" unicode="&#x21a;" horiz-adv-x="717" 
d="M279 547h-252v153h663v-153h-251v-547h-160v547zM319 -215q10 18 12 29q-27 2 -42.5 19.5t-15.5 38.5q0 27 24 47t61 20q38 0 63 -19t25 -54q0 -31 -21 -61t-51 -50h-75q10 12 20 30z" />
    <glyph glyph-name="uni021B" unicode="&#x21b;" horiz-adv-x="487" 
d="M129 157v217h-113v126h62q30 0 46 16t16 47v57h128v-120h180v-126h-180v-190q0 -36 17 -51t57 -15q53 0 106 10v-125q-71 -13 -127 -13q-192 0 -192 167zM273 -215q10 18 12 29q-27 2 -42.5 19.5t-15.5 38.5q0 27 24 47t61 20q38 0 63 -19t25 -54q0 -31 -21 -61t-51 -50
h-75q10 12 20 30z" />
    <glyph glyph-name="uni0237" unicode="&#x237;" horiz-adv-x="303" 
d="M-82.5 -190q-44.5 20 -69 55t-24.5 78h134v-1q0 -20 16.5 -31t45.5 -11q78 0 78 90q0 15 -3 34q-5 48 -5 72v404h139v-489q0 -109 -54 -165t-155 -56q-58 0 -102.5 20z" />
    <glyph glyph-name="uni02BC" unicode="&#x2bc;" horiz-adv-x="248" 
d="M103 531h-1q-36 10 -53.5 34t-17.5 55q0 38 26 67t68 29q40 0 68.5 -26t28.5 -73q0 -44 -24.5 -97.5t-57.5 -82.5h-77q28 43 40 94z" />
    <glyph glyph-name="gravecomb" unicode="&#x300;" horiz-adv-x="0" 
d="M-376 585l-67 160h135l66 -160h-134z" />
    <glyph glyph-name="acutecomb" unicode="&#x301;" horiz-adv-x="0" 
d="M-292 745h136l-67 -160h-135z" />
    <glyph glyph-name="uni0302" unicode="&#x302;" horiz-adv-x="0" 
d="M-244 585l-56 81l-56 -81h-131l114 160h146l114 -160h-131z" />
    <glyph glyph-name="tildecomb" unicode="&#x303;" horiz-adv-x="0" 
d="M-468 702q30 36 83 36q25 0 45.5 -7t44.5 -19q14 -7 27 -12t23 -5q15 0 24 10.5t9 30.5h110q0 -76 -30 -112t-83 -36q-25 0 -46 7t-44 20q-14 7 -27 12t-23 5q-15 0 -24 -10.5t-9 -30.5h-110q0 75 30 111z" />
    <glyph glyph-name="uni0304" unicode="&#x304;" horiz-adv-x="0" 
d="M-140 723v-106h-320v106h320z" />
    <glyph glyph-name="uni0306" unicode="&#x306;" horiz-adv-x="0" 
d="M-404.5 577.5q-45.5 23.5 -70.5 65.5t-25 94v8h115v-7q0 -35 23.5 -57.5t61.5 -22.5t61.5 22.5t23.5 57.5v7h115v-8q0 -52 -25 -94t-70.5 -65.5t-104.5 -23.5t-104.5 23.5z" />
    <glyph glyph-name="uni0307" unicode="&#x307;" horiz-adv-x="0" 
d="M-395 745h190l-90 -188h-10z" />
    <glyph glyph-name="uni0308" unicode="&#x308;" horiz-adv-x="0" 
d="M-132 745l-80 -188h-10l-78 183l-79 -183h-9l-80 188h336z" />
    <glyph glyph-name="uni030A" unicode="&#x30a;" horiz-adv-x="0" 
d="M-369.5 572.5q-31.5 18.5 -50 50t-18.5 68.5t18.5 69t50 50.5t68.5 18.5q38 0 70 -18.5t50.5 -50.5t18.5 -69t-18.5 -68.5t-50.5 -50t-70 -18.5q-37 0 -68.5 18.5zM-268 660q13 13 13 32q0 18 -13 31t-32 13t-32 -13t-13 -31q0 -19 13 -32t32 -13t32 13z" />
    <glyph glyph-name="uni030B" unicode="&#x30b;" horiz-adv-x="0" 
d="M-262 745l-60 -160h-121l59 160h122zM-85 745l-60 -160h-121l59 160h122z" />
    <glyph glyph-name="uni030C" unicode="&#x30c;" horiz-adv-x="0" 
d="M-356 745l56 -81l56 81h131l-114 -160h-146l-114 160h131z" />
    <glyph glyph-name="uni0312" unicode="&#x312;" horiz-adv-x="0" 
d="M-261 721q-10 -18 -12 -29q27 -2 42.5 -19.5t15.5 -38.5q0 -27 -24 -47t-61 -20q-38 0 -63 19t-25 54q0 31 21 61t51 50h75q-10 -12 -20 -30z" />
    <glyph glyph-name="uni0326" unicode="&#x326;" horiz-adv-x="0" 
d="M-339 -215q10 18 12 29q-27 2 -42.5 19.5t-15.5 38.5q0 27 24 47t61 20q38 0 63 -19t25 -54q0 -31 -21 -61t-51 -50h-75q10 12 20 30z" />
    <glyph glyph-name="uni0327" unicode="&#x327;" horiz-adv-x="0" 
d="M-298 -245h-136l67 160h135z" />
    <glyph glyph-name="uni0328" unicode="&#x328;" horiz-adv-x="0" 
d="M-362 -245h-135l67 160h134z" />
    <glyph glyph-name="uni0335" unicode="&#x335;" horiz-adv-x="0" 
d="M-124 648v-96h-351v96h351z" />
    <glyph glyph-name="uni0401" unicode="&#x401;" horiz-adv-x="658" 
d="M98 700h483v-140h-326v-143h222v-134h-222v-143h355v-140h-512v700zM505 945l-80 -188h-10l-78 183l-79 -183h-9l-80 188h336z" />
    <glyph glyph-name="uni0404" unicode="&#x404;" horiz-adv-x="794" 
d="M224 32.5q-82 47.5 -128.5 130.5t-46.5 187t46.5 187.5t128.5 130.5t184 47q93 0 168.5 -38t122.5 -106t55 -154h-160q-14 70 -65 111.5t-124 41.5t-126 -43t-67 -113h240v-128h-240q14 -70 67 -113t126 -43t124 41.5t65 111.5h159q-8 -86 -54.5 -154t-122 -106
t-168.5 -38q-102 0 -184 47.5z" />
    <glyph glyph-name="uni0406" unicode="&#x406;" horiz-adv-x="356" 
d="M98 700h160v-700h-160v700z" />
    <glyph glyph-name="uni0407" unicode="&#x407;" horiz-adv-x="356" 
d="M98 700h160v-700h-160v700zM346 945l-80 -188h-10l-78 183l-79 -183h-9l-80 188h336z" />
    <glyph glyph-name="uni040E" unicode="&#x40e;" horiz-adv-x="733" 
d="M179.5 12.5q-52.5 27.5 -82 77.5t-29.5 114v36h157v-39q0 -36 19.5 -58.5t51.5 -22.5q25 0 40 13t15 36q0 28 -18 56l-313 475h191l210 -350q11 -18 16 -35l115 385h164l-174 -509q-36 -104 -95 -155t-149 -51q-66 0 -118.5 27.5zM274.5 777.5q-45.5 23.5 -70.5 65.5
t-25 94v8h115v-7q0 -35 23.5 -57.5t61.5 -22.5t61.5 22.5t23.5 57.5v7h115v-8q0 -52 -25 -94t-70.5 -65.5t-104.5 -23.5t-104.5 23.5z" />
    <glyph glyph-name="uni0410" unicode="&#x410;" horiz-adv-x="773" 
d="M282 700h209l265 -700h-171l-52 147h-297l-52 -147h-167zM489 275l-102 287h-6l-102 -287h210z" />
    <glyph glyph-name="uni0411" unicode="&#x411;" horiz-adv-x="719" 
d="M625 700v-140h-374v-137h170q117 0 185 -56.5t68 -154.5t-68 -155t-185 -57h-323v700h527zM485.5 153.5q28.5 22.5 28.5 60.5t-28 60t-77 22h-158v-165h158q48 0 76.5 22.5z" />
    <glyph glyph-name="uni0412" unicode="&#x412;" horiz-adv-x="736" 
d="M427 700q113 0 178 -51t65 -139q0 -96 -76 -146v-7q47 -25 72.5 -66.5t25.5 -94.5q0 -58 -30 -102.5t-85 -69t-127 -24.5h-352v700h329zM487.5 437.5q24.5 20.5 24.5 54.5t-24.5 54.5t-66.5 20.5h-168v-150h168q42 0 66.5 20.5zM507 154q25 21 25 56t-25.5 56t-67.5 21
h-186v-154h186q43 0 68 21z" />
    <glyph glyph-name="uni0413" unicode="&#x413;" horiz-adv-x="624" 
d="M98 700h504v-152h-344v-548h-160v700z" />
    <glyph glyph-name="uni0414" unicode="&#x414;" horiz-adv-x="827" 
d="M100 151q17 84 24.5 172.5t7.5 218.5v35v123h564v-549h96v-297h-153v146h-467v-146h-153v297h81zM539 557h-250v-35q-1 -119 -9 -206t-26 -170h285v411z" />
    <glyph glyph-name="uni0415" unicode="&#x415;" horiz-adv-x="658" 
d="M98 700h483v-140h-326v-143h222v-134h-222v-143h355v-140h-512v700z" />
    <glyph glyph-name="uni0416" unicode="&#x416;" horiz-adv-x="1126" 
d="M244 362l-213 338h175l175 -274h102v274h160v-274h103l175 274h174l-214 -338l229 -362h-189l-174 274h-104v-274h-160v274h-104l-175 -274h-188z" />
    <glyph glyph-name="uni0417" unicode="&#x417;" horiz-adv-x="717" 
d="M209.5 17.5q-75.5 32.5 -123 98t-53.5 158.5h156q9 -71 56.5 -111.5t126.5 -40.5q66 0 105.5 24t39.5 66q0 36 -29.5 56.5t-82.5 20.5h-90v124h90q43 0 69 20.5t26 54.5q0 40 -37 64t-97 24q-68 0 -113 -33.5t-55 -92.5h-156q12 88 59 147.5t117.5 88.5t153.5 29
q79 0 145 -25.5t104.5 -73t38.5 -111.5q0 -48 -22 -85.5t-62 -61.5q48 -24 75 -64.5t27 -93.5q0 -65 -39.5 -114t-108 -75t-154.5 -26q-91 0 -166.5 32.5z" />
    <glyph glyph-name="uni0418" unicode="&#x418;" horiz-adv-x="840" 
d="M98 700h158v-462l318 462h168v-700h-158v464l-319 -464h-167v700z" />
    <glyph glyph-name="uni0419" unicode="&#x419;" horiz-adv-x="840" 
d="M98 700h158v-462l318 462h168v-700h-158v464l-319 -464h-167v700zM315.5 777.5q-45.5 23.5 -70.5 65.5t-25 94v8h115v-7q0 -35 23.5 -57.5t61.5 -22.5t61.5 22.5t23.5 57.5v7h115v-8q0 -52 -25 -94t-70.5 -65.5t-104.5 -23.5t-104.5 23.5z" />
    <glyph glyph-name="uni041A" unicode="&#x41a;" horiz-adv-x="758" 
d="M98 700h159v-274h105l188 274h176l-230 -337l247 -363h-194l-188 274h-104v-274h-159v700z" />
    <glyph glyph-name="uni041B" unicode="&#x41b;" horiz-adv-x="812" 
d="M15 0v154q38 -5 69 -5q38 0 51 50q25 88 25 389v112h554v-700h-160v546h-241v-29q-2 -337 -52 -437q-24 -47 -62 -70.5t-95 -23.5q-50 0 -89 14z" />
    <glyph glyph-name="uni041C" unicode="&#x41c;" horiz-adv-x="1050" 
d="M98 700h267l162 -508l161 508h264v-700h-156v573l-180 -573h-183l-179 573v-573h-156v700z" />
    <glyph glyph-name="uni041D" unicode="&#x41d;" horiz-adv-x="820" 
d="M98 700h160v-274h304v274h160v-700h-160v274h-304v-274h-160v700z" />
    <glyph glyph-name="uni041E" unicode="&#x41e;" horiz-adv-x="832" 
d="M228.5 32.5q-83.5 47.5 -131.5 131t-48 186.5t48 186.5t131.5 131t187.5 47.5t187.5 -47.5t131.5 -131t48 -186.5t-48 -186.5t-131.5 -131t-187.5 -47.5t-187.5 47.5zM520.5 165.5q46.5 27.5 73 76t26.5 108.5t-26.5 108.5t-73 76t-104.5 27.5t-104.5 -27.5t-73 -76
t-26.5 -108.5t26.5 -108.5t73 -76t104.5 -27.5t104.5 27.5z" />
    <glyph glyph-name="uni041F" unicode="&#x41f;" horiz-adv-x="820" 
d="M98 700h624v-700h-160v548h-304v-548h-160v700z" />
    <glyph glyph-name="uni0420" unicode="&#x420;" horiz-adv-x="693" 
d="M377 700q129 0 203 -61t74 -167t-74 -167t-203 -61h-121v-244h-158v700h279zM463 397q31 26 31 70t-31 70t-84 26h-123v-192h123q53 0 84 26z" />
    <glyph glyph-name="uni0421" unicode="&#x421;" horiz-adv-x="792" 
d="M224.5 32q-82.5 47 -129 130.5t-46.5 188.5q0 104 46.5 187t128.5 130t186 47q92 0 167.5 -39t122 -107.5t53.5 -154.5h-162q-14 67 -63.5 107.5t-118.5 40.5q-57 0 -101.5 -27t-69.5 -75.5t-25 -109.5t25 -109.5t69.5 -75.5t101.5 -27q70 0 119 40.5t63 107.5h162
q-8 -87 -54.5 -155.5t-122 -107t-166.5 -38.5q-103 0 -185.5 47z" />
    <glyph glyph-name="uni0422" unicode="&#x422;" horiz-adv-x="717" 
d="M279 547h-252v153h663v-153h-251v-547h-160v547z" />
    <glyph glyph-name="uni0423" unicode="&#x423;" horiz-adv-x="733" 
d="M179.5 12.5q-52.5 27.5 -82 77.5t-29.5 114v36h157v-39q0 -36 19.5 -58.5t51.5 -22.5q25 0 40 13t15 36q0 28 -18 56l-313 475h191l210 -350q11 -18 16 -35l115 385h164l-174 -509q-36 -104 -95 -155t-149 -51q-66 0 -118.5 27.5z" />
    <glyph glyph-name="uni0424" unicode="&#x424;" horiz-adv-x="1036" 
d="M362 87q-97 0 -168.5 33t-110 94t-38.5 143t38.5 142.5t110 93.5t168.5 33h76v84h160v-84h76q97 0 168.5 -33t110 -93.5t38.5 -142.5t-38.5 -143t-110 -94t-168.5 -33h-76v-87h-160v87h-76zM438 486h-75q-75 0 -114.5 -33.5t-39.5 -95.5q0 -63 39.5 -96.5t114.5 -33.5h75
v259zM788 260.5q40 33.5 40 96.5q0 62 -40 95.5t-115 33.5h-75v-259h75q75 0 115 33.5z" />
    <glyph glyph-name="uni0425" unicode="&#x425;" horiz-adv-x="751" 
d="M265 358l-240 342h188l165 -235l165 235h183l-242 -340l253 -360h-190l-173 247l-176 -247h-183z" />
    <glyph glyph-name="uni0426" unicode="&#x426;" horiz-adv-x="842" 
d="M654 0h-556v700h160v-549h304v549h160v-549h85v-297h-153v146z" />
    <glyph glyph-name="uni0427" unicode="&#x427;" horiz-adv-x="762" 
d="M341 245q-127 0 -199.5 61t-72.5 167v227h160v-218q0 -41 27.5 -65t84.5 -24h163v307h160v-700h-160v245h-163z" />
    <glyph glyph-name="uni0428" unicode="&#x428;" horiz-adv-x="1142" 
d="M98 700h160v-549h233v549h160v-549h233v549h160v-700h-946v700z" />
    <glyph glyph-name="uni0429" unicode="&#x429;" horiz-adv-x="1168" 
d="M980 0h-882v700h160v-549h233v549h160v-549h233v549h160v-549h89v-297h-153v146z" />
    <glyph glyph-name="uni042A" unicode="&#x42a;" horiz-adv-x="814" 
d="M697 395q73 -61 73 -167t-73 -167t-199 -61h-286v548h-185v152h342v-244h129q126 0 199 -61zM579 164q31 26 31 70t-31 69.5t-83 25.5h-127v-191h127q52 0 83 26z" />
    <glyph glyph-name="uni042B" unicode="&#x42b;" horiz-adv-x="1029" 
d="M255 700v-244h129q126 0 199 -61t73 -167t-73 -167t-199 -61h-286v700h157zM465 164q31 26 31 70t-31 69.5t-83 25.5h-127v-191h127q52 0 83 26zM771 700h160v-700h-160v700z" />
    <glyph glyph-name="uni042C" unicode="&#x42c;" 
d="M255 700v-244h129q126 0 199 -61t73 -167t-73 -167t-199 -61h-286v700h157zM465 164q31 26 31 70t-31 69.5t-83 25.5h-127v-191h127q52 0 83 26z" />
    <glyph glyph-name="uni042D" unicode="&#x42d;" horiz-adv-x="787" 
d="M212 23q-76 38 -123.5 106t-55.5 154h157q14 -70 65 -112t122 -42q73 0 126 43t67 114h-235v128h235q-14 71 -66.5 114t-125.5 43q-72 0 -123 -42t-65 -112h-157q8 86 56 154t124 106t165 38q102 0 184.5 -47t129 -130t46.5 -187t-46.5 -187.5t-129 -131t-184.5 -47.5
q-90 0 -166 38z" />
    <glyph glyph-name="uni042E" unicode="&#x42e;" horiz-adv-x="1145" 
d="M571.5 21.5q-74.5 36.5 -123.5 102t-65 149.5h-125v-273h-160v700h160v-273h125q16 84 65 149.5t123.5 102t163.5 36.5q102 0 184.5 -47.5t129.5 -131t47 -186.5t-47 -186.5t-129.5 -131t-184.5 -47.5q-89 0 -163.5 36.5zM836.5 165.5q45.5 27.5 71 76t25.5 108.5
t-25.5 108.5t-71 76t-101.5 27.5t-101 -27.5t-71 -76t-26 -108.5t26 -108.5t71 -76t101 -27.5t101.5 27.5z" />
    <glyph glyph-name="uni042F" unicode="&#x42f;" horiz-adv-x="740" 
d="M100 350q-36 52 -36 125q0 105 74.5 165t203.5 60h300v-700h-158v248h-118l-173 -248h-180l190 272q-67 26 -103 78zM484 560h-147q-52 0 -82.5 -25t-30.5 -67q0 -41 31 -66.5t82 -25.5h147v184z" />
    <glyph glyph-name="uni0430" unicode="&#x430;" horiz-adv-x="605" 
d="M79 27q-46 38 -46 103q0 148 252 163q52 4 74 14t22 30q0 27 -26 44.5t-66 17.5q-41 0 -68.5 -19t-35.5 -54h-130q12 84 77 134t163 50q100 0 159.5 -55.5t59.5 -148.5v-184h58v-122l-174 -1v63q-32 -34 -83.5 -53.5t-109.5 -19.5q-80 0 -126 38zM311.5 114
q34.5 18 55 48t20.5 64v6q-9 -7 -35.5 -14t-59.5 -10q-63 -5 -90.5 -20.5t-27.5 -43.5q0 -23 16.5 -35.5t47.5 -12.5q39 0 73.5 18z" />
    <glyph glyph-name="uni0431" unicode="&#x431;" horiz-adv-x="638" 
d="M186 22.5q-64 32.5 -101 96.5t-37 155v95q0 92 36.5 157t98 98t137.5 33h100v53h125v-177h-234q-68 0 -104.5 -32.5t-36.5 -94.5v-23q31 38 79 58t105 20q69 0 124.5 -30t87 -82t31.5 -116q0 -69 -34.5 -124.5t-95.5 -87t-136 -31.5q-81 0 -145 32.5zM417 142
q38 34 38 86t-38 86.5t-94 34.5t-94 -34.5t-38 -86.5t38 -86t94 -34t94 34z" />
    <glyph glyph-name="uni0432" unicode="&#x432;" horiz-adv-x="593" 
d="M362 500q83 0 130 -35t47 -96q0 -36 -17 -63.5t-49 -43.5v-4q83 -35 83 -119q0 -65 -50.5 -102t-139.5 -37h-284v500h280zM382.5 311q18.5 14 18.5 37t-18 37t-48 14h-119v-102h117q31 0 49.5 14zM397.5 115q18.5 14 18.5 39q0 24 -19 38t-51 14h-130v-105h131
q32 0 50.5 14z" />
    <glyph glyph-name="uni0433" unicode="&#x433;" horiz-adv-x="494" 
d="M82 500h393v-131h-254v-369h-139v500z" />
    <glyph glyph-name="uni0434" unicode="&#x434;" horiz-adv-x="643" 
d="M76 124q10 55 14.5 115t4.5 148v51v62h446v-376h75v-233h-134v109h-333v-109h-133v233h60zM403 379h-175v-15q0 -136 -21 -243h196v258z" />
    <glyph glyph-name="uni0435" unicode="&#x435;" horiz-adv-x="608" 
d="M169 22.5q-62 32.5 -96.5 90.5t-34.5 133t36.5 135.5t99 94.5t137.5 34q74 0 134.5 -33t95 -92t34.5 -133q0 -21 -3 -42h-399q9 -46 47 -76.5t94 -30.5q35 0 63.5 13t42.5 35h139q-9 -43 -42 -79.5t-86.5 -59t-119.5 -22.5q-80 0 -142 32.5zM391.5 370.5
q-34.5 25.5 -83.5 25.5q-47 0 -83.5 -26t-48.5 -69h262q-12 44 -46.5 69.5z" />
    <glyph glyph-name="uni0436" unicode="&#x436;" horiz-adv-x="863" 
d="M182 257l-165 243h152l124 -186h69v396h139v-396h71l123 186h151l-165 -244l171 -256h-162l-123 186h-66v-186h-139v186h-66l-123 -186h-162z" />
    <glyph glyph-name="uni0437" unicode="&#x437;" horiz-adv-x="574" 
d="M166.5 9q-57.5 23 -96 70t-46.5 115h134q10 -45 44.5 -71t90.5 -26q49 0 77 16t28 43q0 22 -21.5 35t-61.5 13h-68v93h66q33 0 53.5 13.5t20.5 35.5q0 25 -27 41t-72 16q-52 0 -84.5 -25t-41.5 -71h-132q5 59 38 106t91 74t134 27q74 0 126.5 -21t79 -56t26.5 -77
q0 -32 -17 -58.5t-48 -44.5q39 -16 59.5 -45t20.5 -66q0 -49 -32.5 -85t-89 -55.5t-127.5 -19.5q-67 0 -124.5 23z" />
    <glyph glyph-name="uni0438" unicode="&#x438;" horiz-adv-x="670" 
d="M82 500h137v-312l226 312h143v-500h-138v312l-225 -312h-143v500z" />
    <glyph glyph-name="uni0439" unicode="&#x439;" horiz-adv-x="670" 
d="M82 500h137v-312l226 312h143v-500h-138v312l-225 -312h-143v500zM232.5 577.5q-45.5 23.5 -70.5 65.5t-25 94v8h115v-7q0 -35 23.5 -57.5t61.5 -22.5t61.5 22.5t23.5 57.5v7h115v-8q0 -52 -25 -94t-70.5 -65.5t-104.5 -23.5t-104.5 23.5z" />
    <glyph glyph-name="uni043A" unicode="&#x43a;" horiz-adv-x="600" 
d="M82 710h139v-395h65l137 185h154l-179 -241l189 -259h-166l-137 186h-63v-186h-139v710z" />
    <glyph glyph-name="uni043B" unicode="&#x43b;" horiz-adv-x="643" 
d="M12 1v125q22 -3 44 -3q34 0 46 29q20 51 20 266v82h439v-500h-139v371h-172v-21q-1 -113 -9 -184t-33 -113q-39 -62 -125 -62q-41 0 -71 10z" />
    <glyph glyph-name="uni043C" unicode="&#x43c;" horiz-adv-x="836" 
d="M82 500h221l117 -339l116 339h218v-500h-136v369l-130 -369h-139l-131 370v-370h-136v500z" />
    <glyph glyph-name="uni043D" unicode="&#x43d;" horiz-adv-x="654" 
d="M82 500h139v-186h212v186h139v-500h-139v186h-212v-186h-139v500z" />
    <glyph glyph-name="uni043E" unicode="&#x43e;" horiz-adv-x="623" 
d="M172 24q-63 34 -98.5 93.5t-35.5 132.5t35.5 132.5t98.5 93.5t140 34t140 -34t98.5 -93.5t35.5 -132.5t-36 -132.5t-98.5 -93.5t-139.5 -34t-140 34zM406.5 155q37.5 37 37.5 95t-37.5 95t-94.5 37q-58 0 -95 -37t-37 -95t37.5 -95t94.5 -37t94.5 37z" />
    <glyph glyph-name="uni043F" unicode="&#x43f;" horiz-adv-x="654" 
d="M82 500h490v-500h-139v371h-212v-371h-139v500z" />
    <glyph glyph-name="uni0440" unicode="&#x440;" horiz-adv-x="654" 
d="M209 500v-57q31 32 71 49.5t87 17.5q71 0 128 -34t89.5 -93t32.5 -133t-32.5 -133t-89.5 -93t-128 -34q-42 0 -79.5 15t-66.5 42v-247h-139v700h127zM438 156q37 38 37 94t-37 94t-92 38t-91.5 -38t-36.5 -94t36.5 -94t91.5 -38t92 38z" />
    <glyph glyph-name="uni0441" unicode="&#x441;" horiz-adv-x="598" 
d="M169.5 24q-61.5 34 -96.5 93t-35 133q0 73 35.5 132.5t97 93.5t137.5 34q68 0 123.5 -27.5t90 -75.5t40.5 -108h-138q-11 38 -42 61.5t-74 23.5q-57 0 -94 -38.5t-37 -95.5t37 -95.5t94 -38.5q43 0 74.5 24t41.5 62h138q-7 -60 -41.5 -108.5t-90 -76t-122.5 -27.5
q-77 0 -138.5 34z" />
    <glyph glyph-name="uni0442" unicode="&#x442;" horiz-adv-x="571" 
d="M216 369h-189v131h518v-131h-190v-369h-139v369z" />
    <glyph glyph-name="uni0443" unicode="&#x443;" horiz-adv-x="600" 
d="M115.5 -189q-43.5 21 -70.5 65.5t-27 111.5v26h129v-37q0 -32 18.5 -51t45.5 -19q26 0 42 16.5t16 42.5v6q0 18 -2 30t-9 24l-250 474h157l151 -307q2 -4 4 -9.5t3 -10.5q1 4 5 17l121 310h144l-180 -432q-7 -17 -9.5 -30t-2.5 -34v-34q0 -56 -25.5 -96.5t-69 -62
t-96.5 -21.5q-51 0 -94.5 21z" />
    <glyph glyph-name="uni0444" unicode="&#x444;" horiz-adv-x="938" 
d="M267 -10q-66 0 -118 33.5t-81.5 93t-29.5 133.5t29.5 133.5t81.5 93t118 33.5q79 0 132 -55v255h139v-256q54 56 134 56q65 0 117.5 -33.5t82 -93t29.5 -133.5t-29.5 -133.5t-82 -93t-117.5 -33.5q-80 0 -134 56v-246h-139v245q-53 -55 -132 -55zM373.5 156.5
q32.5 37.5 32.5 93.5q0 57 -32.5 94.5t-80.5 37.5t-80.5 -37.5t-32.5 -94.5q0 -56 32.5 -93.5t80.5 -37.5t80.5 37.5zM726 156.5q32 37.5 32 93.5q0 57 -32 94.5t-80 37.5q-49 0 -81.5 -37.5t-32.5 -94.5q0 -56 32.5 -93.5t81.5 -37.5q48 0 80 37.5z" />
    <glyph glyph-name="uni0445" unicode="&#x445;" horiz-adv-x="583" 
d="M200 254l-189 246h164l118 -153l120 153h159l-191 -242l199 -258h-163l-128 167l-129 -167h-157z" />
    <glyph glyph-name="uni0446" unicode="&#x446;" horiz-adv-x="672" 
d="M511 0h-429v500h139v-376h211v376h139v-376h74v-233h-134v109z" />
    <glyph glyph-name="uni0447" unicode="&#x447;" horiz-adv-x="595" 
d="M255 161q-97 0 -153 43.5t-56 118.5v177h139v-152q0 -30 19 -45t62 -15h108v212h139v-500h-139v161h-119z" />
    <glyph glyph-name="uni0448" unicode="&#x448;" horiz-adv-x="915" 
d="M82 500h139v-376h167v376h139v-376h167v376h139v-500h-751v500z" />
    <glyph glyph-name="uni0449" unicode="&#x449;" horiz-adv-x="929" 
d="M767 0h-692v500h139v-376h167v376h139v-376h167v376h139v-376h75v-233h-134v109z" />
    <glyph glyph-name="uni044A" unicode="&#x44a;" horiz-adv-x="660" 
d="M569.5 283q56.5 -44 56.5 -120t-56.5 -119.5t-154.5 -43.5h-239v372h-156v128h294l1 -173h100q98 0 154.5 -44zM465.5 123.5q19.5 15.5 19.5 41.5t-20 41.5t-53 15.5h-97l1 -114h96q34 0 53.5 15.5z" />
    <glyph glyph-name="uni044B" unicode="&#x44b;" horiz-adv-x="831" 
d="M220 500l1 -173h100q98 0 154.5 -44t56.5 -120t-56.5 -119.5t-154.5 -43.5h-239v500h138zM371.5 123.5q19.5 15.5 19.5 41.5t-20 41.5t-53 15.5h-97l1 -114h96q34 0 53.5 15.5zM610 500h139v-500h-139v500z" />
    <glyph glyph-name="uni044C" unicode="&#x44c;" horiz-adv-x="566" 
d="M220 500l1 -173h100q98 0 154.5 -44t56.5 -120t-56.5 -119.5t-154.5 -43.5h-239v500h138zM371.5 123.5q19.5 15.5 19.5 41.5t-20 41.5t-53 15.5h-97l1 -114h96q34 0 53.5 15.5z" />
    <glyph glyph-name="uni044D" unicode="&#x44d;" horiz-adv-x="607" 
d="M172 18q-57 28 -93.5 76.5t-43.5 107.5h132q11 -43 46.5 -69t90.5 -26q46 0 81 26.5t48 68.5h-162v96h162q-13 42 -48 68.5t-81 26.5q-54 0 -89.5 -26t-47.5 -68h-132q7 59 43.5 107t93.5 76t125 28q78 0 140 -33.5t97 -92.5t35 -134q0 -74 -35 -133.5t-97 -93
t-140 -33.5q-68 0 -125 28z" />
    <glyph glyph-name="uni044E" unicode="&#x44e;" horiz-adv-x="872" 
d="M401.5 44q-69.5 54 -89.5 142h-91v-186h-139v500h139v-186h91q20 88 90 142t165 54q76 0 137 -34t96 -93t35 -133t-35 -133t-96 -93t-137 -34q-96 0 -165.5 54zM657 157q36 38 36 93t-36 93.5t-89 38.5t-89 -38t-36 -94t36 -93.5t89 -37.5t89 38z" />
    <glyph glyph-name="uni044F" unicode="&#x44f;" horiz-adv-x="588" 
d="M70.5 241.5q-23.5 37.5 -23.5 86.5q0 80 59 126t163 46h237v-500h-138v156h-98l-104 -156h-157l129 183q-44 21 -67.5 58.5zM368 388h-104q-35 0 -56.5 -17.5t-21.5 -46.5t21.5 -46.5t56.5 -17.5h104v128z" />
    <glyph glyph-name="uni0451" unicode="&#x451;" horiz-adv-x="608" 
d="M169 22.5q-62 32.5 -96.5 90.5t-34.5 133t36.5 135.5t99 94.5t137.5 34q74 0 134.5 -33t95 -92t34.5 -133q0 -21 -3 -42h-399q9 -46 47 -76.5t94 -30.5q35 0 63.5 13t42.5 35h139q-9 -43 -42 -79.5t-86.5 -59t-119.5 -22.5q-80 0 -142 32.5zM391.5 370.5
q-34.5 25.5 -83.5 25.5q-47 0 -83.5 -26t-48.5 -69h262q-12 44 -46.5 69.5zM470 745l-80 -188h-10l-78 183l-79 -183h-9l-80 188h336z" />
    <glyph glyph-name="uni0454" unicode="&#x454;" horiz-adv-x="608" 
d="M170 23.5q-62 33.5 -97 93t-35 133.5q0 75 35 134t97 92.5t140 33.5q68 0 125 -28t93 -76t44 -107h-135q-11 42 -46.5 68t-89.5 26q-46 0 -81 -26.5t-48 -68.5h163v-96h-163q13 -42 48 -68.5t81 -26.5q55 0 90.5 26t45.5 69h135q-7 -59 -43.5 -107.5t-93.5 -76.5
t-125 -28q-78 0 -140 33.5z" />
    <glyph glyph-name="uni0456" unicode="&#x456;" horiz-adv-x="303" 
d="M82 500h139v-500h-139v500zM57 745h190l-90 -188h-10z" />
    <glyph glyph-name="uni0457" unicode="&#x457;" horiz-adv-x="303" 
d="M82 500h139v-500h-139v500zM320 745l-80 -188h-10l-78 183l-79 -183h-9l-80 188h336z" />
    <glyph glyph-name="uni045E" unicode="&#x45e;" horiz-adv-x="600" 
d="M115.5 -189q-43.5 21 -70.5 65.5t-27 111.5v26h129v-37q0 -32 18.5 -51t45.5 -19q26 0 42 16.5t16 42.5v6q0 18 -2 30t-9 24l-250 474h157l151 -307q2 -4 4 -9.5t3 -10.5q1 4 5 17l121 310h144l-180 -432q-7 -17 -9.5 -30t-2.5 -34v-34q0 -56 -25.5 -96.5t-69 -62
t-96.5 -21.5q-51 0 -94.5 21zM200.5 577.5q-45.5 23.5 -70.5 65.5t-25 94v8h115v-7q0 -35 23.5 -57.5t61.5 -22.5t61.5 22.5t23.5 57.5v7h115v-8q0 -52 -25 -94t-70.5 -65.5t-104.5 -23.5t-104.5 23.5z" />
    <glyph glyph-name="uni0490" unicode="&#x490;" horiz-adv-x="624" 
d="M602 839v-291h-344v-548h-160v700h351v139h153z" />
    <glyph glyph-name="uni0491" unicode="&#x491;" horiz-adv-x="494" 
d="M82 500h260v106h133v-237h-254v-569h-139v700z" />
    <glyph glyph-name="Wgrave" unicode="&#x1e80;" horiz-adv-x="1060" 
d="M33 700h165l125 -520l128 520h162l127 -519l125 519h162l-171 -700h-206l-121 491l-120 -491h-205zM454 785l-67 160h135l66 -160h-134z" />
    <glyph glyph-name="wgrave" unicode="&#x1e81;" horiz-adv-x="824" 
d="M21 500h138l90 -355l93 355h144l92 -352l88 352h137l-127 -500h-172l-92 348l-92 -348h-172zM336 585l-67 160h135l66 -160h-134z" />
    <glyph glyph-name="Wacute" unicode="&#x1e82;" horiz-adv-x="1060" 
d="M33 700h165l125 -520l128 520h162l127 -519l125 519h162l-171 -700h-206l-121 491l-120 -491h-205zM538 945h136l-67 -160h-135z" />
    <glyph glyph-name="wacute" unicode="&#x1e83;" horiz-adv-x="824" 
d="M21 500h138l90 -355l93 355h144l92 -352l88 352h137l-127 -500h-172l-92 348l-92 -348h-172zM420 745h136l-67 -160h-135z" />
    <glyph glyph-name="Wdieresis" unicode="&#x1e84;" horiz-adv-x="1060" 
d="M33 700h165l125 -520l128 520h162l127 -519l125 519h162l-171 -700h-206l-121 491l-120 -491h-205zM698 945l-80 -188h-10l-78 183l-79 -183h-9l-80 188h336z" />
    <glyph glyph-name="wdieresis" unicode="&#x1e85;" horiz-adv-x="824" 
d="M21 500h138l90 -355l93 355h144l92 -352l88 352h137l-127 -500h-172l-92 348l-92 -348h-172zM580 745l-80 -188h-10l-78 183l-79 -183h-9l-80 188h336z" />
    <glyph glyph-name="uni1E9E" unicode="&#x1e9e;" horiz-adv-x="844" 
d="M430.5 14.5q-56.5 29.5 -88.5 80.5t-32 112h137q0 -42 30 -68t77 -26t76.5 29.5t29.5 72.5q0 40 -29 67t-76 27q-74 0 -174 -10l-6 -1l-4 84l200 183h-320v-565h-153v700h655v-129l-175 -164q14 7 32 7q58 -2 103.5 -29.5t70.5 -71t25 -92.5q0 -68 -32 -122t-89.5 -84
t-131.5 -30q-69 0 -125.5 29.5z" />
    <glyph glyph-name="Ygrave" unicode="&#x1ef2;" horiz-adv-x="751" 
d="M296 245l-291 455h188l188 -301l184 301h181l-290 -455v-245h-160v245zM300 785l-67 160h135l66 -160h-134z" />
    <glyph glyph-name="ygrave" unicode="&#x1ef3;" horiz-adv-x="600" 
d="M115.5 -189q-43.5 21 -70.5 65.5t-27 111.5v26h129v-37q0 -32 18.5 -51t45.5 -19q26 0 42 16.5t16 42.5v6q0 18 -2 30t-9 24l-250 474h157l151 -307q2 -4 4 -9.5t3 -10.5q1 4 5 17l121 310h144l-180 -432q-7 -17 -9.5 -30t-2.5 -34v-34q0 -56 -25.5 -96.5t-69 -62
t-96.5 -21.5q-51 0 -94.5 21zM229 585l-67 160h135l66 -160h-134z" />
    <glyph glyph-name="endash" unicode="&#x2013;" horiz-adv-x="554" 
d="M66 363h422v-125h-422v125z" />
    <glyph glyph-name="emdash" unicode="&#x2014;" horiz-adv-x="714" 
d="M66 363h582v-125h-582v125z" />
    <glyph glyph-name="quoteleft" unicode="&#x2018;" horiz-adv-x="248" 
d="M150 625q36 -10 54 -34t18 -55q0 -38 -26 -67t-68 -29q-40 0 -68.5 26t-28.5 73q0 44 24.5 97.5t57.5 82.5h77q-30 -46 -40 -94z" />
    <glyph glyph-name="quoteright" unicode="&#x2019;" horiz-adv-x="248" 
d="M103 531h-1q-36 10 -53.5 34t-17.5 55q0 38 26 67t68 29q40 0 68.5 -26t28.5 -73q0 -44 -24.5 -97.5t-57.5 -82.5h-77q28 43 40 94z" />
    <glyph glyph-name="quotesinglbase" unicode="&#x201a;" horiz-adv-x="248" 
d="M103 -5h-1q-36 10 -53.5 34t-17.5 55q0 38 26 67t68 29q40 0 68.5 -26t28.5 -73q0 -44 -24.5 -97.5t-57.5 -82.5h-77q28 43 40 94z" />
    <glyph glyph-name="quotedblleft" unicode="&#x201c;" horiz-adv-x="484" 
d="M141 625h1q36 -10 53.5 -34t17.5 -55q0 -38 -25.5 -67t-68.5 -29q-40 0 -68.5 26t-28.5 73q0 44 24.5 97.5t57.5 82.5h78q-29 -45 -41 -94zM377 625h1q36 -10 53.5 -34t17.5 -55q0 -38 -26 -67t-68 -29q-40 0 -68.5 26t-28.5 73q0 44 24.5 97.5t57.5 82.5h78
q-29 -45 -41 -94z" />
    <glyph glyph-name="quotedblright" unicode="&#x201d;" horiz-adv-x="484" 
d="M103 531h-1q-36 10 -53.5 34t-17.5 55q0 38 26 67t68 29q40 0 68.5 -26t28.5 -73q0 -44 -24.5 -97.5t-57.5 -82.5h-77q28 43 40 94zM339 531h-1q-36 10 -53.5 34t-17.5 55q0 38 26 67t68 29q40 0 68.5 -26t28.5 -73q0 -44 -24.5 -97.5t-57.5 -82.5h-77q28 43 40 94z" />
    <glyph glyph-name="quotedblbase" unicode="&#x201e;" horiz-adv-x="484" 
d="M103 -5h-1q-36 10 -53.5 34t-17.5 55q0 38 26 67t68 29q40 0 68.5 -26t28.5 -73q0 -44 -24.5 -97.5t-57.5 -82.5h-77q28 43 40 94zM339 -5h-1q-36 10 -53.5 34t-17.5 55q0 38 26 67t68 29q40 0 68.5 -26t28.5 -73q0 -44 -24.5 -97.5t-57.5 -82.5h-77q28 43 40 94z" />
    <glyph glyph-name="dagger" unicode="&#x2020;" horiz-adv-x="385" 
d="M144 525h-128v90h128v95h97v-95h128v-90h-128v-168h-97v168z" />
    <glyph glyph-name="daggerdbl" unicode="&#x2021;" horiz-adv-x="385" 
d="M144 426h-128v83h128v49h-128v83h128v69h97v-69h128v-83h-128v-49h128v-83h-128v-69h-97v69z" />
    <glyph glyph-name="bullet" unicode="&#x2022;" horiz-adv-x="604" 
d="M206 204q-39 39 -39 96t39 96t96 39t96 -39t39 -96t-39 -96t-96 -39t-96 39z" />
    <glyph glyph-name="ellipsis" unicode="&#x2026;" horiz-adv-x="840" 
d="M84.5 17.5q-27.5 27.5 -27.5 67.5q0 41 27.5 68t67.5 27q41 0 68 -27t27 -68q0 -40 -27 -67.5t-68 -27.5q-40 0 -67.5 27.5zM352.5 17.5q-27.5 27.5 -27.5 67.5q0 41 27.5 68t67.5 27q41 0 68 -27t27 -68q0 -40 -27 -67.5t-68 -27.5q-40 0 -67.5 27.5zM620.5 17.5
q-27.5 27.5 -27.5 67.5q0 41 27.5 68t67.5 27q41 0 68 -27t27 -68q0 -40 -27 -67.5t-68 -27.5q-40 0 -67.5 27.5z" />
    <glyph glyph-name="perthousand" unicode="&#x2030;" horiz-adv-x="1229" 
d="M113.5 373.5q-40.5 23.5 -64 64.5t-23.5 90t23.5 89.5t64 64t89.5 23.5t90 -23.5t64.5 -64t23.5 -89.5t-23.5 -90t-64.5 -64.5t-90 -23.5t-89.5 23.5zM583 700h120l-454 -700h-120zM255.5 475.5q21.5 21.5 21.5 52.5t-21.5 52t-52.5 21t-52 -21t-21 -52t21 -52.5
t52 -21.5t52.5 21.5zM538.5 18.5q-40.5 23.5 -64 64.5t-23.5 90t23.5 89.5t64 64t89.5 23.5t90 -23.5t64.5 -64t23.5 -89.5t-23.5 -90t-64.5 -64.5t-90 -23.5t-89.5 23.5zM935.5 18.5q-40.5 23.5 -64 64.5t-23.5 90t23.5 89.5t64 64t89.5 23.5t90 -23.5t64.5 -64t23.5 -89.5
t-23.5 -90t-64.5 -64.5t-90 -23.5t-89.5 23.5zM680.5 120.5q21.5 21.5 21.5 52.5t-21.5 52t-52.5 21t-52 -21t-21 -52t21 -52.5t52 -21.5t52.5 21.5zM1077.5 120.5q21.5 21.5 21.5 52.5t-21.5 52t-52.5 21t-52 -21t-21 -52t21 -52.5t52 -21.5t52.5 21.5z" />
    <glyph glyph-name="guilsinglleft" unicode="&#x2039;" horiz-adv-x="354" 
d="M197 300l109 -200h-152l-106 194v12l106 194h152z" />
    <glyph glyph-name="guilsinglright" unicode="&#x203a;" horiz-adv-x="354" 
d="M157 300l-109 200h152l106 -194v-12l-106 -194h-152z" />
    <glyph glyph-name="Euro" unicode="&#x20ac;" 
d="M263.5 13.5q-60.5 28.5 -105 84.5t-64.5 133h-74v90h60v29v29h-60v90h74q20 77 64.5 133t105 84.5t127.5 28.5q72 0 134.5 -32t105 -94.5t52.5 -149.5h-157q-10 71 -47.5 106.5t-92.5 35.5q-49 0 -83 -29t-51 -83h177v-90h-192q-1 -9 -1 -29t1 -29h192v-90h-177
q17 -54 51 -83t83 -29q55 0 92.5 35.5t47.5 106.5h157q-10 -87 -52.5 -149.5t-105 -94.5t-134.5 -32q-67 0 -127.5 28.5z" />
    <glyph glyph-name="uni20B4" unicode="&#x20b4;" 
d="M154 32q-66 47 -66 128q0 39 19 71h-77v90h161q31 17 85 39l43 19h-289v90h406q22 22 22 49q0 34 -29 55t-77 21q-89 0 -119 -73h-152q23 91 97.5 142.5t185.5 51.5q115 0 181 -47t66 -128q0 -40 -20 -71h80v-90h-166q-19 -9 -61 -27q-48 -20 -70 -31h297v-90h-413
q-21 -23 -21 -49q0 -36 30 -56.5t80 -20.5q45 0 77.5 19t47.5 56h160q-23 -92 -99 -143.5t-197 -51.5q-116 0 -182 47z" />
    <glyph glyph-name="uni20BD" unicode="&#x20bd;" 
d="M32 142v91h106v52h-106v90h106v325h276q118 0 185 -55.5t67 -151.5q0 -97 -67 -152.5t-185 -55.5h-121v-52h321v-91h-321v-142h-155v142h-106zM492.5 399.5q31.5 24.5 31.5 65.5q0 44 -31.5 70t-84.5 26h-115v-186h115q53 0 84.5 24.5z" />
    <glyph glyph-name="uni2116" unicode="&#x2116;" horiz-adv-x="1242" 
d="M266 700l327 -470v470h149v-700h-168l-325 471v-471h-151v700h168zM940.5 368.5q-40.5 23.5 -64 64.5t-23.5 90t23.5 89.5t64 64t89.5 23.5t90 -23.5t64.5 -64t23.5 -89.5t-23.5 -90t-64.5 -64.5t-90 -23.5t-89.5 23.5zM1082.5 470.5q21.5 21.5 21.5 52.5t-21.5 52
t-52.5 21t-52 -21t-21 -52t21 -52.5t52 -21.5t52.5 21.5z" />
    <glyph glyph-name="trademark" unicode="&#x2122;" horiz-adv-x="857" 
d="M132 619h-113v81h311v-81h-113v-219h-85v219zM384 700h134l69 -200l69 200h132v-300h-82v222l-77 -222h-85l-77 220v-220h-83v300z" />
    <glyph glyph-name="arrowleft" unicode="&#x2190;" 
d="M0 342v18l371 272l75 -95l-181 -121v-3h435v-125h-435v-2l181 -121l-75 -95z" />
    <glyph glyph-name="arrowup" unicode="&#x2191;" 
d="M287 435h-2l-121 -181l-95 75l272 371h18l272 -371l-95 -75l-121 181h-3v-435h-125v435z" />
    <glyph glyph-name="arrowright" unicode="&#x2192;" 
d="M254 164l181 121v3h-435v125h435v2l-181 121l75 95l371 -272v-18l-371 -272z" />
    <glyph glyph-name="arrowdown" unicode="&#x2193;" 
d="M69 371l95 75l121 -181h3v435h125v-435h2l121 181l95 -75l-272 -371h-18z" />
    <glyph glyph-name="arrowboth" unicode="&#x2194;" horiz-adv-x="920" 
d="M-7 341v18l346 251l76 -95l-166 -107v-3h423v3l-166 107l75 95l346 -251v-18l-346 -251l-75 95l166 107v2h-423v-2l166 -107l-76 -95z" />
    <glyph glyph-name="arrowupdn" unicode="&#x2195;" 
d="M90 229l95 76l107 -166h3v423h-3l-107 -166l-95 75l251 346h18l251 -346l-95 -75l-107 166h-2v-423h2l107 166l95 -76l-251 -346h-18z" />
    <glyph glyph-name="uni2196" unicode="&#x2196;" 
d="M246 367l-2 -2l43 -214l-121 -14l-70 455l13 13l455 -70l-14 -121l-214 43l-2 -2l307 -308l-88 -88z" />
    <glyph glyph-name="uni2197" unicode="&#x2197;" 
d="M58 148l308 307l-2 2l-214 -43l-14 121l455 70l13 -13l-70 -455l-121 14l43 214l-2 2l-308 -307z" />
    <glyph glyph-name="uni2198" unicode="&#x2198;" 
d="M136 166l14 121l214 -43l2 2l-307 308l88 88l307 -308l2 2l-43 214l121 14l70 -455l-13 -13z" />
    <glyph glyph-name="uni2199" unicode="&#x2199;" 
d="M96 109l70 455l121 -14l-43 -214l2 -2l308 307l88 -88l-308 -307l2 -2l214 43l14 -121l-455 -70z" />
    <glyph glyph-name="uni21B0" unicode="&#x21b0;" horiz-adv-x="730" 
d="M575 287h-310v-2l181 -121l-75 -95l-371 272v18l371 272l75 -95l-181 -121v-3h435v-412h-125v287z" />
    <glyph glyph-name="uni21B1" unicode="&#x21b1;" horiz-adv-x="730" 
d="M30 412h435v3l-181 121l75 95l371 -272v-18l-371 -272l-75 95l181 121v2h-310v-287h-125v412z" />
    <glyph glyph-name="uni21B2" unicode="&#x21b2;" horiz-adv-x="730" 
d="M0 341v18l371 272l75 -95l-181 -121v-2h310v287h125v-412h-435v-3l181 -121l-75 -95z" />
    <glyph glyph-name="uni21B3" unicode="&#x21b3;" horiz-adv-x="730" 
d="M284 164l181 121v3h-435v412h125v-287h310v2l-181 121l75 95l371 -272v-18l-371 -272z" />
    <glyph glyph-name="minus" unicode="&#x2212;" horiz-adv-x="560" 
d="M66 413h428v-125h-428v125z" />
    <glyph glyph-name="approxequal" unicode="&#x2248;" horiz-adv-x="560" 
d="M96 509.5q33 42.5 88 42.5q29 0 50.5 -8t46.5 -23q34 -19 55 -19q17 0 27 11t10 29h125q0 -82 -32.5 -124t-87.5 -42q-29 0 -51 8t-46 22q-19 10 -30.5 14.5t-24.5 4.5q-17 0 -27.5 -11t-10.5 -29h-125q0 82 33 124.5zM96 287.5q33 42.5 88 42.5q29 0 50.5 -8t46.5 -23
q34 -19 55 -19q17 0 27 11t10 29h125q0 -82 -32.5 -124t-87.5 -42q-29 0 -51 8t-46 22q-19 10 -30.5 14.5t-24.5 4.5q-17 0 -27.5 -11t-10.5 -29h-125q0 82 33 124.5z" />
    <glyph glyph-name="notequal" unicode="&#x2260;" horiz-adv-x="560" 
d="M364 406l-46 -111h176v-125h-227l-37 -90h-121l37 90h-80v125h131l46 111h-177v125h228l37 89h120l-37 -89h80v-125h-130z" />
    <glyph glyph-name="lessequal" unicode="&#x2264;" horiz-adv-x="560" 
d="M494 539l-224 -104l224 -103v-139l-428 198v82l428 197v-131zM66 158h428v-125h-428v125z" />
    <glyph glyph-name="greaterequal" unicode="&#x2265;" horiz-adv-x="560" 
d="M66 325l224 104l-224 103v139l428 -198v-82l-428 -197v131zM66 158h428v-125h-428v125z" />
    <glyph glyph-name="uni2605" unicode="&#x2605;" horiz-adv-x="1064" 
d="M508 211l-194 -173l-171 51l48 172h297l-368 113v173l160 41l220 -263l-126 353l158 133l158 -133l-126 -353l220 263l160 -41v-173l-368 -113h297l48 -172l-171 -51l-194 173l22 -250h-92z" />
    <glyph glyph-name="M.ss03" horiz-adv-x="1142" 
d="M1044 0h-160v549h-233v-549h-160v549h-233v-549h-160v700h946v-700z" />
    <glyph glyph-name="N.ss03" horiz-adv-x="820" 
d="M98 700h624v-700h-160v548h-304v-548h-160v700z" />
    <glyph glyph-name="Nacute.ss03" horiz-adv-x="820" 
d="M98 700h624v-700h-160v548h-304v-548h-160v700zM418 945h136l-67 -160h-135z" />
    <glyph glyph-name="Ncaron.ss03" horiz-adv-x="820" 
d="M98 700h624v-700h-160v548h-304v-548h-160v700zM354 945l56 -81l56 81h131l-114 -160h-146l-114 160h131z" />
    <glyph glyph-name="uni0145.ss03" horiz-adv-x="820" 
d="M98 700h624v-700h-160v548h-304v-548h-160v700zM371 -215q10 18 12 29q-27 2 -42.5 19.5t-15.5 38.5q0 27 24 47t61 20q38 0 63 -19t25 -54q0 -31 -21 -61t-51 -50h-75q10 12 20 30z" />
    <glyph glyph-name="Eng.ss03" horiz-adv-x="820" 
d="M406.5 -190q-42.5 20 -66 55t-23.5 78h134v-1q0 -21 15 -31.5t42 -10.5q62 0 62 90q0 15 -3 34q-5 48 -5 72v452h-304v-548h-160v700h624v-689q0 -109 -56 -165t-161 -56q-56 0 -98.5 20z" />
    <glyph glyph-name="Ntilde.ss03" horiz-adv-x="820" 
d="M98 700h624v-700h-160v548h-304v-548h-160v700zM242 902q30 36 83 36q25 0 45.5 -7t44.5 -19q14 -7 27 -12t23 -5q15 0 24 10.5t9 30.5h110q0 -76 -30 -112t-83 -36q-25 0 -46 7t-44 20q-14 7 -27 12t-23 5q-15 0 -24 -10.5t-9 -30.5h-110q0 75 30 111z" />
    <glyph glyph-name="S.ss03" horiz-adv-x="664" 
d="M37 146h370l-346 422v132h545v-146h-333l347 -422v-132h-583v146z" />
    <glyph glyph-name="Sacute.ss03" horiz-adv-x="664" 
d="M37 146h370l-346 422v132h545v-146h-333l347 -422v-132h-583v146zM348 945h136l-67 -160h-135z" />
    <glyph glyph-name="Scaron.ss03" horiz-adv-x="664" 
d="M37 146h370l-346 422v132h545v-146h-333l347 -422v-132h-583v146zM284 945l56 -81l56 81h131l-114 -160h-146l-114 160h131z" />
    <glyph glyph-name="Scedilla.ss03" horiz-adv-x="664" 
d="M37 146h370l-346 422v132h545v-146h-333l347 -422v-132h-583v146zM349 -245h-136l67 160h135z" />
    <glyph glyph-name="uni0218.ss03" horiz-adv-x="664" 
d="M37 146h370l-346 422v132h545v-146h-333l347 -422v-132h-583v146zM308 -215q10 18 12 29q-27 2 -42.5 19.5t-15.5 38.5q0 27 24 47t61 20q38 0 63 -19t25 -54q0 -31 -21 -61t-51 -50h-75q10 12 20 30z" />
    <glyph glyph-name="U.ss03" horiz-adv-x="820" 
d="M722 0h-624v700h160v-548h304v548h160v-700z" />
    <glyph glyph-name="Uacute.ss03" horiz-adv-x="820" 
d="M722 0h-624v700h160v-548h304v548h160v-700zM418 945h136l-67 -160h-135z" />
    <glyph glyph-name="Ucircumflex.ss03" horiz-adv-x="820" 
d="M722 0h-624v700h160v-548h304v548h160v-700zM466 785l-56 81l-56 -81h-131l114 160h146l114 -160h-131z" />
    <glyph glyph-name="Udieresis.ss03" horiz-adv-x="820" 
d="M722 0h-624v700h160v-548h304v548h160v-700zM578 945l-80 -188h-10l-78 183l-79 -183h-9l-80 188h336z" />
    <glyph glyph-name="Ugrave.ss03" horiz-adv-x="820" 
d="M722 0h-624v700h160v-548h304v548h160v-700zM334 785l-67 160h135l66 -160h-134z" />
    <glyph glyph-name="Uhungarumlaut.ss03" horiz-adv-x="820" 
d="M722 0h-624v700h160v-548h304v548h160v-700zM448 945l-60 -160h-121l59 160h122zM625 945l-60 -160h-121l59 160h122z" />
    <glyph glyph-name="Umacron.ss03" horiz-adv-x="820" 
d="M722 0h-624v700h160v-548h304v548h160v-700zM570 923v-106h-320v106h320z" />
    <glyph glyph-name="Uogonek.ss03" horiz-adv-x="820" 
d="M722 0h-624v700h160v-548h304v548h160v-700zM660 -245h-135l67 160h134z" />
    <glyph glyph-name="Uring.ss03" horiz-adv-x="820" 
d="M722 0h-624v700h160v-548h304v548h160v-700zM340.5 772.5q-31.5 18.5 -50 50t-18.5 68.5t18.5 69t50 50.5t68.5 18.5q38 0 70 -18.5t50.5 -50.5t18.5 -69t-18.5 -68.5t-50.5 -50t-70 -18.5q-37 0 -68.5 18.5zM442 860q13 13 13 32q0 18 -13 31t-32 13t-32 -13t-13 -31
q0 -19 13 -32t32 -13t32 13z" />
    <glyph glyph-name="W.ss03" horiz-adv-x="1142" 
d="M98 700h160v-549h233v549h160v-549h233v549h160v-700h-946v700z" />
    <glyph glyph-name="Wacute.ss03" horiz-adv-x="1142" 
d="M98 700h160v-549h233v549h160v-549h233v549h160v-700h-946v700zM579 945h136l-67 -160h-135z" />
    <glyph glyph-name="Wcircumflex.ss03" horiz-adv-x="1142" 
d="M98 700h160v-549h233v549h160v-549h233v549h160v-700h-946v700zM627 785l-56 81l-56 -81h-131l114 160h146l114 -160h-131z" />
    <glyph glyph-name="Wdieresis.ss03" horiz-adv-x="1142" 
d="M98 700h160v-549h233v549h160v-549h233v549h160v-700h-946v700zM739 945l-80 -188h-10l-78 183l-79 -183h-9l-80 188h336z" />
    <glyph glyph-name="Wgrave.ss03" horiz-adv-x="1142" 
d="M98 700h160v-549h233v549h160v-549h233v549h160v-700h-946v700zM495 785l-67 160h135l66 -160h-134z" />
    <glyph glyph-name="i.loclTRK" horiz-adv-x="303" 
d="M82 500h139v-500h-139v500zM57 745h190l-90 -188h-10z" />
    <glyph glyph-name="g.alt" horiz-adv-x="660" 
d="M130.5 -169q-76.5 41 -76.5 115q0 36 20.5 63.5t58.5 44.5q-61 15 -94 49.5t-33 83.5q0 29 22 56.5t63 32.5l10 1q-18 27 -18 64q0 76 70.5 122.5t202.5 46.5q138 0 210 -46t72 -123t-74.5 -120t-203.5 -43q-53 0 -85 6.5t-64 17.5q-12 4 -23.5 7.5t-22.5 3.5
q-14 0 -22 -7.5t-8 -18.5q0 -35 52 -47t171 -14q136 -2 211 -43.5t75 -123.5q0 -52 -36 -90t-103.5 -58.5t-158.5 -20.5q-139 0 -215.5 41zM458.5 292.5q35.5 18.5 35.5 50.5t-35.5 50.5t-98.5 18.5q-64 0 -99.5 -18.5t-35.5 -50.5t35.5 -50.5t99.5 -18.5q63 0 98.5 18.5z
M461 -85q39 16 39 47q0 32 -39 49t-113 17t-112.5 -17t-38.5 -49q0 -31 38.5 -47t112.5 -16t113 16z" />
    <glyph glyph-name="f.long" horiz-adv-x="485" 
d="M36 374v126h93v50q0 86 55 138t151 52q84 0 137.5 -48.5t53.5 -134.5h-132v8q-1 28 -18.5 44.5t-44.5 16.5q-33 0 -53.5 -19.5t-20.5 -57.5q0 -11 2 -26t3 -23h322v-126h-316v-374h-139v374h-93z" />
    <glyph glyph-name="m.ss03" horiz-adv-x="915" 
d="M82 500h751v-500h-139v375h-167v-375h-139v375h-167v-375h-139v500z" />
    <glyph glyph-name="n.ss03" horiz-adv-x="654" 
d="M82 500h490v-500h-139v371h-212v-371h-139v500z" />
    <glyph glyph-name="nacute.ss03" horiz-adv-x="654" 
d="M82 500h490v-500h-139v371h-212v-371h-139v500zM335 745h136l-67 -160h-135z" />
    <glyph glyph-name="ncaron.ss03" horiz-adv-x="654" 
d="M82 500h490v-500h-139v371h-212v-371h-139v500zM271 745l56 -81l56 81h131l-114 -160h-146l-114 160h131z" />
    <glyph glyph-name="uni0146.ss03" horiz-adv-x="654" 
d="M82 500h490v-500h-139v371h-212v-371h-139v500zM288 -215q10 18 12 29q-27 2 -42.5 19.5t-15.5 38.5q0 27 24 47t61 20q38 0 63 -19t25 -54q0 -31 -21 -61t-51 -50h-75q10 12 20 30z" />
    <glyph glyph-name="eng.ss03" horiz-adv-x="654" 
d="M260.5 -190q-44.5 20 -69 55t-24.5 78h134v-1q0 -20 16.5 -31t45.5 -11q78 0 78 90q0 15 -3 34q-5 48 -5 72v275h-212v-371h-139v500h490v-489q0 -109 -54 -165t-155 -56q-58 0 -102.5 20z" />
    <glyph glyph-name="ntilde.ss03" horiz-adv-x="654" 
d="M82 500h490v-500h-139v371h-212v-371h-139v500zM159 702q30 36 83 36q25 0 45.5 -7t44.5 -19q14 -7 27 -12t23 -5q15 0 24 10.5t9 30.5h110q0 -76 -30 -112t-83 -36q-25 0 -46 7t-44 20q-14 7 -27 12t-23 5q-15 0 -24 -10.5t-9 -30.5h-110q0 75 30 111z" />
    <glyph glyph-name="r.ss03" horiz-adv-x="494" 
d="M82 500h393v-131h-254v-369h-139v500z" />
    <glyph glyph-name="racute.ss03" horiz-adv-x="494" 
d="M82 500h393v-131h-254v-369h-139v500zM293 745h136l-67 -160h-135z" />
    <glyph glyph-name="rcaron.ss03" horiz-adv-x="494" 
d="M82 500h393v-131h-254v-369h-139v500zM229 745l56 -81l56 81h131l-114 -160h-146l-114 160h131z" />
    <glyph glyph-name="uni0157.ss03" horiz-adv-x="494" 
d="M82 500h393v-131h-254v-369h-139v500zM113 -215q10 18 12 29q-27 2 -42.5 19.5t-15.5 38.5q0 27 24 47t61 20q38 0 63 -19t25 -54q0 -31 -21 -61t-51 -50h-75q10 12 20 30z" />
    <glyph glyph-name="s.ss03" horiz-adv-x="541" 
d="M42 125h272l-264 268v107h435v-125h-253l265 -267v-108h-455v125z" />
    <glyph glyph-name="sacute.ss03" horiz-adv-x="540" 
d="M42 125h272l-264 268v107h435v-125h-253l265 -267v-108h-455v125zM277 745h136l-67 -160h-135z" />
    <glyph glyph-name="scaron.ss03" horiz-adv-x="540" 
d="M42 125h272l-264 268v107h435v-125h-253l265 -267v-108h-455v125zM213 745l56 -81l56 81h131l-114 -160h-146l-114 160h131z" />
    <glyph glyph-name="scedilla.ss03" horiz-adv-x="540" 
d="M42 125h272l-264 268v107h435v-125h-253l265 -267v-108h-455v125zM271 -245h-136l67 160h135z" />
    <glyph glyph-name="uni0219.ss03" horiz-adv-x="540" 
d="M42 125h272l-264 268v107h435v-125h-253l265 -267v-108h-455v125zM230 -215q10 18 12 29q-27 2 -42.5 19.5t-15.5 38.5q0 27 24 47t61 20q38 0 63 -19t25 -54q0 -31 -21 -61t-51 -50h-75q10 12 20 30z" />
    <glyph glyph-name="germandbls.ss03" horiz-adv-x="789" 
d="M36 374v126h93v39q0 57 32 102.5t92.5 72t142.5 26.5q78 0 139 -25t95.5 -71t34.5 -107v-158h-138l244 -271v-108h-431v125h253l-245 268v107h183v34q0 39 -39 60t-96 21q-59 0 -98 -24.5t-39 -72.5q0 -11 3 -29q0 -4 3 -28.5t3 -63.5v-597h-139v574h-93z" />
    <glyph glyph-name="u.ss03" horiz-adv-x="654" 
d="M572 0h-490v500h139v-371h212v371h139v-500z" />
    <glyph glyph-name="uacute.ss03" horiz-adv-x="654" 
d="M572 0h-490v500h139v-371h212v371h139v-500zM335 745h136l-67 -160h-135z" />
    <glyph glyph-name="ucircumflex.ss03" horiz-adv-x="654" 
d="M572 0h-490v500h139v-371h212v371h139v-500zM383 585l-56 81l-56 -81h-131l114 160h146l114 -160h-131z" />
    <glyph glyph-name="udieresis.ss03" horiz-adv-x="654" 
d="M572 0h-490v500h139v-371h212v371h139v-500zM495 745l-80 -188h-10l-78 183l-79 -183h-9l-80 188h336z" />
    <glyph glyph-name="ugrave.ss03" horiz-adv-x="654" 
d="M572 0h-490v500h139v-371h212v371h139v-500zM251 585l-67 160h135l66 -160h-134z" />
    <glyph glyph-name="uhungarumlaut.ss03" horiz-adv-x="654" 
d="M572 0h-490v500h139v-371h212v371h139v-500zM365 745l-60 -160h-121l59 160h122zM542 745l-60 -160h-121l59 160h122z" />
    <glyph glyph-name="umacron.ss03" horiz-adv-x="654" 
d="M572 0h-490v500h139v-371h212v371h139v-500zM487 723v-106h-320v106h320z" />
    <glyph glyph-name="uogonek.ss03" horiz-adv-x="654" 
d="M572 0h-490v500h139v-371h212v371h139v-500zM510 -245h-135l67 160h134z" />
    <glyph glyph-name="uring.ss03" horiz-adv-x="654" 
d="M572 0h-490v500h139v-371h212v371h139v-500zM257.5 572.5q-31.5 18.5 -50 50t-18.5 68.5t18.5 69t50 50.5t68.5 18.5q38 0 70 -18.5t50.5 -50.5t18.5 -69t-18.5 -68.5t-50.5 -50t-70 -18.5q-37 0 -68.5 18.5zM359 660q13 13 13 32q0 18 -13 31t-32 13t-32 -13t-13 -31
q0 -19 13 -32t32 -13t32 13z" />
    <glyph glyph-name="w.ss03" horiz-adv-x="915" 
d="M82 500h139v-376h167v376h139v-376h167v376h139v-500h-751v500z" />
    <glyph glyph-name="wacute.ss03" horiz-adv-x="915" 
d="M82 500h139v-376h167v376h139v-376h167v376h139v-500h-751v500zM466 745h136l-67 -160h-135z" />
    <glyph glyph-name="wcircumflex.ss03" horiz-adv-x="915" 
d="M82 500h139v-376h167v376h139v-376h167v376h139v-500h-751v500zM514 585l-56 81l-56 -81h-131l114 160h146l114 -160h-131z" />
    <glyph glyph-name="wdieresis.ss03" horiz-adv-x="915" 
d="M82 500h139v-376h167v376h139v-376h167v376h139v-500h-751v500zM626 745l-80 -188h-10l-78 183l-79 -183h-9l-80 188h336z" />
    <glyph glyph-name="wgrave.ss03" horiz-adv-x="915" 
d="M82 500h139v-376h167v376h139v-376h167v376h139v-500h-751v500zM382 585l-67 160h135l66 -160h-134z" />
    <glyph glyph-name="y.ss04" horiz-adv-x="596" 
d="M229 0l-222 500h146l147 -363l146 363h144l-222 -500v-200h-139v200z" />
    <glyph glyph-name="yacute.ss04" horiz-adv-x="596" 
d="M229 0l-222 500h146l147 -363l146 363h144l-222 -500v-200h-139v200zM307 745h136l-67 -160h-135z" />
    <glyph glyph-name="ycircumflex.ss04" horiz-adv-x="596" 
d="M229 0l-222 500h146l147 -363l146 363h144l-222 -500v-200h-139v200zM355 585l-56 81l-56 -81h-131l114 160h146l114 -160h-131z" />
    <glyph glyph-name="ydieresis.ss04" horiz-adv-x="596" 
d="M229 0l-222 500h146l147 -363l146 363h144l-222 -500v-200h-139v200zM467 745l-80 -188h-10l-78 183l-79 -183h-9l-80 188h336z" />
    <glyph glyph-name="ygrave.ss04" horiz-adv-x="596" 
d="M229 0l-222 500h146l147 -363l146 363h144l-222 -500v-200h-139v200zM223 585l-67 160h135l66 -160h-134z" />
    <glyph glyph-name="uni041D.ss02" horiz-adv-x="840" 
d="M98 700h168l327 -470v470h149v-700h-168l-325 471v-471h-151v700z" />
    <glyph glyph-name="uni0417.ss03" horiz-adv-x="693" 
d="M505 0h-455v132l377 421h-363v147h571v-132l-377 -421h400v-300h-153v153z" />
    <glyph glyph-name="uni0421.ss03" horiz-adv-x="676" 
d="M49 132l143 222l-136 214v132h563v-147h-380l131 -203l-130 -203h393v-147h-584v132z" />
    <glyph glyph-name="uni0422.ss03" horiz-adv-x="1142" 
d="M98 700h946v-700h-160v547h-233v-547h-160v547h-233v-547h-160v700z" />
    <glyph glyph-name="uni0423.ss04" horiz-adv-x="751" 
d="M296 245l-291 455h188l188 -301l184 301h181l-290 -455v-245h-160v245z" />
    <glyph glyph-name="uni040E.ss04" horiz-adv-x="751" 
d="M296 245l-291 455h188l188 -301l184 301h181l-290 -455v-245h-160v245zM271.5 777.5q-45.5 23.5 -70.5 65.5t-25 94v8h115v-7q0 -35 23.5 -57.5t61.5 -22.5t61.5 22.5t23.5 57.5v7h115v-8q0 -52 -25 -94t-70.5 -65.5t-104.5 -23.5t-104.5 23.5z" />
    <glyph glyph-name="uni0491.ss01" horiz-adv-x="494" 
d="M82 500h260v106h133v-237h-254v-369h-139v500z" />
    <glyph glyph-name="uni0436.ss01" horiz-adv-x="863" 
d="M182 257l-165 243h152l124 -186h69v186h139v-186h71l123 186h151l-165 -244l171 -256h-162l-123 186h-66v-186h-139v186h-66l-123 -186h-162z" />
    <glyph glyph-name="uni043A.ss01" horiz-adv-x="600" 
d="M82 500h139v-185h65l137 185h154l-179 -240l189 -260h-166l-137 186h-63v-186h-139v500z" />
    <glyph glyph-name="uni043D.ss02" horiz-adv-x="670" 
d="M82 500h143l225 -307v307h138v-500h-143l-226 308v-308h-137v500z" />
    <glyph glyph-name="uni0437.ss03" horiz-adv-x="555" 
d="M385 0h-341v108l272 268h-260v124h442v-107l-271 -269h291v-233h-133v109z" />
    <glyph glyph-name="uni0441.ss03" horiz-adv-x="531" 
d="M49 101l122 149l-122 150v100h433v-124h-260l99 -126l-98 -126h272v-124h-446v101z" />
    <glyph glyph-name="uni0442.ss03" horiz-adv-x="915" 
d="M82 500h751v-500h-139v375h-167v-375h-139v375h-167v-375h-139v500z" />
    <glyph glyph-name="uni0443.ss04" horiz-adv-x="596" 
d="M229 0l-222 500h146l147 -363l146 363h144l-222 -500v-200h-139v200z" />
    <glyph glyph-name="uni045E.ss04" horiz-adv-x="596" 
d="M229 0l-222 500h146l147 -363l146 363h144l-222 -500v-200h-139v200zM194.5 577.5q-45.5 23.5 -70.5 65.5t-25 94v8h115v-7q0 -35 23.5 -57.5t61.5 -22.5t61.5 22.5t23.5 57.5v7h115v-8q0 -52 -25 -94t-70.5 -65.5t-104.5 -23.5t-104.5 23.5z" />
    <glyph glyph-name="uni04220410.dlig" horiz-adv-x="812" 
d="M326 467v86h-283v147h726v-147h-283v-86l309 -467h-181l-41 66h-334l-42 -66h-180zM496 188l-90 141l-90 -141h180z" />
    <glyph glyph-name="uni04420430.dlig" horiz-adv-x="611" 
d="M83 25.5q-47 36.5 -47 101.5q0 70 64 109.5t188 46.5q54 3 77 12.5t23 27.5q0 26 -27 42.5t-68 16.5q-42 0 -70.5 -18t-37.5 -51h-131q11 66 57.5 108.5t116.5 56.5v104h-192v128h518v-128h-187v-106q72 -16 112.5 -64.5t40.5 -120.5v-171h58v-121h-176v59
q-32 -32 -83 -50.5t-107 -18.5q-82 0 -129 36.5zM317 112.5q35 17.5 56.5 46.5t21.5 61v7q-11 -8 -37.5 -14.5t-60.5 -9.5q-64 -6 -93 -20t-29 -41q0 -22 17.5 -34.5t49.5 -12.5q40 0 75 17.5z" />
    <glyph glyph-name="zero.lf" horiz-adv-x="735" 
d="M197.5 31.5q-71.5 46.5 -111.5 129.5t-40 189t40 189t111.5 129.5t163.5 46.5t163.5 -46.5t111.5 -129.5t40 -189t-40 -189t-111.5 -129.5t-163.5 -46.5t-163.5 46.5zM476 185.5q43 61.5 43 164.5t-43 164.5t-115 61.5t-115 -61.5t-43 -164.5t43 -164.5t115 -61.5
t115 61.5z" />
    <glyph glyph-name="one.lf" horiz-adv-x="463" 
d="M208 523l-170 -105v164l192 118h127v-700h-149v523z" />
    <glyph glyph-name="two.lf" horiz-adv-x="649" 
d="M278 259q13 8 25 18q-13 -7 -36 -7q-70 5 -122 36t-79.5 79t-27.5 101q0 61 34.5 113.5t100 84t154.5 31.5q83 0 148.5 -30t103 -82.5t37.5 -119.5q0 -73 -45 -137.5t-122 -109.5l-163 -98h335v-138h-571v123zM426 402.5q38 29.5 38 76.5t-38.5 77t-99.5 30
q-60 0 -98 -30t-38 -77t38 -76.5t98 -29.5q62 0 100 29.5z" />
    <glyph glyph-name="three.lf" horiz-adv-x="612" 
d="M153 15.5q-65 30.5 -102 85.5t-39 126h150q4 -50 42 -82t95 -32t94.5 32.5t37.5 83.5q0 49 -33 80.5t-85 31.5q-45 0 -79 -24l-13 -10l-72 91l204 167h-315v135h523v-129l-172 -140q4 2 13 2q53 -5 95 -33.5t65.5 -73.5t23.5 -99q0 -70 -36 -125t-100.5 -86t-147.5 -31
q-84 0 -149 30.5z" />
    <glyph glyph-name="four.lf" horiz-adv-x="668" 
d="M385 146h-361v128l317 426h197v-426h121v-128h-121v-146h-153v146zM385 274v277l-209 -277h209z" />
    <glyph glyph-name="five.lf" horiz-adv-x="654" 
d="M174 13.5q-63 28.5 -100 78.5t-41 112h154q7 -42 43.5 -67.5t88.5 -25.5q62 0 100 37.5t38 92.5q0 52 -36 86.5t-99 34.5q-45 0 -79.5 -18.5t-47.5 -51.5h-141l48 408h473v-135h-347l-16 -125q55 35 138 35q72 0 131.5 -27t95 -80t35.5 -127q0 -75 -37.5 -133
t-104.5 -90.5t-154 -32.5q-79 0 -142 28.5z" />
    <glyph glyph-name="six.lf" horiz-adv-x="691" 
d="M192 34q-71 49 -106.5 131.5t-35.5 184.5q0 100 36 183t106.5 132.5t169.5 49.5q74 0 134 -27t98 -75.5t47 -109.5h-164q-11 34 -43 53.5t-76 19.5q-45 0 -82 -22.5t-59 -63.5t-22 -93v-8q34 36 83.5 55t106.5 19q72 0 133 -27.5t98 -80.5t37 -126q0 -64 -35 -120
t-100.5 -90t-153.5 -34q-101 0 -172 49zM458 146.5q39 32.5 39 82.5q0 52 -38 84.5t-98 32.5q-61 0 -100 -32t-39 -82q0 -30 17 -57t48.5 -44t72.5 -17q59 0 98 32.5z" />
    <glyph glyph-name="seven.lf" horiz-adv-x="599" 
d="M261.5 295.5q72.5 151.5 169.5 263.5h-421v141h580v-128q-61 -65 -116 -161.5t-93.5 -204.5t-49.5 -206h-163q21 144 93.5 295.5z" />
    <glyph glyph-name="eight.lf" horiz-adv-x="684" 
d="M184.5 11.5q-68.5 26.5 -106 74.5t-37.5 110q0 55 33 97.5t92 66.5q-52 23 -81 62.5t-29 90.5q0 59 36 105t100.5 71t149.5 25t149.5 -25t100.5 -71t36 -105q0 -51 -29.5 -90.5t-82.5 -62.5q60 -24 94 -66.5t34 -97.5q0 -62 -37.5 -110t-106 -74.5t-158.5 -26.5
q-89 0 -157.5 26.5zM439.5 438.5q37.5 25.5 37.5 66.5q0 40 -37.5 65.5t-97.5 25.5t-97.5 -25.5t-37.5 -65.5q0 -41 37.5 -66.5t97.5 -25.5t97.5 25.5zM446.5 132q40.5 28 40.5 71t-40.5 70t-104.5 27t-104.5 -27t-40.5 -70t40.5 -71t104.5 -28t104.5 28z" />
    <glyph glyph-name="nine.lf" horiz-adv-x="691" 
d="M499 666q71 -49 106.5 -131.5t35.5 -184.5q0 -100 -36 -183t-106.5 -132.5t-169.5 -49.5q-74 0 -134 27t-98 75.5t-47 109.5h164q11 -34 43 -53.5t76 -19.5q45 0 82 22.5t59 63.5t22 93v8q-34 -36 -83.5 -55t-106.5 -19q-72 0 -133 27.5t-98 80.5t-37 126q0 64 35 120
t100.5 90t153.5 34q101 0 172 -49zM233 553.5q-39 -32.5 -39 -82.5q0 -52 38 -84.5t98 -32.5q61 0 100 32t39 82q0 30 -17 57t-48.5 44t-72.5 17q-59 0 -98 -32.5z" />
    <glyph glyph-name="zero.osf" horiz-adv-x="714" 
d="M195.5 25.5q-71.5 40.5 -112 112.5t-40.5 162t40.5 162t112 112.5t161.5 40.5t162 -40.5t112.5 -112.5t40.5 -162t-40.5 -162t-112.5 -112.5t-162 -40.5t-161.5 40.5zM439 146.5q36 22.5 56 62.5t20 91t-20 91t-56 62.5t-82 22.5t-82 -22.5t-56 -62.5t-20 -91t20 -91
t56 -62.5t82 -22.5t82 22.5z" />
    <glyph glyph-name="one.osf" horiz-adv-x="471" 
d="M217 421l-170 -105v166l192 118h127v-600h-149v421z" />
    <glyph glyph-name="two.osf" horiz-adv-x="656" 
d="M238 214l-11 1q-53 5 -98 32.5t-71.5 69.5t-26.5 90q0 60 37.5 107.5t104.5 74.5t151 27q87 0 154 -26.5t104 -74.5t37 -110q0 -68 -45 -118t-133 -93l-120 -63h321v-131h-604v113zM422.5 317q38.5 28 38.5 72q0 45 -38.5 73.5t-99.5 28.5q-60 0 -98.5 -28.5t-38.5 -73.5
q0 -44 38.5 -72t98.5 -28q61 0 99.5 28z" />
    <glyph glyph-name="three.osf" horiz-adv-x="618" 
d="M153 15.5q-65 30.5 -102 85.5t-39 126h150q4 -50 42 -82t95 -32t94.5 32.5t37.5 83.5q0 49 -33 80.5t-85 31.5q-45 0 -79 -24l-13 -10l-72 91l204 167h-315v135h523v-129l-172 -140q4 2 13 2q53 -5 95 -33.5t65.5 -73.5t23.5 -99q0 -70 -36 -125t-100.5 -86t-147.5 -31
q-84 0 -149 30.5z" />
    <glyph glyph-name="four.osf" horiz-adv-x="665" 
d="M383 46h-361v128l317 426h197v-426h121v-128h-121v-146h-153v146zM383 174v277l-209 -277h209z" />
    <glyph glyph-name="five.osf" horiz-adv-x="654" 
d="M174 -86.5q-63 28.5 -100 78.5t-41 112h154q7 -42 43.5 -67.5t88.5 -25.5q62 0 100 37.5t38 92.5q0 52 -36 86.5t-99 34.5q-45 0 -79.5 -18.5t-47.5 -51.5h-141l48 408h473v-135h-347l-16 -125q55 35 138 35q72 0 131.5 -27t95 -80t35.5 -127q0 -75 -37.5 -133
t-104.5 -90.5t-154 -32.5q-79 0 -142 28.5z" />
    <glyph glyph-name="six.osf" horiz-adv-x="691" 
d="M192 34q-71 49 -106.5 131.5t-35.5 184.5q0 100 36 183t106.5 132.5t169.5 49.5q74 0 134 -27t98 -75.5t47 -109.5h-164q-11 34 -43 53.5t-76 19.5q-45 0 -82 -22.5t-59 -63.5t-22 -93v-8q34 36 83.5 55t106.5 19q72 0 133 -27.5t98 -80.5t37 -126q0 -64 -35 -120
t-100.5 -90t-153.5 -34q-101 0 -172 49zM458 146.5q39 32.5 39 82.5q0 52 -38 84.5t-98 32.5q-61 0 -100 -32t-39 -82q0 -30 17 -57t48.5 -44t72.5 -17q59 0 98 32.5z" />
    <glyph glyph-name="seven.osf" horiz-adv-x="596" 
d="M259.5 195.5q72.5 151.5 169.5 263.5h-421v141h580v-128q-61 -65 -116 -161.5t-93.5 -204.5t-49.5 -206h-163q21 144 93.5 295.5z" />
    <glyph glyph-name="eight.osf" horiz-adv-x="684" 
d="M184.5 11.5q-68.5 26.5 -106 74.5t-37.5 110q0 55 33 97.5t92 66.5q-52 23 -81 62.5t-29 90.5q0 59 36 105t100.5 71t149.5 25t149.5 -25t100.5 -71t36 -105q0 -51 -29.5 -90.5t-82.5 -62.5q60 -24 94 -66.5t34 -97.5q0 -62 -37.5 -110t-106 -74.5t-158.5 -26.5
q-89 0 -157.5 26.5zM439.5 438.5q37.5 25.5 37.5 66.5q0 40 -37.5 65.5t-97.5 25.5t-97.5 -25.5t-37.5 -65.5q0 -41 37.5 -66.5t97.5 -25.5t97.5 25.5zM446.5 132q40.5 28 40.5 71t-40.5 70t-104.5 27t-104.5 -27t-40.5 -70t40.5 -71t104.5 -28t104.5 28z" />
    <glyph glyph-name="nine.osf" horiz-adv-x="691" 
d="M499 566q71 -49 106.5 -131.5t35.5 -184.5q0 -100 -36 -183t-106.5 -132.5t-169.5 -49.5q-74 0 -134 27t-98 75.5t-47 109.5h164q11 -34 43 -53.5t76 -19.5q45 0 82 22.5t59 63.5t22 93v8q-34 -36 -83.5 -55t-106.5 -19q-72 0 -133 27.5t-98 80.5t-37 126q0 64 35 120
t100.5 90t153.5 34q101 0 172 -49zM233 453.5q-39 -32.5 -39 -82.5q0 -52 38 -84.5t98 -32.5q61 0 100 32t39 82q0 30 -17 57t-48.5 44t-72.5 17q-59 0 -98 -32.5z" />
    <glyph glyph-name="zero.tf" 
d="M186.5 31.5q-71.5 46.5 -111.5 129.5t-40 189t40 189t111.5 129.5t163.5 46.5t163.5 -46.5t111.5 -129.5t40 -189t-40 -189t-111.5 -129.5t-163.5 -46.5t-163.5 46.5zM465 185.5q43 61.5 43 164.5t-43 164.5t-115 61.5t-115 -61.5t-43 -164.5t43 -164.5t115 -61.5
t115 61.5z" />
    <glyph glyph-name="one.tf" 
d="M78 136h214v383l-179 -111v168l201 124h127v-564h209v-136h-572v136z" />
    <glyph glyph-name="two.tf" 
d="M296 259q13 8 25 18q-13 -7 -36 -7q-70 5 -122 36t-79.5 79t-27.5 101q0 61 34.5 113.5t100 84t154.5 31.5q83 0 148.5 -30t103 -82.5t37.5 -119.5q0 -73 -45 -137.5t-122 -109.5l-163 -98h335v-138h-571v123zM444 402.5q38 29.5 38 76.5t-38.5 77t-99.5 30
q-60 0 -98 -30t-38 -77t38 -76.5t98 -29.5q62 0 100 29.5z" />
    <glyph glyph-name="three.tf" 
d="M189 15.5q-65 30.5 -102 85.5t-39 126h150q4 -50 42 -82t95 -32t94.5 32.5t37.5 83.5q0 49 -33 80.5t-85 31.5q-45 0 -79 -24l-13 -10l-72 91l204 167h-315v135h523v-129l-172 -140q4 2 13 2q53 -5 95 -33.5t65.5 -73.5t23.5 -99q0 -70 -36 -125t-100.5 -86t-147.5 -31
q-84 0 -149 30.5z" />
    <glyph glyph-name="four.tf" 
d="M391 146h-361v128l317 426h197v-426h121v-128h-121v-146h-153v146zM391 274v277l-209 -277h209z" />
    <glyph glyph-name="five.tf" 
d="M197 13.5q-63 28.5 -100 78.5t-41 112h154q7 -42 43.5 -67.5t88.5 -25.5q62 0 100 37.5t38 92.5q0 52 -36 86.5t-99 34.5q-45 0 -79.5 -18.5t-47.5 -51.5h-141l48 408h473v-135h-347l-16 -125q55 35 138 35q72 0 131.5 -27t95 -80t35.5 -127q0 -75 -37.5 -133
t-104.5 -90.5t-154 -32.5q-79 0 -142 28.5z" />
    <glyph glyph-name="six.tf" 
d="M192 34q-71 49 -106.5 131.5t-35.5 184.5q0 100 36 183t106.5 132.5t169.5 49.5q74 0 134 -27t98 -75.5t47 -109.5h-164q-11 34 -43 53.5t-76 19.5q-45 0 -82 -22.5t-59 -63.5t-22 -93v-8q34 36 83.5 55t106.5 19q72 0 133 -27.5t98 -80.5t37 -126q0 -64 -35 -120
t-100.5 -90t-153.5 -34q-101 0 -172 49zM458 146.5q39 32.5 39 82.5q0 52 -38 84.5t-98 32.5q-61 0 -100 -32t-39 -82q0 -30 17 -57t48.5 -44t72.5 -17q59 0 98 32.5z" />
    <glyph glyph-name="seven.tf" 
d="M316.5 298.5q77.5 152.5 182.5 262.5h-453v139h599v-128q-62 -65 -119 -161.5t-96.5 -204.5t-51.5 -206h-162q23 146 100.5 298.5z" />
    <glyph glyph-name="eight.tf" 
d="M192.5 11.5q-68.5 26.5 -106 74.5t-37.5 110q0 55 33 97.5t92 66.5q-52 23 -81 62.5t-29 90.5q0 59 36 105t100.5 71t149.5 25t149.5 -25t100.5 -71t36 -105q0 -51 -29.5 -90.5t-82.5 -62.5q60 -24 94 -66.5t34 -97.5q0 -62 -37.5 -110t-106 -74.5t-158.5 -26.5
q-89 0 -157.5 26.5zM447.5 438.5q37.5 25.5 37.5 66.5q0 40 -37.5 65.5t-97.5 25.5t-97.5 -25.5t-37.5 -65.5q0 -41 37.5 -66.5t97.5 -25.5t97.5 25.5zM454.5 132q40.5 28 40.5 71t-40.5 70t-104.5 27t-104.5 -27t-40.5 -70t40.5 -71t104.5 -28t104.5 28z" />
    <glyph glyph-name="nine.tf" 
d="M502 666q71 -49 106.5 -132t35.5 -184q0 -100 -36.5 -183t-107 -132.5t-169.5 -49.5q-74 0 -133.5 27t-97.5 75.5t-47 109.5h164q11 -34 43 -53.5t76 -19.5q45 0 82 22.5t58.5 63.5t21.5 93v8q-33 -36 -82.5 -55t-106.5 -19q-72 0 -133 27.5t-98 80.5t-37 126
q0 64 35 120t100.5 90t153.5 34q101 0 172 -49zM236 553.5q-39 -32.5 -39 -82.5q0 -52 38 -84.5t98 -32.5q61 0 100 32t39 82q0 29 -17.5 56.5t-49 44.5t-71.5 17q-59 0 -98 -32.5z" />
    <glyph glyph-name="zero.tosf" 
d="M188.5 25.5q-71.5 40.5 -112 112.5t-40.5 162t40.5 162t112 112.5t161.5 40.5t162 -40.5t112.5 -112.5t40.5 -162t-40.5 -162t-112.5 -112.5t-162 -40.5t-161.5 40.5zM432 146.5q36 22.5 56 62.5t20 91t-20 91t-56 62.5t-82 22.5t-82 -22.5t-56 -62.5t-20 -91t20 -91
t56 -62.5t82 -22.5t82 22.5z" />
    <glyph glyph-name="one.tosf" 
d="M84 136h214v282l-179 -110v168l202 124h127v-464h201v-136h-565v136z" />
    <glyph glyph-name="two.tosf" 
d="M253 214l-11 1q-53 5 -98 32.5t-71.5 69.5t-26.5 90q0 60 37.5 107.5t104.5 74.5t151 27q87 0 154 -26.5t104 -74.5t37 -110q0 -68 -45 -118t-133 -93l-120 -63h321v-131h-604v113zM437.5 317q38.5 28 38.5 72q0 45 -38.5 73.5t-99.5 28.5q-60 0 -98.5 -28.5t-38.5 -73.5
q0 -44 38.5 -72t98.5 -28q61 0 99.5 28z" />
    <glyph glyph-name="three.tosf" 
d="M187 15.5q-65 30.5 -102 85.5t-39 126h150q4 -50 42 -82t95 -32t94.5 32.5t37.5 83.5q0 49 -33 80.5t-85 31.5q-45 0 -79 -24l-13 -10l-72 91l204 167h-315v135h523v-129l-172 -140q4 2 13 2q53 -5 95 -33.5t65.5 -73.5t23.5 -99q0 -70 -36 -125t-100.5 -86t-147.5 -31
q-84 0 -149 30.5z" />
    <glyph glyph-name="four.tosf" 
d="M400 46h-361v128l317 426h197v-426h121v-128h-121v-146h-153v146zM400 174v277l-209 -277h209z" />
    <glyph glyph-name="five.tosf" 
d="M207 -86.5q-63 28.5 -100 78.5t-41 112h154q7 -42 43.5 -67.5t88.5 -25.5q62 0 100 37.5t38 92.5q0 52 -36 86.5t-99 34.5q-45 0 -79.5 -18.5t-47.5 -51.5h-141l48 408h473v-135h-347l-16 -125q55 35 138 35q72 0 131.5 -27t95 -80t35.5 -127q0 -75 -37.5 -133
t-104.5 -90.5t-154 -32.5q-79 0 -142 28.5z" />
    <glyph glyph-name="six.tosf" 
d="M192 34q-71 49 -106.5 131.5t-35.5 184.5q0 100 36 183t106.5 132.5t169.5 49.5q74 0 134 -27t98 -75.5t47 -109.5h-164q-11 34 -43 53.5t-76 19.5q-45 0 -82 -22.5t-59 -63.5t-22 -93v-8q34 36 83.5 55t106.5 19q72 0 133 -27.5t98 -80.5t37 -126q0 -64 -35 -120
t-100.5 -90t-153.5 -34q-101 0 -172 49zM458 146.5q39 32.5 39 82.5q0 52 -38 84.5t-98 32.5q-61 0 -100 -32t-39 -82q0 -30 17 -57t48.5 -44t72.5 -17q59 0 98 32.5z" />
    <glyph glyph-name="seven.tosf" 
d="M319.5 198.5q77.5 152.5 182.5 262.5h-453v139h599v-128q-62 -65 -119 -161.5t-96.5 -204.5t-51.5 -206h-162q23 146 100.5 298.5z" />
    <glyph glyph-name="eight.tosf" 
d="M199.5 11.5q-68.5 26.5 -106 74.5t-37.5 110q0 55 33 97.5t92 66.5q-52 23 -81 62.5t-29 90.5q0 59 36 105t100.5 71t149.5 25t149.5 -25t100.5 -71t36 -105q0 -51 -29.5 -90.5t-82.5 -62.5q60 -24 94 -66.5t34 -97.5q0 -62 -37.5 -110t-106 -74.5t-158.5 -26.5
q-89 0 -157.5 26.5zM454.5 438.5q37.5 25.5 37.5 66.5q0 40 -37.5 65.5t-97.5 25.5t-97.5 -25.5t-37.5 -65.5q0 -41 37.5 -66.5t97.5 -25.5t97.5 25.5zM461.5 132q40.5 28 40.5 71t-40.5 70t-104.5 27t-104.5 -27t-40.5 -70t40.5 -71t104.5 -28t104.5 28z" />
    <glyph glyph-name="nine.tosf" 
d="M501 566q71 -49 106.5 -132t35.5 -184q0 -100 -36.5 -183t-107 -132.5t-169.5 -49.5q-74 0 -133.5 27t-97.5 75.5t-47 109.5h164q11 -34 43 -53.5t76 -19.5q45 0 82 22.5t58.5 63.5t21.5 93v8q-33 -36 -82.5 -55t-106.5 -19q-72 0 -133 27.5t-98 80.5t-37 126
q0 64 35 120t100.5 90t153.5 34q101 0 172 -49zM235 453.5q-39 -32.5 -39 -82.5q0 -52 38 -84.5t98 -32.5q61 0 100 32t39 82q0 29 -17.5 56.5t-49 44.5t-71.5 17q-59 0 -98 -32.5z" />
    <glyph glyph-name="colon.case" horiz-adv-x="304" 
d="M84.5 126.5q-27.5 27.5 -27.5 67.5q0 41 27.5 68t67.5 27q41 0 68 -27t27 -68q0 -40 -27 -67.5t-68 -27.5q-40 0 -67.5 27.5zM84.5 442.5q-27.5 27.5 -27.5 67.5q0 41 27.5 68t67.5 27q41 0 68 -27t27 -68q0 -40 -27 -67.5t-68 -27.5q-40 0 -67.5 27.5z" />
    <glyph glyph-name="exclamdown.case" horiz-adv-x="344" 
d="M240 683q27 -27 27 -68q0 -40 -27 -67.5t-68 -27.5q-40 0 -67.5 27.5t-27.5 67.5q0 41 27.5 68t67.5 27q41 0 68 -27zM88 0l29 450h117l28 -450h-174z" />
    <glyph glyph-name="questiondown.case" horiz-adv-x="621" 
d="M389 683q27 -27 27 -68q0 -40 -27 -67.5t-68 -27.5q-40 0 -67.5 27.5t-27.5 67.5q0 41 27.5 68t67.5 27q41 0 68 -27zM393 421q0 -55 -30 -89t-86 -57q-39 -17 -59 -38t-20 -49q0 -33 31.5 -52t78.5 -19q117 0 134 108h154q-11 -111 -89 -175.5t-203 -64.5q-78 0 -138 24
t-93.5 69t-33.5 105q0 58 34 97t104 73q49 25 66.5 43.5t17.5 53.5h130q2 -10 2 -29z" />
    <glyph glyph-name="asterisk.case" horiz-adv-x="1064" 
d="M508 211l-194 -173l-171 51l48 172h297l-368 113v173l160 41l220 -263l-126 353l158 133l158 -133l-126 -353l220 263l160 -41v-173l-368 -113h297l48 -172l-171 -51l-194 173l22 -250h-92z" />
    <glyph glyph-name="bullet.ss01" horiz-adv-x="1064" 
d="M508 211l-194 -173l-171 51l48 172h297l-368 113v173l160 41l220 -263l-126 353l158 133l158 -133l-126 -353l220 263l160 -41v-173l-368 -113h297l48 -172l-171 -51l-194 173l22 -250h-92z" />
    <glyph glyph-name="asterisk.ss01" horiz-adv-x="403" 
d="M163 468l-96 -55l-38 65l97 56l-97 55l38 65l96 -55v111h76v-111l97 55l38 -65l-97 -55l97 -56l-38 -65l-97 55v-111h-76v111z" />
    <glyph glyph-name="parenleft.case" horiz-adv-x="500" 
d="M241.5 30.5q-68.5 45.5 -106 128.5t-37.5 191t37.5 191t106 128.5t157.5 45.5v-125q-51 0 -89.5 -30t-60 -84.5t-21.5 -125.5t21.5 -125.5t60 -84.5t89.5 -30v-125q-89 0 -157.5 45.5z" />
    <glyph glyph-name="parenright.case" horiz-adv-x="500" 
d="M258.5 669.5q68.5 -45.5 106 -128.5t37.5 -191t-37.5 -191t-106 -128.5t-157.5 -45.5v125q51 0 89.5 30t60 84.5t21.5 125.5t-21.5 125.5t-60 84.5t-89.5 30v125q89 0 157.5 -45.5z" />
    <glyph glyph-name="braceleft.case" horiz-adv-x="500" 
d="M190.5 19.5q-43.5 34.5 -43.5 101.5q0 26 13 78q9 34 9 51q0 26 -11 38t-36 12h-46v100h46q25 0 36 12t11 38q0 17 -9 51q-13 52 -13 78q0 67 43.5 101.5t113.5 34.5q49 0 112 -13v-123q-49 11 -76 11q-62 0 -62 -57q0 -14 8 -48q9 -32 9 -53q0 -34 -16 -54t-51 -28
q35 -8 51 -27.5t16 -53.5q0 -15 -4 -32t-5 -22q-8 -34 -8 -47q0 -57 62 -57q31 0 76 10v-123q-63 -13 -112 -13q-70 0 -113.5 34.5z" />
    <glyph glyph-name="braceright.case" horiz-adv-x="500" 
d="M309.5 680.5q43.5 -34.5 43.5 -101.5q0 -26 -13 -78q-9 -34 -9 -51q0 -26 11 -38t36 -12h46v-100h-46q-25 0 -36 -12t-11 -38q0 -17 9 -51q13 -52 13 -78q0 -67 -43.5 -101.5t-113.5 -34.5q-49 0 -112 13v123q49 -11 76 -11q62 0 62 57q0 14 -8 48q-9 32 -9 53
q0 34 16 54t51 28q-35 8 -51 27.5t-16 53.5q0 15 4 32t5 22q8 34 8 47q0 57 -62 57q-31 0 -76 -10v123q63 13 112 13q70 0 113.5 -34.5z" />
    <glyph glyph-name="bracketleft.case" horiz-adv-x="500" 
d="M132 700h286v-125h-161v-450h161v-125h-286v700z" />
    <glyph glyph-name="bracketright.case" horiz-adv-x="500" 
d="M368 0h-286v125h161v450h-161v125h286v-700z" />
    <glyph glyph-name="hyphen.case" horiz-adv-x="414" 
d="M66 413h282v-125h-282v125z" />
    <glyph glyph-name="endash.case" horiz-adv-x="554" 
d="M66 413h422v-125h-422v125z" />
    <glyph glyph-name="emdash.case" horiz-adv-x="714" 
d="M66 413h582v-125h-582v125z" />
    <glyph glyph-name="guillemotleft.case" horiz-adv-x="612" 
d="M197 350l109 -200h-152l-106 194v12l106 194h152zM455 350l109 -200h-152l-106 194v12l106 194h152z" />
    <glyph glyph-name="guillemotright.case" horiz-adv-x="612" 
d="M157 350l-109 200h152l106 -194v-12l-106 -194h-152zM415 350l-109 200h152l106 -194v-12l-106 -194h-152z" />
    <glyph glyph-name="guilsinglleft.case" horiz-adv-x="354" 
d="M197 350l109 -200h-152l-106 194v12l106 194h152z" />
    <glyph glyph-name="guilsinglright.case" horiz-adv-x="354" 
d="M157 350l-109 200h152l106 -194v-12l-106 -194h-152z" />
    <glyph glyph-name="at.case" horiz-adv-x="820" 
d="M225 33q-84 48 -132 132t-48 185t48 185t132 132t185 48t185 -48t132 -132t48 -185q0 -109 -56 -198h-216v55q-25 -30 -67 -47t-89 -17q-65 0 -103 31t-38 83q0 62 50.5 95t155.5 39q44 2 62.5 9t18.5 21q0 24 -21 39t-56 15q-36 0 -60.5 -16t-31.5 -44h-106
q9 69 61.5 110t132.5 41q87 0 138.5 -45t51.5 -120v-155h88q20 49 20 104q0 83 -39.5 152t-108.5 108.5t-152 39.5t-151.5 -39.5t-108 -108.5t-39.5 -152t39.5 -151.5t108 -108t151.5 -39.5q63 0 112 17.5t90 52.5l44 -48q-99 -88 -246 -88q-101 0 -185 48zM437 245
q27 14 43.5 37.5t16.5 49.5v7q-18 -14 -77 -19q-51 -5 -73 -16t-22 -31t14.5 -31t40.5 -11q30 0 57 14z" />
    <glyph glyph-name="bar.case" horiz-adv-x="389" 
d="M132 700h125v-700h-125v700z" />
    <glyph glyph-name="brokenbar.case" horiz-adv-x="389" 
d="M132 700h125v-280h-125v280zM132 280h125v-280h-125v280z" />
    <glyph glyph-name="ampersand.ss02" horiz-adv-x="608" 
d="M169 21q-62 31 -96.5 87t-34.5 127q0 89 54 154.5t140 86.5v106h-189v128h518v-128h-190v-103q90 -17 147 -82.5t57 -156.5q0 -19 -3 -40h-399q9 -43 47 -71t94 -28q32 0 59 11.5t40 31.5h146q-9 -40 -42 -75.5t-86.5 -57t-119.5 -21.5q-80 0 -142 31zM390 356
q-34 24 -82 24q-47 0 -83 -24.5t-49 -64.5h261q-13 41 -47 65z" />
    <glyph glyph-name="uni030C.alt" horiz-adv-x="0" 
d="M-237 700h125l-8 -160h-117v160z" />
    <glyph glyph-name="uni0308.cv01" horiz-adv-x="0" 
d="M-132 745l-80 -188h-10l-78 183l-79 -183h-9l-80 188h336z" />
    <glyph glyph-name="uni0307.cv01" horiz-adv-x="0" 
d="M-395 745h190l-90 -188h-10z" />
    <glyph glyph-name="brevecombcy" horiz-adv-x="0" 
d="M-404.5 577.5q-45.5 23.5 -70.5 65.5t-25 94v8h115v-7q0 -35 23.5 -57.5t61.5 -22.5t61.5 22.5t23.5 57.5v7h115v-8q0 -52 -25 -94t-70.5 -65.5t-104.5 -23.5t-104.5 23.5z" />
    </font>
</defs>
</svg>
